<svg width="313" height="314" viewBox="0 0 313 314" fill="none" xmlns="http://www.w3.org/2000/svg">
<path d="M294.406 163.296L310.793 164.119L311.112 157.773L312.891 157.862L312.16 172.408L310.382 172.319L310.7 165.973L294.313 165.15L294.406 163.296Z" fill="white"/>
<path d="M292.362 182.106L299.243 183.147C299.993 183.261 300.69 183.294 301.336 183.247C301.99 183.201 302.575 183.055 303.089 182.809C303.61 182.573 304.037 182.225 304.371 181.764C304.704 181.312 304.923 180.732 305.03 180.024C305.129 179.375 305.103 178.783 304.954 178.25C304.804 177.725 304.542 177.259 304.169 176.853C303.803 176.457 303.333 176.127 302.76 175.861C302.187 175.595 301.518 175.405 300.752 175.289L301.236 174.033C302.618 174.243 303.743 174.66 304.611 175.285C305.478 175.91 306.089 176.684 306.444 177.607C306.798 178.529 306.892 179.54 306.726 180.639C306.604 181.446 306.372 182.131 306.032 182.693C305.69 183.263 305.275 183.724 304.788 184.076C304.299 184.436 303.76 184.704 303.172 184.879C302.591 185.055 301.984 185.155 301.351 185.178C300.725 185.203 300.109 185.169 299.501 185.077L292.082 183.954L292.362 182.106ZM293.838 172.352L311.822 175.073L311.571 176.734L301.417 175.198L301.389 175.385L293.558 174.2L293.838 172.352Z" fill="white"/>
<path d="M290.234 190.048C290.491 189.054 290.887 188.265 291.42 187.681C291.952 187.105 292.559 186.727 293.24 186.547C293.922 186.367 294.613 186.367 295.315 186.549C296.032 186.734 296.606 187.035 297.038 187.451C297.476 187.878 297.793 188.382 297.991 188.964C298.186 189.553 298.284 190.201 298.284 190.905C298.274 191.616 298.226 192.391 298.139 193.229C298.059 194.078 297.963 194.902 297.852 195.699C297.747 196.507 297.664 197.216 297.602 197.827L297.375 197.089C298.673 197.451 299.704 197.449 300.469 197.081C301.234 196.714 301.786 195.874 302.126 194.561C302.36 193.657 302.355 192.837 302.11 192.104C301.862 191.379 301.331 190.776 300.516 190.296L301.482 188.68C302.586 189.288 303.346 190.132 303.762 191.214C304.178 192.296 304.197 193.567 303.82 195.026C303.507 196.232 303.014 197.196 302.34 197.918C301.673 198.65 300.865 199.08 299.919 199.209C299.493 199.273 299.038 199.268 298.552 199.195C298.067 199.121 297.58 199.021 297.09 198.895L288.885 196.771L289.3 195.169L292.614 196.027L292.298 196.441C291.281 195.699 290.597 194.779 290.246 193.679C289.896 192.579 289.892 191.369 290.234 190.048ZM291.733 190.658C291.516 191.498 291.476 192.271 291.616 192.976C291.755 193.682 292.036 194.294 292.458 194.812C292.889 195.333 293.42 195.735 294.051 196.02C294.449 196.228 294.9 196.401 295.403 196.54C295.915 196.681 296.297 196.784 296.55 196.85L296.018 197.443C296.095 196.81 296.185 196.125 296.289 195.386C296.391 194.656 296.479 193.931 296.552 193.21C296.624 192.498 296.658 191.846 296.654 191.253C296.645 190.851 296.588 190.449 296.483 190.048C296.387 189.649 296.209 189.294 295.95 188.984C295.689 188.681 295.322 188.469 294.849 188.346C294.466 188.247 294.071 188.245 293.664 188.34C293.254 188.442 292.877 188.675 292.531 189.038C292.182 189.409 291.916 189.949 291.733 190.658Z" fill="white"/>
<path d="M284.501 209.171L291.026 211.592C291.736 211.855 292.413 212.03 293.055 212.115C293.704 212.204 294.306 212.18 294.859 212.044C295.418 211.919 295.907 211.665 296.328 211.282C296.745 210.907 297.079 210.384 297.328 209.712C297.556 209.097 297.651 208.512 297.614 207.96C297.574 207.415 297.412 206.906 297.13 206.433C296.852 205.97 296.46 205.551 295.953 205.174C295.446 204.798 294.829 204.475 294.103 204.205L294.832 203.074C296.143 203.561 297.159 204.198 297.881 204.987C298.604 205.776 299.044 206.658 299.204 207.633C299.363 208.608 299.249 209.617 298.862 210.659C298.578 211.425 298.213 212.048 297.765 212.529C297.314 213.017 296.814 213.384 296.265 213.63C295.713 213.883 295.131 214.035 294.519 214.087C293.915 214.141 293.301 214.115 292.676 214.009C292.058 213.906 291.461 213.747 290.885 213.533L283.85 210.924L284.501 209.171ZM287.932 199.922L300.722 204.666L300.137 206.242L296.987 205.073L296.921 205.251L287.281 201.675L287.932 199.922Z" fill="white"/>
<path d="M282.82 213.178L299.175 221.138L298.358 222.819L288.36 217.962L291.608 226.308L290.526 228.535L287.184 219.806L277.891 223.324L279.072 220.892L287.906 217.741L281.998 214.871L282.82 213.178Z" fill="white"/>
<path d="M267.874 228.123L272.364 234.295L270.579 233.148L286.093 236.322L284.998 237.961L272.077 235.227L272.525 234.554L280.215 245.125L279.163 246.701L266.843 229.667L267.874 228.123Z" fill="white"/>
<path d="M262.979 244.492C263.839 243.444 264.811 242.744 265.895 242.392C266.98 242.04 268.105 242.01 269.27 242.302C270.436 242.594 271.562 243.186 272.649 244.078C273.756 244.986 274.56 245.984 275.062 247.072C275.564 248.159 275.742 249.263 275.595 250.385C275.449 251.518 274.954 252.599 274.11 253.627C273.245 254.682 272.27 255.385 271.186 255.737C270.103 256.101 268.981 256.134 267.821 255.835C266.662 255.549 265.539 254.959 264.452 254.067C263.345 253.159 262.535 252.162 262.021 251.075C261.514 249.994 261.333 248.887 261.478 247.754C261.624 246.621 262.124 245.534 262.979 244.492ZM264.356 245.622C263.394 246.794 263.066 247.984 263.37 249.192C263.681 250.406 264.458 251.523 265.702 252.544C266.977 253.591 268.231 254.135 269.461 254.175C270.686 254.222 271.777 253.663 272.733 252.497C273.38 251.71 273.735 250.912 273.799 250.104C273.864 249.308 273.685 248.524 273.262 247.752C272.84 246.991 272.219 246.275 271.399 245.602C270.13 244.56 268.871 244.017 267.622 243.972C266.379 243.933 265.291 244.483 264.356 245.622Z" fill="white"/>
<path d="M253.864 254.613C254.444 254.037 255.041 253.623 255.655 253.369C256.263 253.121 256.871 252.998 257.478 253C258.08 253.008 258.666 253.115 259.237 253.319C259.813 253.53 260.36 253.812 260.877 254.165C261.4 254.524 261.878 254.922 262.311 255.358L267.597 260.683L266.27 262L261.367 257.061C260.839 256.529 260.298 256.086 259.746 255.733C259.193 255.379 258.638 255.142 258.078 255.021C257.519 254.912 256.971 254.94 256.434 255.104C255.892 255.275 255.367 255.613 254.859 256.117C254.393 256.58 254.063 257.067 253.871 257.578C253.673 258.095 253.602 258.622 253.66 259.158C253.717 259.706 253.897 260.258 254.199 260.813C254.506 261.373 254.93 261.926 255.47 262.47L254.333 263.189C253.348 262.197 252.694 261.191 252.37 260.172C252.046 259.152 252.017 258.167 252.282 257.215C252.548 256.263 253.075 255.396 253.864 254.613ZM250.85 258.085L253.217 260.47L253.352 260.336L260.596 267.633L259.278 268.941L249.667 259.26L250.85 258.085Z" fill="white"/>
<path d="M222.38 291.405C219.832 284.911 212.502 281.713 206.008 284.261C199.514 286.81 196.315 294.14 198.864 300.634C201.412 307.128 208.742 310.326 215.236 307.778C221.73 305.229 224.929 297.899 222.38 291.405Z" fill="white"/>
<path d="M151.739 295.244L151.105 311.64L157.454 311.885L157.386 313.665L142.833 313.103L142.901 311.323L149.25 311.568L149.883 295.172L151.739 295.244Z" fill="white"/>
<path d="M132.684 293.362L131.722 300.255C131.617 301.006 131.592 301.704 131.647 302.349C131.7 303.002 131.853 303.585 132.104 304.096C132.347 304.615 132.7 305.038 133.164 305.366C133.62 305.694 134.203 305.907 134.911 306.006C135.562 306.096 136.153 306.064 136.685 305.909C137.209 305.752 137.671 305.485 138.072 305.108C138.464 304.737 138.789 304.264 139.048 303.688C139.307 303.112 139.49 302.44 139.597 301.673L140.858 302.142C140.665 303.527 140.261 304.656 139.646 305.531C139.03 306.406 138.264 307.026 137.345 307.391C136.427 307.756 135.418 307.862 134.317 307.708C133.508 307.595 132.821 307.372 132.255 307.038C131.681 306.703 131.215 306.293 130.858 305.81C130.492 305.325 130.218 304.789 130.036 304.203C129.853 303.625 129.746 303.019 129.716 302.385C129.684 301.76 129.711 301.143 129.796 300.534L130.833 293.104L132.684 293.362ZM142.455 294.726L139.94 312.74L138.276 312.508L139.696 302.337L139.508 302.311L140.603 294.467L142.455 294.726Z" fill="white"/>
<path d="M124.791 291.3C125.788 291.546 126.582 291.932 127.172 292.459C127.753 292.984 128.138 293.587 128.326 294.266C128.514 294.946 128.521 295.637 128.348 296.34C128.171 297.06 127.876 297.638 127.465 298.074C127.044 298.516 126.543 298.84 125.964 299.044C125.376 299.246 124.73 299.351 124.026 299.359C123.315 299.357 122.54 299.318 121.7 299.241C120.85 299.17 120.026 299.084 119.227 298.982C118.418 298.886 117.708 298.811 117.097 298.756L117.831 298.521C117.484 299.823 117.499 300.854 117.875 301.615C118.251 302.375 119.097 302.918 120.414 303.243C121.321 303.467 122.14 303.452 122.87 303.198C123.593 302.943 124.189 302.405 124.661 301.584L126.287 302.532C125.692 303.643 124.856 304.412 123.779 304.841C122.702 305.269 121.432 305.302 119.968 304.941C118.758 304.643 117.789 304.161 117.06 303.495C116.32 302.836 115.881 302.034 115.741 301.088C115.672 300.664 115.672 300.208 115.74 299.722C115.808 299.236 115.902 298.747 116.023 298.257L118.053 290.028L119.66 290.424L118.84 293.748L118.422 293.436C119.152 292.411 120.065 291.717 121.161 291.354C122.256 290.991 123.466 290.973 124.791 291.3ZM124.198 292.806C123.356 292.598 122.583 292.568 121.879 292.715C121.175 292.862 120.566 293.15 120.052 293.578C119.537 294.015 119.14 294.55 118.863 295.184C118.66 295.585 118.492 296.038 118.358 296.543C118.223 297.056 118.124 297.439 118.062 297.693L117.463 297.168C118.096 297.237 118.783 297.32 119.522 297.416C120.254 297.509 120.98 297.589 121.701 297.654C122.414 297.717 123.067 297.743 123.659 297.733C124.061 297.72 124.462 297.658 124.862 297.549C125.26 297.448 125.613 297.266 125.921 297.003C126.22 296.739 126.428 296.37 126.545 295.896C126.64 295.511 126.638 295.116 126.538 294.71C126.431 294.302 126.194 293.927 125.827 293.585C125.452 293.241 124.909 292.981 124.198 292.806Z" fill="white"/>
<path d="M105.569 285.72L103.198 292.263C102.939 292.976 102.77 293.653 102.689 294.296C102.606 294.946 102.634 295.548 102.774 296.1C102.904 296.658 103.162 297.145 103.548 297.563C103.926 297.977 104.451 298.307 105.124 298.551C105.742 298.774 106.327 298.866 106.879 298.824C107.424 298.779 107.932 298.614 108.402 298.328C108.863 298.047 109.279 297.652 109.652 297.142C110.025 296.632 110.343 296.013 110.607 295.285L111.743 296.005C111.267 297.32 110.637 298.341 109.854 299.069C109.07 299.797 108.192 300.245 107.218 300.411C106.244 300.578 105.234 300.471 104.189 300.093C103.421 299.814 102.795 299.453 102.311 299.009C101.819 298.562 101.449 298.065 101.199 297.518C100.942 296.968 100.785 296.387 100.729 295.775C100.67 295.172 100.691 294.557 100.793 293.931C100.892 293.313 101.046 292.715 101.255 292.137L103.812 285.083L105.569 285.72ZM114.844 289.081L110.196 301.907L108.616 301.334L109.761 298.176L109.583 298.111L113.086 288.444L114.844 289.081Z" fill="white"/>
<path d="M101.572 284.095L93.7332 300.509L92.0457 299.704L96.8289 289.67L88.5067 292.98L86.2719 291.914L94.9764 288.508L91.3896 279.241L93.8297 280.405L97.0463 289.214L99.8727 283.285L101.572 284.095Z" fill="white"/>
<path d="M86.5425 269.307L80.4033 273.843L81.5369 272.049L78.477 287.586L76.8302 286.504L79.4695 273.562L80.1451 274.006L69.6308 281.773L68.0473 280.732L84.9907 268.288L86.5425 269.307Z" fill="white"/>
<path d="M70.2569 264.655C71.3142 265.504 72.0249 266.468 72.3888 267.548C72.7527 268.629 72.795 269.753 72.5156 270.922C72.2363 272.091 71.6566 273.223 70.7763 274.32C69.8803 275.437 68.8914 276.252 67.8095 276.766C66.7277 277.279 65.6253 277.469 64.5024 277.334C63.3677 277.201 62.2815 276.718 61.2439 275.885C60.18 275.031 59.466 274.064 59.1021 272.984C58.7264 271.905 58.6815 270.784 58.9673 269.62C59.2414 268.458 59.8185 267.329 60.6987 266.232C61.5948 265.116 62.5831 264.295 63.6636 263.769C64.7389 263.25 65.8439 263.057 66.9786 263.19C68.1133 263.323 69.2061 263.812 70.2569 264.655ZM69.1421 266.044C67.96 265.095 66.7664 264.78 65.5612 265.098C64.3508 265.422 63.2422 266.211 62.2355 267.465C61.2024 268.753 60.6724 270.012 60.6455 271.243C60.612 272.468 61.1831 273.553 62.3586 274.496C63.1533 275.134 63.955 275.48 64.7637 275.536C65.5606 275.592 66.3427 275.405 67.1101 274.973C67.8656 274.543 68.5755 273.914 69.2396 273.087C70.2674 271.806 70.7967 270.541 70.8276 269.292C70.8532 268.049 70.2914 266.966 69.1421 266.044Z" fill="white"/>
<path d="M60.0586 255.658C60.6404 256.232 61.0615 256.824 61.322 257.435C61.5765 258.041 61.706 258.647 61.7104 259.255C61.7088 259.856 61.6089 260.443 61.4106 261.017C61.2064 261.596 60.9305 262.145 60.583 262.666C60.2295 263.193 59.837 263.675 59.4055 264.113L54.1388 269.456L52.8073 268.144L57.6928 263.187C58.2189 262.653 58.6556 262.108 59.0028 261.552C59.3501 260.996 59.5813 260.437 59.6963 259.877C59.7994 259.316 59.7656 258.769 59.595 258.234C59.4184 257.693 59.0752 257.172 58.5654 256.669C58.0976 256.208 57.607 255.884 57.0935 255.698C56.5741 255.505 56.0466 255.44 55.5112 255.504C54.9638 255.567 54.4144 255.753 53.8628 256.061C53.3054 256.374 52.7577 256.804 52.2198 257.35L51.4881 256.221C52.4693 255.225 53.4678 254.56 54.4836 254.225C55.4994 253.89 56.4846 253.85 57.4392 254.105C58.3938 254.36 59.267 254.878 60.0586 255.658ZM56.5536 252.683L54.1951 255.076L54.33 255.209L47.1126 262.532L45.7902 261.228L55.3661 251.512L56.5536 252.683Z" fill="white"/>
<path d="M23.0186 224.734C29.4835 222.113 32.5995 214.747 29.9783 208.283C27.3571 201.818 19.9914 198.702 13.5265 201.323C7.06156 203.944 3.94562 211.31 6.5668 217.775C9.18798 224.24 16.5537 227.356 23.0186 224.734Z" fill="white"/>
<path d="M18.3541 154.396L1.952 153.953L1.78036 160.304L0 160.256L0.39344 145.697L2.1738 145.746L2.00216 152.097L18.4042 152.54L18.3541 154.396Z" fill="white"/>
<path d="M20.0482 134.996L13.148 134.087C12.3966 133.988 11.6985 133.968 11.0536 134.028C10.4004 134.086 9.81913 134.243 9.30981 134.499C8.79323 134.745 8.37254 135.102 8.04773 135.568C7.72402 136.027 7.51542 136.611 7.42192 137.321C7.33612 137.972 7.37293 138.563 7.53235 139.093C7.69287 139.616 7.96347 140.076 8.34415 140.474C8.71759 140.863 9.19331 141.185 9.77132 141.44C10.3493 141.694 11.0224 141.872 11.7905 141.973L11.3308 143.238C9.94494 143.055 8.8122 142.659 7.93259 142.051C7.05298 141.442 6.42717 140.68 6.05514 139.765C5.68311 138.85 5.56969 137.841 5.71489 136.739C5.82159 135.929 6.03976 135.24 6.36942 134.672C6.70018 134.096 7.10595 133.627 7.58674 133.265C8.06862 132.896 8.60212 132.618 9.18723 132.431C9.764 132.244 10.369 132.133 11.0022 132.097C11.627 132.061 12.2442 132.083 12.8537 132.163L20.2924 133.143L20.0482 134.996ZM18.7596 144.777L0.726324 142.401L0.945768 140.735L11.127 142.077L11.1518 141.889L19.0037 142.923L18.7596 144.777Z" fill="white"/>
<path d="M22.0227 126.981C21.7842 127.98 21.4037 128.777 20.8811 129.371C20.3604 129.956 19.761 130.346 19.083 130.539C18.4049 130.732 17.7136 130.745 17.0092 130.577C16.2884 130.405 15.7083 130.115 15.2689 129.707C14.8232 129.289 14.4962 128.791 14.2878 128.213C14.0813 127.627 13.9712 126.982 13.9575 126.277C13.954 125.567 13.9875 124.791 14.0582 123.951C14.1226 123.101 14.2026 122.275 14.2982 121.476C14.3875 120.666 14.4575 119.956 14.5081 119.344L14.7488 120.077C13.4441 119.74 12.4129 119.762 11.6552 120.144C10.8974 120.526 10.3612 121.376 10.0465 122.695C9.82959 123.604 9.85064 124.423 10.1097 125.151C10.3707 125.872 10.9132 126.464 11.7372 126.929L10.802 128.563C9.68659 127.977 8.91072 127.146 8.47436 126.073C8.038 124.999 7.99475 123.729 8.34461 122.263C8.63388 121.051 9.10852 120.077 9.76853 119.343C10.4223 118.599 11.2212 118.153 12.1653 118.006C12.5894 117.934 13.0448 117.93 13.5316 117.995C14.0184 118.059 14.5075 118.149 14.999 118.267L23.2431 120.234L22.8591 121.844L19.5295 121.049L19.8375 120.629C20.8685 121.351 21.5696 122.259 21.9408 123.352C22.312 124.444 22.3393 125.654 22.0227 126.981ZM20.5122 126.4C20.7135 125.556 20.7379 124.783 20.5853 124.08C20.4327 123.377 20.1403 122.77 19.7079 122.26C19.2674 121.748 18.729 121.356 18.0929 121.083C17.6905 120.883 17.2363 120.718 16.7304 120.589C16.2163 120.458 15.8323 120.362 15.5784 120.301L16.0989 119.698C16.0342 120.332 15.9568 121.019 15.8668 121.759C15.7786 122.491 15.7047 123.218 15.6451 123.94C15.5874 124.653 15.5658 125.306 15.5803 125.898C15.5969 126.301 15.6614 126.701 15.774 127.1C15.8783 127.497 16.0629 127.849 16.3276 128.154C16.5942 128.452 16.9651 128.657 17.4402 128.771C17.8252 128.862 18.2203 128.857 18.6257 128.755C19.033 128.644 19.4062 128.404 19.7454 128.035C20.0865 127.658 20.3421 127.113 20.5122 126.4Z" fill="white"/>
<path d="M27.3544 107.841L20.7847 105.544C20.0693 105.293 19.3899 105.132 18.7465 105.058C18.0951 104.982 17.494 105.017 16.9433 105.164C16.3873 105.299 15.9028 105.563 15.4896 105.953C15.0791 106.336 14.7558 106.865 14.5195 107.541C14.3027 108.161 14.2182 108.747 14.266 109.299C14.3166 109.843 14.4876 110.349 14.779 110.817C15.0653 111.274 15.4654 111.686 15.9793 112.053C16.4933 112.42 17.1159 112.731 17.8472 112.987L17.1393 114.131C15.8198 113.669 14.7915 113.051 14.0545 112.276C13.3176 111.501 12.8603 110.627 12.6828 109.655C12.5053 108.683 12.6001 107.673 12.967 106.623C13.2366 105.852 13.5908 105.222 14.0294 104.733C14.4708 104.237 14.9637 103.86 15.508 103.605C16.0552 103.341 16.6342 103.178 17.245 103.115C17.8478 103.049 18.4628 103.063 19.0899 103.158C19.7091 103.25 20.3088 103.397 20.8891 103.6L27.9715 106.077L27.3544 107.841ZM24.0978 117.153L11.2207 112.65L11.7753 111.064L14.9469 112.173L15.0094 111.994L24.7149 115.389L24.0978 117.153Z" fill="white"/>
<path d="M28.9248 103.827L12.4249 96.1717L13.2105 94.4753L23.297 99.1463L19.8952 90.8615L20.9356 88.615L24.4392 97.281L33.6648 93.5911L32.5289 96.044L23.7555 99.3586L29.7157 102.119L28.9248 103.827Z" fill="white"/>
<path d="M43.5307 88.6423L38.9277 82.5534L40.7343 83.6672L25.1648 80.7784L26.2287 79.1198L39.1985 81.6166L38.762 82.297L30.8797 71.8688L31.9027 70.2739L44.5333 87.0794L43.5307 88.6423Z" fill="white"/>
<path d="M47.8264 72.5154C46.9894 73.582 46.0328 74.3031 44.9566 74.6788C43.8803 75.0545 42.7564 75.1091 41.5847 74.8426C40.413 74.5761 39.274 74.0087 38.1677 73.1405C37.0415 72.2568 36.2156 71.2768 35.69 70.2006C35.1643 69.1245 34.9627 68.0243 35.085 66.9C35.2059 65.7638 35.677 64.6724 36.4984 63.6257C37.3406 62.5526 38.2998 61.8281 39.376 61.4524C40.4508 61.0649 41.5715 61.0077 42.738 61.2809C43.903 61.5422 45.0387 62.1069 46.145 62.9751C47.2712 63.8589 48.103 64.8382 48.6405 65.9129C49.1713 66.9824 49.3763 68.0852 49.2554 69.2214C49.1345 70.3575 48.6582 71.4555 47.8264 72.5154ZM46.4253 71.4159C47.3611 70.2235 47.6635 69.0265 47.3327 67.8249C46.9952 66.6181 46.1938 65.5182 44.9285 64.5253C43.6301 63.5063 42.3654 62.9901 41.1342 62.9767C39.9083 62.9566 38.83 63.5395 37.8995 64.7253C37.2704 65.5268 36.9328 66.3322 36.8864 67.1415C36.8386 67.939 37.0347 68.719 37.4745 69.4816C37.9129 70.2324 38.5495 70.9353 39.3842 71.5904C40.676 72.6041 41.9466 73.1196 43.1962 73.1368C44.4392 73.1489 45.5155 72.5752 46.4253 71.4159Z" fill="white"/>
<path d="M56.6986 62.1818C56.1316 62.7698 55.5439 63.1973 54.9353 63.4645C54.3326 63.7256 53.7276 63.8616 53.1204 63.8726C52.519 63.8776 51.9306 63.7841 51.3554 63.592C50.7742 63.3942 50.2214 63.1243 49.697 62.7825C49.1666 62.4348 48.6802 62.0476 48.2377 61.6209L42.8368 56.4127L44.1344 55.067L49.1444 59.8982C49.6838 60.4184 50.2336 60.8491 50.7937 61.1903C51.3537 61.5315 51.9146 61.7565 52.4764 61.8654C53.038 61.9624 53.5852 61.9227 54.118 61.7463C54.6566 61.5638 55.1743 61.2149 55.6712 60.6997C56.1271 60.2269 56.4457 59.7327 56.6269 59.2173C56.814 58.6958 56.8729 58.1676 56.8036 57.6329C56.7341 57.0863 56.5425 56.5389 56.2288 55.9907C55.9091 55.4367 55.4734 54.8938 54.9218 54.3618L56.0428 53.6179C57.049 54.5882 57.7251 55.5794 58.071 56.5915C58.417 57.6036 58.4676 58.5883 58.223 59.5456C57.9783 60.5029 57.4702 61.3817 56.6986 62.1818ZM59.6359 58.6445L57.2173 56.3122L57.0858 56.4486L49.6845 49.3115L50.9734 47.9749L60.7933 57.4443L59.6359 58.6445Z" fill="white"/>
<path d="M86.8757 24.8006C89.5692 31.2357 96.9694 34.2689 103.405 31.5753C109.84 28.8818 112.873 21.4816 110.179 15.0465C107.486 8.61137 100.086 5.57822 93.6504 8.27175C87.2153 10.9653 84.1822 18.3655 86.8757 24.8006Z" fill="white"/>
<path d="M158.078 19.1208L158.395 2.7158L152.043 2.59318L152.077 0.8125L166.638 1.09356L166.604 2.87424L160.252 2.75163L159.935 19.1566L158.078 19.1208Z" fill="white"/>
<path d="M176.81 20.5556L177.64 13.6453C177.73 12.8928 177.742 12.1945 177.675 11.5504C177.609 10.8979 177.446 10.3185 177.184 9.81216C176.932 9.29846 176.571 8.8819 176.1 8.5625C175.638 8.24409 175.051 8.04224 174.341 7.95692C173.689 7.87864 173.098 7.92225 172.569 8.08777C172.049 8.2543 171.592 8.53019 171.198 8.91544C170.813 9.29334 170.497 9.77273 170.249 10.3536C170.001 10.9345 169.831 11.6096 169.739 12.3788L168.469 11.9338C168.636 10.5459 169.018 9.40864 169.617 8.52207C170.215 7.63551 170.97 7.00096 171.881 6.6184C172.792 6.23585 173.799 6.11082 174.903 6.2433C175.714 6.34066 176.405 6.55088 176.977 6.87397C177.557 7.19807 178.031 7.59841 178.398 8.07499C178.773 8.55259 179.057 9.08284 179.25 9.66577C179.444 10.2403 179.562 10.844 179.605 11.4768C179.649 12.1012 179.634 12.7185 179.561 13.3289L178.666 20.7784L176.81 20.5556ZM167.016 19.3797L169.184 1.32032L170.852 1.52056L169.628 11.7166L169.816 11.7392L168.872 19.6026L167.016 19.3797Z" fill="white"/>
<path d="M184.981 22.4391C183.979 22.2121 183.178 21.8407 182.579 21.3249C181.987 20.8109 181.591 20.2161 181.39 19.5402C181.189 18.8644 181.169 18.1734 181.329 17.4671C181.493 16.7443 181.776 16.161 182.179 15.7169C182.592 15.2665 183.086 14.9338 183.661 14.7188C184.245 14.5057 184.889 14.3882 185.593 14.3665C186.304 14.3548 187.079 14.3795 187.92 14.4405C188.771 14.4952 189.597 14.5658 190.398 14.6522C191.209 14.7323 191.92 14.7942 192.532 14.8378L191.802 15.0869C192.124 13.7784 192.09 12.7475 191.7 11.9942C191.309 11.2409 190.453 10.7144 189.13 10.4148C188.219 10.2083 187.4 10.2387 186.675 10.506C185.958 10.7752 185.371 11.3245 184.916 12.1538L183.271 11.2372C183.845 10.1152 184.666 9.32992 185.735 8.88132C186.804 8.43272 188.073 8.37496 189.543 8.70805C190.759 8.98346 191.737 9.44695 192.479 10.0985C193.231 10.7438 193.685 11.5375 193.843 12.4799C193.92 12.9031 193.929 13.3585 193.87 13.846C193.812 14.3335 193.727 14.8236 193.615 15.3164L191.742 23.5824L190.128 23.2168L190.885 19.8783L191.308 20.1815C190.598 21.2207 189.698 21.9321 188.61 22.3158C187.521 22.6995 186.312 22.7406 184.981 22.4391ZM185.545 20.9221C186.391 21.1137 187.165 21.1293 187.866 20.9687C188.567 20.8081 189.17 20.5087 189.675 20.0706C190.182 19.6242 190.569 19.0814 190.834 18.4423C191.03 18.0375 191.189 17.5815 191.313 17.0742C191.438 16.5587 191.53 16.1736 191.587 15.919L192.196 16.4326C191.562 16.3751 190.874 16.3056 190.132 16.224C189.399 16.1442 188.672 16.0786 187.949 16.0272C187.235 15.9777 186.582 15.9635 185.99 15.9848C185.588 16.006 185.189 16.0751 184.791 16.1922C184.395 16.3011 184.046 16.4896 183.743 16.7578C183.449 17.0279 183.248 17.401 183.14 17.8774C183.052 18.2634 183.062 18.6585 183.169 19.0626C183.284 19.4686 183.528 19.8391 183.901 20.174C184.283 20.5108 184.831 20.7602 185.545 20.9221Z" fill="white"/>
<path d="M204.152 27.5233L206.375 20.9281C206.618 20.2099 206.772 19.5288 206.838 18.8846C206.907 18.2324 206.865 17.6317 206.712 17.0827C206.57 16.5283 206.301 16.0467 205.906 15.638C205.519 15.2319 204.986 14.9145 204.307 14.6859C203.685 14.4761 203.098 14.3982 202.547 14.4523C202.003 14.509 201.499 14.6857 201.035 14.9824C200.581 15.2738 200.174 15.6785 199.813 16.1966C199.451 16.7146 199.147 17.3407 198.9 18.0749L197.748 17.3799C198.194 16.0553 198.801 15.0201 199.568 14.2745C200.334 13.5288 201.203 13.0617 202.173 12.8732C203.143 12.6848 204.154 12.7681 205.208 13.1231C205.982 13.384 206.615 13.731 207.109 14.1641C207.611 14.5998 207.993 15.0885 208.255 15.6299C208.525 16.1741 208.694 16.7512 208.764 17.3612C208.837 17.9633 208.829 18.5784 208.742 19.2065C208.657 19.8267 208.517 20.4281 208.32 21.0106L205.924 28.1205L204.152 27.5233ZM194.804 24.3722L199.162 11.4451L200.754 11.9817L199.68 15.1656L199.86 15.2261L196.576 24.9693L194.804 24.3722Z" fill="white"/>
<path d="M208.24 29.0517L215.71 12.4674L217.415 13.234L212.857 23.372L221.103 19.8779L223.361 20.8931L214.735 24.4933L218.528 33.6771L216.062 32.5687L212.65 23.8328L209.956 29.8235L208.24 29.0517Z" fill="white"/>
<path d="M223.644 43.4918L229.682 38.822L228.588 40.6408L231.305 25.0403L232.975 26.0859L230.621 39.0824L229.936 38.6534L240.277 30.6568L241.883 31.6622L225.218 44.477L223.644 43.4918Z" fill="white"/>
<path d="M239.824 47.6C238.748 46.7747 238.016 45.826 237.629 44.754C237.242 43.6819 237.175 42.5586 237.428 41.3841C237.682 40.2095 238.237 39.0644 239.093 37.9487C239.964 36.8129 240.935 35.9763 242.006 35.439C243.076 34.9016 244.174 34.6879 245.299 34.7979C246.437 34.9064 247.533 35.3655 248.589 36.1754C249.671 37.0058 250.406 37.957 250.794 39.0291C251.193 40.0996 251.262 41.2196 251.002 42.389C250.753 43.5568 250.201 44.6986 249.345 45.8144C248.474 46.9501 247.503 47.7926 246.435 48.3418C245.371 48.8843 244.27 49.1013 243.133 48.9929C241.996 48.8844 240.893 48.4201 239.824 47.6ZM240.908 46.1869C242.11 47.1096 243.311 47.399 244.508 47.055C245.712 46.7043 246.803 45.891 247.782 44.6149C248.786 43.3054 249.289 42.0351 249.289 40.8039C249.295 39.5778 248.701 38.506 247.505 37.5885C246.696 36.9682 245.887 36.6394 245.078 36.6019C244.28 36.5628 243.502 36.7674 242.744 37.2155C241.998 37.6621 241.302 38.3063 240.656 39.1481C239.657 40.4509 239.155 41.7272 239.152 42.9769C239.153 44.2199 239.739 45.2899 240.908 46.1869Z" fill="white"/>
<path d="M250.304 56.3864C249.71 55.8259 249.276 55.2428 249.003 54.6372C248.735 54.0374 248.592 53.4339 248.575 52.8268C248.563 52.2255 248.65 51.6362 248.836 51.0589C249.028 50.4755 249.291 49.9198 249.627 49.3918C249.969 48.8576 250.351 48.367 250.773 47.9199L255.922 42.4625L257.282 43.7454L252.506 48.8077C251.991 49.3529 251.567 49.9073 251.231 50.471C250.896 51.0348 250.678 51.5981 250.575 52.1611C250.484 52.7236 250.53 53.2704 250.712 53.8012C250.9 54.3378 251.255 54.8517 251.775 55.3429C252.253 55.7937 252.751 56.1068 253.268 56.2824C253.792 56.4638 254.32 56.5169 254.854 56.4418C255.4 56.3664 255.945 56.1688 256.49 55.8492C257.04 55.5234 257.579 55.0818 258.105 54.5245L258.861 55.6373C257.901 56.654 256.918 57.3409 255.909 57.6978C254.901 58.0548 253.917 58.1162 252.957 57.882C251.997 57.6478 251.113 57.1493 250.304 56.3864ZM253.874 59.285L256.179 56.8411L256.042 56.7111L263.098 49.2325L264.448 50.5067L255.086 60.4292L253.874 59.285Z" fill="white"/>
<path d="M288.498 87.0802C282.083 89.8217 279.105 97.2444 281.847 103.659C284.588 110.074 292.011 113.052 298.426 110.31C304.84 107.569 307.818 100.146 305.077 93.7313C302.335 87.3164 294.912 84.3387 288.498 87.0802Z" fill="white"/>
</svg>
