<svg width="80" height="80" viewBox="0 0 80 80" fill="none" xmlns="http://www.w3.org/2000/svg">
<g clip-path="url(#clip0_2359_147095)">
<path d="M45 63.3337H16.6667C14.8986 63.3337 13.2029 62.6313 11.9526 61.381C10.7024 60.1308 10 58.4351 10 56.667V23.3337C10 21.5655 10.7024 19.8699 11.9526 18.6196C13.2029 17.3694 14.8986 16.667 16.6667 16.667H63.3333C65.1014 16.667 66.7971 17.3694 68.0474 18.6196C69.2976 19.8699 70 21.5655 70 23.3337V43.3337" stroke="#CB4B59" stroke-width="5" stroke-linecap="round" stroke-linejoin="round"/>
<path d="M10 23.333L40 43.333L70 23.333" stroke="#CB4B59" stroke-width="5" stroke-linecap="round" stroke-linejoin="round"/>
<path d="M73.3346 73.3337L56.668 56.667" stroke="#CB4B59" stroke-width="5" stroke-linecap="round" stroke-linejoin="round"/>
<path d="M56.668 73.3337L73.3346 56.667" stroke="#CB4B59" stroke-width="5" stroke-linecap="round" stroke-linejoin="round"/>
</g>
<defs>
<clipPath id="clip0_2359_147095">
<rect width="80" height="80" fill="white"/>
</clipPath>
</defs>
</svg>
