<svg width="16" height="16" viewBox="0 0 16 16" fill="none" xmlns="http://www.w3.org/2000/svg">
<g id="Frame 2609557">
<path id="&#226;&#128;&#156;" d="M8.258 10.544C8.14067 10.544 8.038 10.5 7.95 10.412C7.87667 10.324 7.84 10.2287 7.84 10.126C7.84 10.038 7.85467 9.95 7.884 9.862L9.534 5.616C9.60733 5.46933 9.70267 5.33 9.82 5.198C9.93733 5.066 10.1133 5 10.348 5H11.866C11.998 5 12.108 5.05133 12.196 5.154C12.284 5.242 12.3133 5.35933 12.284 5.506L11.624 9.796C11.6093 9.972 11.536 10.1407 11.404 10.302C11.272 10.4633 11.0813 10.544 10.832 10.544H8.258ZM3.418 10.544C3.30067 10.544 3.198 10.5 3.11 10.412C3.03667 10.324 3 10.2287 3 10.126C3 10.038 3.01467 9.95 3.044 9.862L4.694 5.616C4.75267 5.46933 4.84067 5.33 4.958 5.198C5.09 5.066 5.27333 5 5.508 5H7.026C7.158 5 7.268 5.05133 7.356 5.154C7.444 5.242 7.47333 5.35933 7.444 5.506L6.784 9.796C6.75467 9.972 6.674 10.1407 6.542 10.302C6.42467 10.4633 6.24133 10.544 5.992 10.544H3.418Z" fill="#212121"/>
</g>
</svg>
