<svg width="40" height="40" viewBox="0 0 40 40" fill="none" xmlns="http://www.w3.org/2000/svg">
<g id="Frame 2609233">
<g id="Vector">
<path d="M31.5185 30.6936C31.4531 30.7606 31.4653 30.8686 31.5267 30.9393C32.2374 31.7565 32.9413 32.5666 33.6597 33.391C33.7432 33.4869 33.7217 33.6345 33.6144 33.7027C32.7806 34.2317 31.9732 34.741 31.1384 35.2707C31.0498 35.3268 30.9332 35.3083 30.8666 35.2274C30.4879 34.7676 30.1167 34.3159 29.7456 33.8726C29.496 33.5633 29.2265 33.2639 28.987 32.9446C28.8471 32.7551 28.7074 32.7551 28.5078 32.835C27.3298 33.2441 26.1221 33.5732 24.8643 33.623C21.8098 33.7428 19.1743 32.825 17.0682 30.5304C16.8984 30.3409 16.8685 30.2111 16.9882 29.9815C17.6551 28.7478 18.3056 27.5057 18.9841 26.2115C19.0682 26.0511 19.3058 26.0678 19.375 26.2351C20.5711 29.1246 22.7601 30.1487 25.8756 29.5308C25.9372 29.5186 25.9635 29.4448 25.9232 29.3968C25.3256 28.6858 24.742 27.9958 24.1378 27.2788C24.0572 27.1831 24.0789 27.0384 24.184 26.9705C24.9915 26.4486 25.7795 25.9328 26.5878 25.4031C26.6753 25.3457 26.7919 25.3623 26.8598 25.4419C27.4358 26.117 27.9973 26.7773 28.5658 27.445C28.5984 27.4833 28.6574 27.4841 28.6902 27.4459C29.171 26.8847 29.4523 26.2513 29.5958 25.5719C29.9253 24.0356 29.8654 22.5191 29.3363 21.0424C28.5078 18.7179 26.4014 17.3911 23.936 17.6107C23.9176 17.6122 23.8992 17.6137 23.8806 17.6152C23.7201 17.6282 23.6107 17.4598 23.6853 17.3172C24.1443 16.4388 24.5891 15.602 25.034 14.7572C25.0739 14.6774 25.1238 14.6076 25.1637 14.5278C25.593 13.7197 25.593 13.7197 26.5113 13.9092C31.0232 14.867 34.1677 18.7678 34.2076 23.4569C34.2275 26.1703 33.4251 28.5865 31.5932 30.6269C31.5795 30.6423 31.5629 30.655 31.5468 30.6679C31.5372 30.6754 31.5279 30.6839 31.5185 30.6936Z" fill="white"/>
<path d="M7.00548 33.7071C6.89805 33.7075 6.81641 33.6107 6.81641 33.5033C6.81641 26.9724 6.81641 20.4889 6.81641 13.9772C6.81641 13.8625 6.90945 13.7695 7.0242 13.7695C10.9779 13.7695 14.9138 13.7695 18.8768 13.7695C18.9915 13.7695 19.0846 13.8625 19.0846 13.9772C19.0846 15.0492 19.0846 16.1299 19.0846 17.2333C19.0846 17.348 18.9915 17.441 18.8768 17.441C16.4401 17.441 14.0117 17.441 11.5661 17.441C11.4514 17.441 11.3583 17.534 11.3583 17.6487C11.3583 18.902 11.3583 20.1184 11.3583 21.3636C11.3583 21.4782 11.4514 21.5712 11.5661 21.5712C13.8501 21.5712 16.1112 21.5712 18.4648 21.5712C18.5949 21.5712 18.6942 21.6897 18.6789 21.8188C18.6522 22.0441 18.6363 22.2529 18.5555 22.4293C18.1264 23.2972 17.6472 24.1453 17.2079 25.0132C17.0981 25.2328 16.9383 25.2626 16.7287 25.2626C15.0817 25.2526 13.4346 25.2626 11.7876 25.2626C11.7172 25.2626 11.6439 25.2626 11.5661 25.2626C11.4514 25.2626 11.3583 25.3556 11.3583 25.4703C11.3583 26.9154 11.3583 28.3373 11.3583 29.7739C11.3583 29.8885 11.4514 29.9815 11.5661 29.9815C12.4617 29.9815 13.3453 29.9815 14.2473 29.9815C14.3812 29.9815 14.4992 30.125 14.4328 30.2411C13.8739 31.3085 13.3148 32.386 12.7359 33.4436C12.666 33.5634 12.4763 33.6929 12.3466 33.6929C10.5946 33.7129 8.84264 33.703 7.08079 33.703C7.07092 33.703 7.06107 33.7038 7.05125 33.7048C7.03625 33.7063 7.02113 33.7071 7.00548 33.7071Z" fill="white"/>
<path d="M26.2565 12.9857C26.1188 12.9685 26.0464 12.8181 26.1105 12.695C26.4351 12.071 26.7537 11.4548 27.0802 10.8463C28.0584 9.00064 29.0467 7.14498 30.0151 5.28932C30.1249 5.07982 30.2347 5 30.4742 5C31.732 5.00997 32.9898 5 34.2574 5C34.3572 5 34.457 5.00997 34.5568 5.01995C35.0162 5.09977 35.1358 5.41901 34.8264 5.75823C34.3374 6.27701 33.8284 6.77584 33.3291 7.27467C31.712 8.89089 30.055 10.4572 28.5078 12.1233C27.8369 12.8482 27.1413 13.0958 26.2565 12.9857Z" fill="white"/>
<path d="M9.55147 6.38676C11.1287 6.38676 12.2067 7.49417 12.2067 9.13034C12.2067 10.7166 11.0987 11.854 9.56145 11.864C8.0242 11.8739 6.90619 10.7266 6.89619 9.14032C6.88621 7.53407 7.99424 6.39673 9.55147 6.38676Z" fill="white"/>
<path d="M16.3994 6.38676C17.9567 6.38676 19.0247 7.50415 19.0247 9.12037C19.0247 10.7366 17.9168 11.8639 16.3495 11.8639C14.8222 11.8639 13.7142 10.6967 13.7142 9.12037C13.7142 7.5241 14.8322 6.38676 16.3994 6.38676Z" fill="white"/>
</g>
</g>
</svg>
