<svg width="468" height="300" viewBox="0 0 468 300" fill="none" xmlns="http://www.w3.org/2000/svg">
<path d="M47.2231 241C47.0988 241 46.9746 241 46.8506 240.999V148M0.851562 194.499C0.851562 194.474 0.851581 194.45 0.851618 194.426M2.38396 182.599V206.399M0.85755 185.941C0.853948 186.168 0.851967 194.198 0.851618 194.426M3.91829 177.834V211.164M5.45069 174.284V214.714M6.98503 171.371V217.628M8.51742 168.88V220.118M10.0518 166.693V222.305M11.5842 164.747V224.252M13.1185 162.991V226.007M14.6509 161.401V227.597M16.1852 159.95V229.048M17.7176 158.624V230.374M19.252 157.407V231.591M20.7843 156.292V232.707M22.3187 155.267V233.732M23.8511 154.328V234.671M25.3854 153.467V235.531M26.9178 152.682V236.317M28.4521 151.966V237.033M29.9845 151.318V237.681M31.5189 150.733V238.266M33.0513 150.21V238.788M34.5856 149.746V239.252M36.118 149.34V239.658M37.6523 148.99V240.008M39.1847 148.695V240.304M40.7171 148.453V240.546M42.2515 148.263V240.736M43.7839 148.124V240.874M45.3182 148.037V240.961M48.3849 148.013V240.986M49.9173 148.076V240.923M51.4517 148.189V240.809M52.9841 148.354V240.645M54.5184 148.571V240.428M56.0508 148.84V240.158M57.5851 149.164V239.835M59.1175 149.542V239.456M60.6519 149.978V239.02M62.1843 150.472V238.527M63.7186 151.027V237.972M65.251 151.643V237.355M66.7853 152.326V236.672M68.3177 153.077V235.921M69.852 153.901V235.097M71.3844 154.801V234.197M72.9188 155.784V233.214M74.4512 156.854V232.144M75.9855 158.022V230.977M77.5179 159.292V229.706M79.0503 160.68V228.318M80.5846 162.201V226.797M82.117 163.872V225.126M83.6514 165.722V223.276M85.1838 167.785V221.213M86.7181 170.119V218.879M88.2505 172.806V216.192M89.7848 176.01V212.988M91.3172 180.064V208.934M92.8516 186.161L92.8377 202.913M0.851618 202.415V194.426" stroke="white" stroke-width="0.1"/>
<path d="M47.3514 234C73.0327 234 93.8516 213.182 93.8516 187.5C93.8516 161.818 73.0327 141 47.3514 141C21.6703 141 0.851562 161.818 0.851562 187.5C0.851562 213.182 21.6703 234 47.3514 234Z" fill="white"/>
<path d="M140.425 93.147C166.147 93.147 186.998 72.296 186.998 46.573C186.998 20.851 166.147 0 140.425 0C114.703 0 93.8516 20.851 93.8516 46.573C93.8516 72.296 114.703 93.147 140.425 93.147Z" fill="white"/>
<path d="M93.8516 45.1465V295.146" stroke="white" stroke-width="0.2"/>
<path d="M95.3906 45.1465V295.146" stroke="white" stroke-width="0.2"/>
<path d="M96.9316 45.1465V295.146" stroke="white" stroke-width="0.2"/>
<path d="M98.4707 45.1465V295.146" stroke="white" stroke-width="0.2"/>
<path d="M100.012 45.1465V295.146" stroke="white" stroke-width="0.2"/>
<path d="M101.551 45.1465V295.146" stroke="white" stroke-width="0.2"/>
<path d="M103.092 45.1465V295.146" stroke="white" stroke-width="0.2"/>
<path d="M104.631 45.1465V295.146" stroke="white" stroke-width="0.2"/>
<path d="M106.172 45.1465V295.146" stroke="white" stroke-width="0.2"/>
<path d="M107.711 45.1465V295.146" stroke="white" stroke-width="0.2"/>
<path d="M109.252 45.1465V295.146" stroke="white" stroke-width="0.2"/>
<path d="M110.791 45.1465V295.146" stroke="white" stroke-width="0.2"/>
<path d="M112.332 45.1465V295.146" stroke="white" stroke-width="0.2"/>
<path d="M113.871 45.1465V295.146" stroke="white" stroke-width="0.2"/>
<path d="M115.412 45.1465V295.146" stroke="white" stroke-width="0.2"/>
<path d="M116.951 45.1465V295.146" stroke="white" stroke-width="0.2"/>
<path d="M118.492 45.1465V295.146" stroke="white" stroke-width="0.2"/>
<path d="M120.031 45.1465V295.146" stroke="white" stroke-width="0.2"/>
<path d="M121.572 45.1465V295.146" stroke="white" stroke-width="0.2"/>
<path d="M123.111 45.1465V295.146" stroke="white" stroke-width="0.2"/>
<path d="M124.652 45.1465V295.146" stroke="white" stroke-width="0.2"/>
<path d="M126.191 45.1465V295.146" stroke="white" stroke-width="0.2"/>
<path d="M127.732 45.1465V295.146" stroke="white" stroke-width="0.2"/>
<path d="M129.271 45.1465V295.146" stroke="white" stroke-width="0.2"/>
<path d="M130.812 45.1465V295.146" stroke="white" stroke-width="0.2"/>
<path d="M132.352 45.1465V295.146" stroke="white" stroke-width="0.2"/>
<path d="M133.891 45.1465V295.146" stroke="white" stroke-width="0.2"/>
<path d="M135.432 45.1465V295.146" stroke="white" stroke-width="0.2"/>
<path d="M136.971 45.1465V295.146" stroke="white" stroke-width="0.2"/>
<path d="M138.512 45.1465V295.146" stroke="white" stroke-width="0.2"/>
<path d="M140.051 45.1465V295.146" stroke="white" stroke-width="0.2"/>
<path d="M141.592 45.1465V295.146" stroke="white" stroke-width="0.2"/>
<path d="M143.131 45.1465V295.146" stroke="white" stroke-width="0.2"/>
<path d="M144.672 45.1465V295.146" stroke="white" stroke-width="0.2"/>
<path d="M146.211 45.1465V295.146" stroke="white" stroke-width="0.2"/>
<path d="M147.752 45.1465V295.146" stroke="white" stroke-width="0.2"/>
<path d="M149.291 45.1465V295.146" stroke="white" stroke-width="0.2"/>
<path d="M150.832 45.1465V295.146" stroke="white" stroke-width="0.2"/>
<path d="M152.371 45.1465V295.146" stroke="white" stroke-width="0.2"/>
<path d="M153.912 45.1465V295.146" stroke="white" stroke-width="0.2"/>
<path d="M155.451 45.1465V295.146" stroke="white" stroke-width="0.2"/>
<path d="M156.992 45.1465V295.146" stroke="white" stroke-width="0.2"/>
<path d="M158.531 45.1465V295.146" stroke="white" stroke-width="0.2"/>
<path d="M160.072 45.1465V295.146" stroke="white" stroke-width="0.2"/>
<path d="M161.611 45.1465V295.146" stroke="white" stroke-width="0.2"/>
<path d="M163.152 45.1465V295.146" stroke="white" stroke-width="0.2"/>
<path d="M164.691 45.1465V295.146" stroke="white" stroke-width="0.2"/>
<path d="M166.232 45.1465V295.146" stroke="white" stroke-width="0.2"/>
<path d="M167.771 45.1465V295.146" stroke="white" stroke-width="0.2"/>
<path d="M169.312 45.1465V295.146" stroke="white" stroke-width="0.2"/>
<path d="M170.852 45.1465V295.146" stroke="white" stroke-width="0.2"/>
<path d="M172.391 45.1465V295.146" stroke="white" stroke-width="0.2"/>
<path d="M173.932 45.1465V295.146" stroke="white" stroke-width="0.2"/>
<path d="M175.471 45.1465V295.146" stroke="white" stroke-width="0.2"/>
<path d="M177.012 45.1465V295.146" stroke="white" stroke-width="0.2"/>
<path d="M178.551 45.1465V295.146" stroke="white" stroke-width="0.2"/>
<path d="M180.092 45.1465V295.146" stroke="white" stroke-width="0.2"/>
<path d="M181.631 45.1465V295.146" stroke="white" stroke-width="0.2"/>
<path d="M183.172 45.1465V295.146" stroke="white" stroke-width="0.2"/>
<path d="M184.711 45.1465V295.146" stroke="white" stroke-width="0.2"/>
<path d="M186.252 45.1465V295.146" stroke="white" stroke-width="0.2"/>
<path d="M233.223 234C233.099 234 232.975 234 232.851 233.999V141M186.852 187.499C186.852 187.474 186.852 187.45 186.852 187.426M188.384 175.599V199.399M186.858 178.941C186.854 179.168 186.852 187.198 186.852 187.426M189.918 170.834V204.164M191.451 167.284V207.714M192.985 164.371V210.628M194.517 161.88V213.118M196.052 159.693V215.305M197.584 157.747V217.252M199.118 155.991V219.007M200.651 154.401V220.597M202.185 152.95V222.048M203.718 151.624V223.374M205.252 150.407V224.591M206.784 149.292V225.707M208.319 148.267V226.732M209.851 147.328V227.671M211.385 146.467V228.531M212.918 145.682V229.317M214.452 144.966V230.033M215.985 144.318V230.681M217.519 143.733V231.266M219.051 143.21V231.788M220.586 142.746V232.252M222.118 142.34V232.658M223.652 141.99V233.008M225.185 141.695V233.304M226.717 141.453V233.546M228.251 141.263V233.736M229.784 141.124V233.874M231.318 141.037V233.961M234.385 141.013V233.986M235.917 141.076V233.923M237.452 141.189V233.809M238.984 141.354V233.645M240.518 141.571V233.428M242.051 141.84V233.158M243.585 142.164V232.835M245.118 142.542V232.456M246.652 142.978V232.02M248.184 143.472V231.527M249.719 144.027V230.972M251.251 144.643V230.355M252.785 145.326V229.672M254.318 146.077V228.921M255.852 146.901V228.097M257.384 147.801V227.197M258.919 148.784V226.214M260.451 149.854V225.144M261.986 151.022V223.977M263.518 152.292V222.706M265.05 153.68V221.318M266.585 155.201V219.797M268.117 156.872V218.126M269.651 158.722V216.276M271.184 160.785V214.213M272.718 163.119V211.879M274.25 165.806V209.192M275.785 169.01V205.988M277.317 173.064V201.934M278.852 179.161L278.838 195.913M186.852 195.415V187.426" stroke="white" stroke-width="0.1"/>
<path d="M233.351 241C259.033 241 279.852 220.182 279.852 194.5C279.852 168.818 259.033 148 233.351 148C207.67 148 186.852 168.818 186.852 194.5C186.852 220.182 207.67 241 233.351 241Z" fill="white"/>
<path d="M326.223 241C326.099 241 325.975 241 325.851 240.999V148M279.852 194.499C279.852 194.474 279.852 194.45 279.852 194.426M281.384 182.599V206.399M279.858 185.941C279.854 186.168 279.852 194.198 279.852 194.426M282.918 177.834V211.164M284.451 174.284V214.714M285.985 171.371V217.628M287.517 168.88V220.118M289.052 166.693V222.305M290.584 164.747V224.252M292.118 162.991V226.007M293.651 161.401V227.597M295.185 159.95V229.048M296.718 158.624V230.374M298.252 157.407V231.591M299.784 156.292V232.707M301.319 155.267V233.732M302.851 154.328V234.671M304.385 153.467V235.531M305.918 152.682V236.317M307.452 151.966V237.033M308.985 151.318V237.681M310.519 150.733V238.266M312.051 150.21V238.788M313.586 149.746V239.252M315.118 149.34V239.658M316.652 148.99V240.008M318.185 148.695V240.304M319.717 148.453V240.546M321.251 148.263V240.736M322.784 148.124V240.874M324.318 148.037V240.961M327.385 148.013V240.986M328.917 148.076V240.923M330.452 148.189V240.809M331.984 148.354V240.645M333.518 148.571V240.428M335.051 148.84V240.158M336.585 149.164V239.835M338.118 149.542V239.456M339.652 149.978V239.02M341.184 150.472V238.527M342.719 151.027V237.972M344.251 151.643V237.355M345.785 152.326V236.672M347.318 153.077V235.921M348.852 153.901V235.097M350.384 154.801V234.197M351.919 155.784V233.214M353.451 156.854V232.144M354.986 158.022V230.977M356.518 159.292V229.706M358.05 160.68V228.318M359.585 162.201V226.797M361.117 163.872V225.126M362.651 165.722V223.276M364.184 167.785V221.213M365.718 170.119V218.879M367.25 172.806V216.192M368.785 176.01V212.988M370.317 180.064V208.934M371.852 186.161L371.838 202.913M279.852 202.415V194.426" stroke="white" stroke-width="0.1"/>
<path d="M326.351 234C352.033 234 372.852 213.182 372.852 187.5C372.852 161.818 352.033 141 326.351 141C300.67 141 279.852 161.818 279.852 187.5C279.852 213.182 300.67 234 326.351 234Z" fill="white"/>
<path d="M419.223 234C419.099 234 418.975 234 418.851 233.999V141M372.852 187.499C372.852 187.474 372.852 187.45 372.852 187.426M374.384 175.599V199.399M372.858 178.941C372.854 179.168 372.852 187.198 372.852 187.426M375.918 170.834V204.164M377.451 167.284V207.714M378.985 164.371V210.628M380.517 161.88V213.118M382.052 159.693V215.305M383.584 157.747V217.252M385.118 155.991V219.007M386.651 154.401V220.597M388.185 152.95V222.048M389.718 151.624V223.374M391.252 150.407V224.591M392.784 149.292V225.707M394.319 148.267V226.732M395.851 147.328V227.671M397.385 146.467V228.531M398.918 145.682V229.317M400.452 144.966V230.033M401.985 144.318V230.681M403.519 143.733V231.266M405.051 143.21V231.788M406.586 142.746V232.252M408.118 142.34V232.658M409.652 141.99V233.008M411.185 141.695V233.304M412.717 141.453V233.546M414.251 141.263V233.736M415.784 141.124V233.874M417.318 141.037V233.961M420.385 141.013V233.986M421.917 141.076V233.923M423.452 141.189V233.809M424.984 141.354V233.645M426.518 141.571V233.428M428.051 141.84V233.158M429.585 142.164V232.835M431.118 142.542V232.456M432.652 142.978V232.02M434.184 143.472V231.527M435.719 144.027V230.972M437.251 144.643V230.355M438.785 145.326V229.672M440.318 146.077V228.921M441.852 146.901V228.097M443.384 147.801V227.197M444.919 148.784V226.214M446.451 149.854V225.144M447.986 151.022V223.977M449.518 152.292V222.706M451.05 153.68V221.318M452.585 155.201V219.797M454.117 156.872V218.126M455.651 158.722V216.276M457.184 160.785V214.213M458.718 163.119V211.879M460.25 165.806V209.192M461.785 169.01V205.988M463.317 173.064V201.934M464.852 179.161L464.838 195.913M372.852 195.415V187.426" stroke="white" stroke-width="0.1"/>
<path d="M419.351 241C445.033 241 465.852 220.182 465.852 194.5C465.852 168.818 445.033 148 419.351 148C393.67 148 372.852 168.818 372.852 194.5C372.852 220.182 393.67 241 419.351 241Z" fill="white"/>
</svg>
