<svg width="250" height="228" viewBox="0 0 250 228" fill="none" xmlns="http://www.w3.org/2000/svg">
<g id="Group">
<g id="Graphic Elements">
<g id="Group_2">
<g id="Group_3" style="mix-blend-mode:multiply" opacity="0.1">
<path id="Vector" d="M233.477 139.371C233.409 139.52 233.326 139.655 233.235 139.805L233.213 139.85C232.473 140.913 231.553 141.909 230.467 142.77C228.286 144.499 225.427 145.825 221.911 146.581C219.686 147.06 217.196 147.337 214.473 147.36C197.241 147.532 175.333 138.068 159.958 124.778C156.231 121.551 152.889 118.106 150.097 114.512C149.924 114.295 149.75 114.078 149.577 113.839C148.068 111.847 146.785 109.9 145.737 108.013L146.348 107.729C146.853 107.512 147.419 107.295 147.985 107.055C148.136 107.01 148.294 106.95 148.422 106.86C150.535 106.037 152.217 104.112 153.349 101.125C153.59 100.474 153.809 99.7623 154.005 99.006C154.028 98.9611 154.028 98.9162 154.05 98.8788C154.201 98.1824 154.352 97.4711 154.488 96.6924C154.661 95.5469 154.797 94.3339 154.88 93.0087C155.054 89.9538 154.926 86.577 154.511 83.028C154.073 79.0222 153.288 74.7769 152.194 70.4042C151.538 67.7612 150.776 65.0582 149.924 62.3478C146.393 51.244 141.218 39.9156 135.175 30.5414C133.862 28.5273 132.511 26.603 131.138 24.7836C130.791 24.3044 130.437 23.8552 130.09 23.4209C127.577 20.2612 125.141 17.708 122.825 15.7313C119.467 12.8936 116.367 11.2913 113.658 10.9244C112.745 10.8196 111.893 10.8346 111.086 10.9918H111.018C110.301 11.2763 109.599 11.5534 108.905 11.8154C109.011 11.7481 109.124 11.6882 109.252 11.6208C109.343 11.5758 109.448 11.5309 109.539 11.4935L109.252 11.5983C107.962 12.1149 106.702 12.6391 105.503 13.1557L104.786 13.4552C104.786 13.4552 104.763 13.4552 104.763 13.4776H104.696C102.296 14.5408 99.1505 16.0758 96.7363 17.1989C97.106 17.0267 97.5209 16.9143 97.9585 16.8919C98.6375 16.8245 99.3995 16.9368 100.229 17.1989C102.523 17.9102 105.359 19.8868 108.566 23.0914C110.837 25.3227 113.281 28.1604 115.899 31.5821C116.05 31.7768 116.186 31.9939 116.336 32.1886C117.996 34.3974 119.633 36.7335 121.248 39.1818C126.506 47.2383 131.455 56.4403 135.514 65.5075C136.759 68.3227 137.936 71.138 139.007 73.9083C140.84 78.6254 142.364 83.1777 143.503 87.4156C144.439 90.9421 145.141 94.2366 145.488 97.2016C145.638 98.437 145.729 99.5601 145.774 100.623C145.82 102.121 145.752 103.439 145.578 104.562C145.208 107.07 144.288 108.657 142.915 109.324C142.915 109.346 142.892 109.346 142.87 109.346C142.802 109.391 142.741 109.436 142.674 109.451C143.941 111.832 145.555 114.363 147.562 116.983V116.991V117.006C147.804 117.328 148.068 117.657 148.302 117.957C162.719 136.316 189.644 153.117 209.101 155.76C211.085 156.045 212.919 156.15 214.601 156.105C217.611 156.037 220.101 155.498 222.085 154.525C223.33 153.919 224.378 153.14 225.201 152.211C225.374 152.017 225.548 151.8 225.706 151.582C225.729 151.56 225.751 151.515 225.774 151.493L226.453 150.519C226.453 150.519 226.498 150.474 226.521 150.452C226.627 150.325 226.717 150.152 226.808 150.018C226.83 149.995 226.853 149.995 226.853 149.973C227.419 149.172 228.03 148.266 228.641 147.352C229.358 146.251 230.104 145.076 230.799 143.908L231.41 142.979C231.5 142.807 231.606 142.658 231.696 142.5C231.802 142.328 231.892 142.178 231.998 142.021L232.783 140.636C233.024 140.247 233.243 139.857 233.462 139.49C233.703 139.101 233.922 138.712 234.141 138.322C234.209 138.217 234.246 138.083 234.314 137.978C234.246 138.068 234.209 138.128 234.163 138.217C234.08 138.36 233.997 138.502 233.914 138.652L234.435 137.738C234.435 137.738 234.442 137.716 234.45 137.708C234.239 138.083 234.027 138.45 233.824 138.816C233.718 138.996 233.62 139.176 233.514 139.348L233.477 139.371Z" fill="url(#paint0_linear_1070_90883)"/>
<path id="Vector_2" d="M67.1094 35.3788L67.1322 35.356H67.1094V35.3788Z" fill="url(#paint1_linear_1070_90883)"/>
<path id="Vector_3" d="M212.419 167.935C211.68 168.542 210.677 168.909 209.409 169.021C207.885 169.148 206.007 168.916 203.736 168.287C202.604 167.965 201.359 167.553 200.024 167.029C192.759 164.169 183.902 158.651 175.045 151.785C169.877 147.779 164.679 143.317 159.835 138.645C153.943 132.992 148.511 127.039 144.128 121.236C141.835 118.204 139.964 115.411 138.523 112.88C138.349 112.596 138.198 112.296 138.017 112.012C138.017 111.989 137.995 111.989 137.995 111.967C137.406 112.334 136.795 112.701 136.275 113.008L136.169 113.075C135.822 113.292 135.452 113.554 135.037 113.786C134.969 113.831 134.909 113.876 134.841 113.891C135.128 113.719 135.279 113.307 135.279 112.701C135.279 112.139 135.151 111.405 134.909 110.492C134.668 109.623 134.321 108.568 133.86 107.355C133.513 106.486 133.121 105.49 132.661 104.435C131.461 101.709 129.937 98.5646 128.127 95.1428C125.682 90.4632 122.74 85.267 119.511 79.8536C113.559 69.8954 106.595 59.2184 99.896 49.8891C98.2589 47.6129 96.6444 45.4266 95.0752 43.3301C93.3702 41.0764 91.7784 39.0623 90.3223 37.2878C86.8519 33.0649 84.0832 30.1224 82.1217 28.4976C81.42 27.9361 80.8089 27.5243 80.311 27.3071C79.8734 27.09 79.5264 27.0226 79.2624 27.09H79.2171C79.1115 27.1574 78.9983 27.2173 78.9153 27.2847C78.938 27.2622 78.9606 27.2397 78.9832 27.2173C78.8323 27.3221 78.6814 27.4119 78.523 27.5168C77.3687 28.2281 76.2069 28.9693 75.1884 29.6582C75.0602 29.763 74.9018 29.8528 74.7735 29.9427L74.6226 30.0475C73.4004 30.8711 72.0047 31.8669 70.609 32.8628C70.5864 32.8628 70.5864 32.8852 70.5638 32.8852C70.4355 32.9751 70.2997 33.0574 70.1941 33.1473C70.0659 33.2521 69.9301 33.3419 69.8018 33.4318C69.319 33.7538 68.8663 34.0832 68.4061 34.4052C68.2552 34.51 68.1194 34.6223 67.9912 34.7047C67.9006 34.7945 67.8177 34.8319 67.7271 34.8993C67.6819 34.9442 67.6366 34.9892 67.5989 35.0041C67.5762 35.0266 67.5536 35.0266 67.531 35.0491C67.4857 35.094 67.4404 35.1165 67.4027 35.1389C67.3348 35.2063 67.2745 35.2437 67.2066 35.2887L67.1387 35.3561C67.1839 35.401 67.4631 35.7679 68.0138 36.4417C68.4287 36.9808 68.9946 37.6996 69.6962 38.6056C71.6577 41.1363 74.6905 45.1421 78.7493 50.4731C79.4057 51.3416 80.0771 52.2251 80.7788 53.1611C84.5962 58.1851 88.7833 63.7258 93.0609 69.4012C95.7844 73.0176 98.5607 76.7014 101.284 80.3103C107.063 87.9999 112.653 95.4423 117.316 101.679C119.783 104.989 122.008 107.976 123.864 110.47C124.543 111.375 125.154 112.199 125.675 112.94C126.437 113.959 127.071 114.805 127.576 115.494C128.67 117.006 129.191 117.747 129.191 117.792C128.338 118.421 127.335 119.177 126.527 119.829C126.399 119.934 126.286 120.046 126.158 120.128C126.158 120.151 126.135 120.151 126.112 120.173C126.09 120.196 126.045 120.218 126.022 120.263L126.045 120.285C127.025 121.431 128.097 122.711 129.251 124.141C130.647 125.894 132.171 127.863 133.83 130.027C135.596 132.355 137.414 134.818 139.255 137.364C145.75 146.364 152.525 156.465 158.47 165.914C161.767 171.162 164.807 176.201 167.387 180.746C169.424 184.318 171.182 187.59 172.563 190.397C173.053 191.393 173.483 192.307 173.853 193.138C174.487 194.56 174.954 195.736 175.256 196.679C175.701 198.064 175.784 198.94 175.535 199.307C175.513 199.337 175.482 199.36 175.46 199.39C175.822 199.158 176.169 198.925 176.508 198.708L177.27 198.199L177.361 198.139C179.903 196.395 183.095 194.081 185.795 192.104C186.286 191.745 186.761 191.393 187.214 191.064C187.206 191.064 187.184 191.049 187.168 191.041C186.98 190.936 186.482 190.42 185.72 189.544C185.064 188.795 184.211 187.777 183.193 186.549C182.604 185.838 181.963 185.066 181.269 184.22C181.171 184.295 181.065 184.37 180.967 184.445C181.065 184.37 181.163 184.295 181.269 184.213C179.073 181.525 176.44 178.245 173.506 174.569C167.357 166.842 159.918 157.363 152.585 147.899C152.54 147.839 152.495 147.779 152.45 147.719C147.086 140.793 141.79 133.89 137.097 127.705C136.463 126.859 135.852 126.066 135.286 125.302C132.887 122.142 131.009 119.604 129.507 117.598C129.922 117.298 130.337 116.969 130.775 116.669L131.974 115.801L132.691 115.299C132.736 115.299 132.759 115.276 132.782 115.254L132.955 115.149C133.129 115.044 133.28 114.932 133.438 114.827C133.461 114.827 133.461 114.805 133.483 114.805C133.808 114.588 134.162 114.348 134.509 114.131C136.214 116.969 138.5 120.3 141.382 124.067C142.997 126.208 144.717 128.394 146.55 130.603C156.305 142.448 168.587 155.004 179.36 164.311C184.226 168.489 188.76 172.038 192.646 174.554C193.672 175.228 194.63 175.789 195.505 176.284C197.225 177.235 198.643 177.863 199.805 178.17C200.959 178.492 201.835 178.47 202.4 178.126C202.446 178.103 202.491 178.058 202.529 178.036C202.574 177.991 202.619 177.946 202.657 177.931L202.725 177.863L202.793 177.796L204.143 176.516L204.234 176.426C204.234 176.426 204.264 176.396 204.287 176.373C204.52 176.156 204.762 175.932 205.003 175.7C205.939 174.801 206.942 173.79 207.915 172.795C208.134 172.57 208.353 172.345 208.572 172.128C209.122 171.559 209.666 170.99 210.201 170.414C210.231 170.384 210.254 170.354 210.284 170.324C210.299 170.309 210.314 170.294 210.329 170.279L210.435 170.159C210.903 169.65 211.408 169.111 211.921 168.542C211.869 168.594 211.823 168.646 211.77 168.706C211.816 168.654 211.861 168.602 211.914 168.549C212.065 168.399 212.2 168.25 212.329 168.092C212.374 168.07 212.397 168.025 212.434 167.988C212.525 167.898 212.608 167.793 212.698 167.688C212.608 167.756 212.57 167.815 212.502 167.883C212.48 167.905 212.457 167.928 212.434 167.928L212.419 167.935Z" fill="url(#paint2_linear_1070_90883)"/>
<path id="Vector_4" d="M213.055 167.306C213.078 167.261 213.123 167.216 213.146 167.179C212.995 167.351 212.821 167.523 212.686 167.695C212.814 167.568 212.927 167.433 213.055 167.306Z" fill="url(#paint3_linear_1070_90883)"/>
<path id="Vector_5" d="M9.3509 179.72C9.45652 179.96 9.56969 180.192 9.67531 180.424C9.81865 180.701 9.95445 180.97 10.0902 181.232C9.66022 180.334 9.23774 179.413 8.83789 178.522C8.99632 178.926 9.16984 179.323 9.34336 179.72H9.3509Z" fill="url(#paint4_linear_1070_90883)"/>
<path id="Vector_6" d="M105.562 143.017C105.6 143.264 105.623 143.511 105.653 143.751C105.638 143.579 105.615 143.377 105.578 143.13L105.562 143.01V143.017Z" fill="url(#paint5_linear_1070_90883)"/>
<path id="Vector_7" d="M249.786 77.7942C249.786 77.7568 249.786 77.7119 249.786 77.6744V77.5696C249.764 77.3599 249.749 77.1503 249.741 76.9481C249.711 76.4615 249.666 75.9448 249.613 75.4207C249.568 74.9265 249.53 74.4324 249.477 73.9382C249.477 73.9083 249.477 73.8858 249.477 73.8559C249.477 73.8783 249.477 73.9008 249.477 73.9232C249.5 74.2302 249.515 74.5222 249.537 74.8067C249.635 76.2892 249.718 77.5247 249.779 78.6028C249.711 77.5172 249.635 76.2892 249.537 74.8067C250.148 85.9555 245.984 101.327 223.623 113.127C223.645 113.427 223.668 113.734 223.713 114.033C223.668 113.734 223.645 113.427 223.608 113.127C219.986 114.879 216.214 116.264 212.374 117.305C206.769 118.78 201.005 119.514 195.354 119.514C180.062 119.514 165.381 114.228 155.973 104.442C156.388 104.337 156.825 104.247 157.218 104.157L157.761 104.052L157.784 104.03H157.806C157.934 104.008 158.07 103.985 158.198 103.963C169.062 112.88 184.943 116.002 200.673 112.775C205.275 111.847 209.877 110.372 214.328 108.335C216.75 107.212 219.149 105.932 221.48 104.479C242.378 91.4437 251.174 69.1014 243.796 51.1766C243.162 49.7914 242.642 48.6234 242.136 47.5826C242.091 47.4928 242.046 47.3879 241.985 47.2831C241.548 46.3322 241.11 45.4637 240.673 44.6176C240.152 43.6218 239.624 42.626 238.99 41.5628C238.726 41.1509 238.492 40.7167 238.228 40.2824C237.791 39.6085 237.353 38.8972 236.855 38.1186C240.13 43.6592 241.767 49.8737 241.872 56.283C241.963 61.2171 241.156 66.2636 239.518 71.2203C236.048 81.6128 228.919 91.5935 218.553 99.1482C216.637 100.556 214.645 101.836 212.616 102.982C208.904 105.101 205.064 106.793 201.163 108.073C186.263 112.903 170.797 111.368 159.556 103.745H159.466C159.926 103.656 160.401 103.573 160.862 103.461C171.793 108.957 185.539 108.657 198.41 102.592C201.593 101.08 204.739 99.2381 207.749 97.0293C209.409 95.8163 211.046 94.4986 212.616 93.0685C218.289 87.9771 222.8 82.0246 226.142 75.7052C234.192 60.416 235.196 42.8805 227.953 29.5455C227.078 27.9207 226.075 26.3634 224.943 24.8883C222.936 22.2228 220.643 19.9542 218.115 18.0673C215.89 16.4426 212.766 14.4509 210.435 12.9609H210.413C210.413 12.9609 210.39 12.9385 210.367 12.916C209.537 12.4368 208.708 11.9651 207.923 11.5533C207.576 11.3586 207.244 11.1864 206.897 11.0142C206.791 10.9468 206.656 10.8869 206.527 10.8195C206.007 10.5575 205.456 10.2805 204.913 10.0184L204.739 9.91357C204.671 9.89111 204.634 9.86865 204.588 9.84619C204.521 9.82372 204.46 9.7788 204.392 9.75634C204.219 9.66649 204.068 9.60659 203.894 9.51674C203.917 9.53172 203.94 9.5392 203.962 9.55418C203.94 9.54669 203.917 9.53172 203.894 9.52423C203.743 9.44935 203.593 9.37448 203.442 9.29961C203.479 9.31458 203.517 9.33704 203.555 9.35951C203.419 9.29212 203.276 9.23222 203.14 9.17232C203.117 9.16483 203.095 9.15735 203.08 9.14237C202.672 8.96267 202.272 8.78298 201.857 8.61826C201.857 8.61826 201.872 8.61826 201.88 8.62574C202.627 8.95519 203.366 9.29212 204.098 9.63654C204.49 9.8387 204.89 10.0409 205.313 10.2505C205.313 10.2505 205.313 10.2505 205.32 10.2505C208.655 12.0924 211.733 14.5558 214.419 17.6555C214.962 18.262 215.49 18.8909 215.988 19.5424C227.003 34.0903 227.07 56.3054 217.602 74.9041C214.879 80.2501 211.363 85.2966 207.108 89.7815H207.086L207.063 89.804C205.69 91.279 204.272 92.5968 202.808 93.8547C200.258 96.0634 197.617 97.9278 194.886 99.5076C183.759 105.984 171.627 107.302 161.352 103.341C165.237 102.241 168.859 99.7922 171.952 95.9586C173.174 94.4836 174.283 92.7989 175.332 90.9121C176.033 89.6318 176.682 88.2691 177.316 86.8165C177.248 86.8165 177.187 86.839 177.12 86.839C177.187 86.8165 177.248 86.8165 177.316 86.7941C178.711 83.4622 179.783 79.8233 180.522 76.0122C181.375 71.707 181.812 67.1771 181.873 62.5649C181.895 59.5999 181.782 56.5899 181.503 53.58C180.409 41.7574 176.923 29.9124 171.356 20.3884C170.201 18.3743 168.934 16.4875 167.584 14.6905C167.123 14.1065 166.671 13.5225 166.211 12.9609C163.615 9.84619 160.884 7.37535 158.093 5.57838C154.622 3.30221 151.069 2.07428 147.599 1.85715C146.701 1.81222 145.811 1.81222 144.936 1.90207C144.649 1.92453 144.37 1.96946 144.083 1.99192L138.191 2.98774L138.017 3.03267C137.912 3.05513 137.776 3.07759 137.67 3.10005C137.542 3.12251 137.406 3.14498 137.301 3.16744C135.053 3.64663 132.329 4.29055 130.104 4.81466C131.084 4.64245 132.088 4.57507 133.114 4.61999C136.343 4.76974 139.79 6.07254 143.283 8.53589C145.75 10.2655 148.232 12.609 150.677 15.5066C151.288 16.218 151.899 16.9817 152.487 17.7828C153.385 18.9284 154.23 20.1638 155.06 21.4217C161.669 31.4922 166.384 44.4154 168.587 57.1889C169.085 60.0716 169.462 62.9467 169.681 65.7844C170.028 70.1571 170.073 74.4024 169.749 78.4531C169.462 82.0695 168.896 85.5362 168.029 88.6958V88.7183C167.636 90.1259 167.199 91.4437 166.701 92.6791C165.984 94.4986 165.177 96.1233 164.257 97.5534C161.88 101.297 158.87 103.641 155.483 104.569L155.415 104.592C155.347 104.614 155.309 104.614 155.241 104.636C154.894 104.726 154.524 104.831 154.125 104.936C154.102 104.958 154.079 104.958 154.079 104.958C161.541 113.966 173.106 120.135 185.886 122.823C192.608 124.231 199.632 124.688 206.588 124.059C212.434 123.52 218.213 122.217 223.668 120.12C239.156 113.644 247.621 104.015 249.583 90.6725C249.605 90.5228 249.628 90.373 249.65 90.2158C249.65 90.1484 249.651 90.0885 249.673 90.0211C249.696 89.3098 249.741 88.5686 249.764 87.7899C249.764 87.5727 249.786 87.3781 249.786 87.1834V87.0336C249.832 85.7533 249.869 84.6976 249.892 83.7467C249.869 84.7425 249.839 85.8506 249.786 87.1684C249.786 87.1534 249.786 87.1385 249.786 87.131C249.854 85.8731 249.907 84.6527 249.93 83.552C249.975 81.8449 249.877 79.6436 249.771 77.8017L249.786 77.7942Z" fill="url(#paint6_linear_1070_90883)"/>
<path id="Vector_8" d="M159.807 197.832C159.324 194.912 158.517 191.64 157.476 188.136C156.185 183.891 154.511 179.279 152.549 174.539C151.063 171.013 149.448 167.419 147.706 163.825C144.13 156.487 140.026 149.104 135.71 142.411C133.945 139.685 132.157 137.065 130.361 134.594C129.924 133.987 129.464 133.403 129.034 132.819C126.521 129.487 124.145 126.717 121.987 124.508L121.572 124.097L121.768 123.902C121.18 124.441 119.98 124.336 118.147 123.513C117.249 123.101 116.231 122.539 115.046 121.805C114.217 121.289 113.304 120.682 112.338 119.986H112.315C108.868 117.515 104.899 114.228 100.599 110.372C89.4108 100.302 76.2536 86.3826 66.0235 73.6541C64.6505 71.9469 63.3151 70.2323 62.0552 68.5851C58.2152 63.5161 55.3785 59.2932 53.5453 56.0063C52.6927 54.4714 52.059 53.1236 51.6441 52.0005C51.0104 50.3084 50.9048 49.1179 51.2971 48.4964C51.3197 48.4515 51.3197 48.429 51.3423 48.4066C51.3876 48.3617 51.4479 48.3018 51.5158 48.2344C51.4102 48.3242 51.3197 48.4066 51.2141 48.4964L49.7731 49.8591L47.8342 51.6786C47.5928 51.9182 47.3288 52.1578 47.0722 52.4123C47.0722 52.4123 47.0572 52.4198 47.027 52.4348C46.4838 52.9739 45.9331 53.5205 45.4125 54.0596C44.3035 55.1827 43.1643 56.3582 42.1609 57.3915C41.9195 57.676 41.663 57.9305 41.3989 58.1926C41.3084 58.2824 41.2028 58.3873 41.1122 58.4921C41.0443 58.5595 41.0066 58.6194 40.9614 58.6868C40.9161 58.7092 40.8935 58.7542 40.8708 58.7766C39.8674 60.1618 39.8674 62.4379 40.8935 65.4703C41.4367 67.14 42.3118 69.0418 43.4661 71.1458C45.0353 73.961 47.1326 77.1432 49.8184 80.6697C53.334 85.3269 57.4985 90.1113 62.0326 94.7835C68.581 101.56 75.8613 108.096 83.0208 113.667C90.8065 119.731 98.464 124.643 104.794 127.413H104.816C106.106 127.975 107.261 128.432 108.37 128.799C109.962 129.315 111.357 129.622 112.579 129.727C114.654 129.922 116.133 129.51 117.031 128.559L117.053 128.537C117.121 128.492 117.159 128.432 117.204 128.387C117.295 128.297 117.378 128.215 117.468 128.125L118.102 127.473L118.781 126.777C120.682 128.596 122.666 130.805 124.718 133.403C124.982 133.748 125.239 134.1 125.525 134.467C126.921 136.331 128.294 138.3 129.652 140.359C135.65 149.584 140.863 160.65 144.597 171.492C145.51 174.18 146.34 176.838 147.064 179.458C148.287 183.943 149.222 188.316 149.788 192.382C150.293 195.886 150.505 199.203 150.444 202.212C150.422 203.425 150.339 204.571 150.203 205.634C150.007 207.409 149.682 208.944 149.222 210.269C148.37 212.8 147.087 214.537 145.45 215.443C145.382 215.465 145.322 215.51 145.254 215.533C144.929 215.66 144.575 215.817 144.228 215.944C144.424 215.877 144.643 215.817 144.839 215.75L147.238 214.709H147.261C147.261 214.709 147.261 214.686 147.283 214.686C150.075 213.451 153.59 211.744 156.555 210.291C157.061 210.052 157.513 209.835 157.973 209.617C158.124 209.528 158.26 209.445 158.411 209.333C159.369 208.599 159.98 207.237 160.222 205.222C160.35 204.054 160.35 202.669 160.222 201.044C160.131 200.049 160.003 198.985 159.829 197.84L159.807 197.832Z" fill="url(#paint7_linear_1070_90883)"/>
<path id="Vector_9" d="M137.037 175.258C134.66 162.948 129.983 150.504 123.646 140.621C122.657 139.079 121.624 137.596 120.56 136.181C120.507 136.196 120.454 136.211 120.409 136.218C120.356 136.233 120.311 136.241 120.258 136.256C120.356 136.226 120.454 136.196 120.56 136.173C120.024 135.47 119.489 134.788 118.945 134.144C117.776 132.737 116.599 131.456 115.43 130.318C115.226 130.55 115.03 130.775 114.849 130.985C114.834 131.007 114.811 131.022 114.796 131.045C114.796 131.045 114.736 131.12 114.706 131.157C114.69 131.172 114.675 131.194 114.66 131.209C114.638 131.239 114.615 131.269 114.592 131.299C114.57 131.322 114.555 131.344 114.532 131.367C114.524 131.374 114.517 131.389 114.509 131.397C114.162 131.808 113.793 132.273 113.431 132.722C114.117 133.433 114.796 134.189 115.468 134.99C116.003 135.627 116.531 136.286 117.052 136.975C117.15 136.96 117.256 136.945 117.354 136.922C117.316 136.922 117.286 136.937 117.248 136.945C117.18 136.96 117.12 136.967 117.052 136.982C118.214 138.51 119.308 140.134 120.341 141.834C126.294 151.605 130.111 163.914 131.409 176.186C131.695 178.934 131.861 181.682 131.899 184.392C131.959 189.109 131.62 193.729 130.865 198.102C130.209 201.913 129.236 205.544 127.931 208.891C128.059 208.869 128.187 208.846 128.308 208.824C128.18 208.846 128.051 208.869 127.923 208.891C127.38 210.291 126.784 211.601 126.158 212.829C125.109 214.881 123.947 216.693 122.687 218.265C119.64 222.084 116.048 224.487 112.178 225.446L111.793 225.505C111.092 225.625 110.398 225.745 109.719 225.85C110.119 225.812 110.518 225.768 110.918 225.7C110.918 225.7 110.918 225.7 110.926 225.7H110.971L113.981 225.146C114.057 225.131 114.14 225.109 114.215 225.094C114.253 225.094 114.291 225.079 114.328 225.071C114.396 225.056 114.464 225.049 114.532 225.034C114.894 224.959 115.271 224.877 115.664 224.794C116.712 224.592 117.746 224.382 118.757 224.158C120.009 223.881 121.269 223.581 122.393 223.274C122.635 223.207 122.884 223.139 123.117 223.072C123.563 222.945 123.993 222.825 124.415 222.698C124.513 222.675 124.611 222.653 124.702 222.623C125.162 222.496 125.637 222.368 126.12 222.234C126.263 222.189 126.407 222.136 126.55 222.084C126.573 222.076 126.595 222.061 126.618 222.054C129.357 220.991 131.771 218.864 133.725 215.675C134.645 214.17 135.46 212.433 136.154 210.456C136.561 209.31 136.923 208.082 137.24 206.78C138.025 203.582 138.5 200.101 138.689 196.432C138.908 192.194 138.734 187.702 138.221 183.104C137.927 180.514 137.527 177.886 137.014 175.25L137.037 175.258Z" fill="url(#paint8_linear_1070_90883)"/>
<path id="Vector_10" d="M115.362 209.977C117.459 206.405 119.134 202.549 120.47 198.476C122.152 193.302 123.216 187.822 123.676 182.259C123.985 178.403 124.023 174.509 123.766 170.653C123.178 162.058 121.149 153.679 117.724 146.402C116.501 143.758 115.083 141.273 113.491 138.952C113.099 138.412 112.729 137.888 112.337 137.372C111.922 136.833 111.507 136.309 111.069 135.792C111.198 135.642 111.311 135.47 111.416 135.313L111.635 134.991C110.7 136.271 109.364 137.289 107.644 137.956C106.769 138.3 105.811 138.562 104.762 138.757C104.657 138.757 104.566 138.779 104.476 138.802C103.382 138.952 102.228 139.041 100.945 139.019C99.2852 139.019 97.4746 138.847 95.5131 138.517C76.1393 135.245 48.9346 117.41 34.7362 98.6994C34.2383 98.0255 33.7554 97.3816 33.2952 96.7302C31.0697 93.5705 29.3873 90.6055 28.233 87.8951C25.9395 82.4817 25.7208 78.0417 27.4937 74.9719C27.5616 74.8446 27.6446 74.7098 27.7351 74.5825L25.3134 77.9369L25.1851 78.1315C25.1851 78.1315 25.1399 78.1765 25.1172 78.2214C25.0946 78.2663 25.0493 78.3112 25.0116 78.3711C24.5967 78.9776 24.1817 79.629 23.7215 80.2954C23.1557 81.1415 22.5446 82.0474 21.9562 82.9609C21.3224 83.9567 20.7113 84.975 20.1003 85.9708C20.055 86.0382 20.0324 86.0757 19.9946 86.1206L19.9041 86.2928C19.8815 86.3377 19.8588 86.3602 19.8362 86.3976C19.8136 86.4425 19.7683 86.5024 19.7457 86.5474C19.723 86.5698 19.723 86.5923 19.7004 86.5923C19.6551 86.6821 19.6325 86.742 19.5948 86.8094C19.5722 86.8094 19.5722 86.8319 19.5722 86.8319C19.4665 87.049 19.3534 87.2437 19.2477 87.4608C16.7581 92.395 17.588 99.1936 22.0618 106.928C23.0878 108.68 24.2647 110.455 25.6604 112.296C27.2975 114.46 29.1308 116.587 31.1376 118.638C46.4072 134.399 71.0846 146.544 89.9303 146.873C92.6764 146.941 95.166 146.723 97.3916 146.289C100.817 145.615 103.585 144.402 105.705 142.74C105.728 142.718 105.751 142.695 105.796 142.673C110.489 159.909 101.654 180.237 82.4086 192.621V192.644C80.0322 194.179 77.5652 195.526 75.0529 196.717C70.9715 198.619 66.7844 200.071 62.552 201.067C43.4423 205.507 23.9177 200.416 13.4462 186.601C12.3372 185.126 11.3489 183.591 10.5039 182.012C10.9188 182.858 11.3111 183.591 11.6582 184.265C12.5333 185.89 13.25 187.17 14.0799 188.488C15.1512 190.18 16.396 191.932 18.2444 194.59C18.267 194.613 18.267 194.635 18.2896 194.658C18.3349 194.703 18.3575 194.748 18.4179 194.807C18.7875 195.287 19.2025 195.826 19.6401 196.342C19.9041 196.664 20.1832 196.994 20.4699 197.293C31.8392 209.962 51.2054 213.167 69.4701 206.563C72.9405 205.305 76.3656 203.68 79.7002 201.733C81.6844 200.543 83.6459 199.24 85.5471 197.795C85.4792 197.728 85.4414 197.645 85.3735 197.555C86.3543 197.683 87.1842 196.125 87.9461 195.519L89.7115 193.984C89.9077 193.812 90.1038 193.639 90.3 193.467C90.6244 193.183 90.911 192.883 91.2128 192.576C91.2807 192.531 91.3411 192.471 91.409 192.404C91.6957 192.119 91.9748 191.865 92.2615 191.58L92.5029 191.341C92.6991 191.124 92.9178 190.907 93.114 190.712C93.2196 190.607 93.3328 190.472 93.4233 190.367C93.5968 190.195 93.7703 190.001 93.9439 189.828C94.0495 189.701 94.1627 189.589 94.2683 189.461C94.4192 189.289 94.5927 189.117 94.7511 188.922C94.8567 188.818 94.9699 188.683 95.0755 188.555C95.2264 188.383 95.3773 188.189 95.5357 188.016C95.6413 187.889 95.7545 187.777 95.8601 187.65C95.9054 187.605 95.928 187.56 95.9657 187.5C96.094 187.372 96.2072 187.215 96.3128 187.088C96.4033 186.961 96.5089 186.848 96.5995 186.721C96.773 186.526 96.9239 186.332 97.0823 186.115C97.1728 186.01 97.2558 185.897 97.3463 185.793C97.5425 185.531 97.7386 185.276 97.9348 185.014C97.9801 184.969 98.0253 184.909 98.0404 184.864C98.2366 184.58 98.4327 184.325 98.6289 184.041C98.6741 183.996 98.7194 183.951 98.7345 183.913C98.8024 183.823 98.8627 183.719 98.9306 183.629C98.9985 183.539 99.0363 183.457 99.1042 183.367C99.1268 183.344 99.1494 183.299 99.1947 183.262C99.24 183.195 99.2852 183.135 99.3003 183.067C99.3456 183.022 99.3682 182.977 99.3908 182.962C99.4814 182.835 99.5644 182.7 99.6323 182.596C99.7379 182.446 99.8511 182.296 99.934 182.139C99.9567 182.094 99.9793 182.049 100.025 182.012C100.025 182.012 100.025 181.989 100.047 181.989C100.07 181.922 100.115 181.862 100.153 181.794C100.198 181.727 100.243 181.667 100.281 181.6C100.409 181.405 100.522 181.21 100.651 181.016C100.673 180.971 100.719 180.911 100.741 180.866C100.741 180.866 100.764 180.843 100.764 180.821C100.809 180.754 100.854 180.671 100.892 180.604C101.02 180.409 101.134 180.215 101.239 180.02C101.33 179.893 101.39 179.758 101.481 179.631C101.503 179.586 101.549 179.541 101.571 179.481C101.594 179.458 101.616 179.413 101.616 179.391C101.662 179.324 101.707 179.264 101.745 179.174C101.767 179.129 101.813 179.069 101.835 179.002C101.926 178.874 101.986 178.74 102.054 178.612C102.099 178.545 102.122 178.507 102.16 178.44C102.182 178.395 102.205 178.335 102.228 178.29C102.295 178.2 102.333 178.118 102.378 178.028C102.401 178.006 102.401 177.983 102.424 177.961C102.469 177.834 102.529 177.721 102.597 177.616C102.62 177.572 102.642 177.512 102.688 177.467C102.756 177.339 102.816 177.205 102.884 177.077C102.929 176.987 102.974 176.883 103.035 176.793C103.035 176.748 103.057 176.725 103.08 176.688C103.08 176.666 103.103 176.643 103.125 176.621C103.148 176.576 103.171 176.531 103.193 176.493C103.261 176.344 103.321 176.186 103.389 176.059C103.457 175.909 103.54 175.752 103.608 175.602C103.608 175.602 103.631 175.58 103.631 175.557C103.653 175.512 103.676 175.49 103.676 175.453C103.744 175.325 103.804 175.191 103.872 175.063C103.895 174.996 103.917 174.936 103.963 174.891C103.985 174.786 104.031 174.674 104.091 174.584C104.091 174.562 104.114 174.517 104.114 174.494C104.136 174.449 104.136 174.427 104.159 174.404C104.181 174.337 104.204 174.3 104.227 174.255C104.272 174.187 104.295 174.127 104.317 174.06C104.408 173.888 104.468 173.738 104.536 173.558C104.559 173.491 104.604 173.409 104.627 173.341C104.672 173.251 104.694 173.191 104.717 173.124C104.74 173.102 104.762 173.079 104.762 173.057C104.762 173.034 104.762 173.012 104.785 172.989C104.808 172.944 104.83 172.884 104.853 172.839C104.898 172.75 104.921 172.667 104.943 172.577C104.966 172.555 104.966 172.532 104.966 172.51C105.011 172.443 105.057 172.36 105.072 172.27C105.094 172.181 105.14 172.121 105.162 172.031C105.207 171.904 105.268 171.769 105.313 171.619C105.358 171.552 105.381 171.469 105.404 171.379C105.426 171.312 105.472 171.275 105.494 171.207C105.517 171.14 105.517 171.102 105.539 171.035C105.607 170.885 105.645 170.736 105.713 170.578C105.758 170.451 105.804 170.316 105.841 170.166C105.841 170.166 105.849 170.152 105.864 170.122C105.954 169.86 106.06 169.582 106.128 169.32C106.173 169.193 106.196 169.058 106.234 168.931C106.256 168.886 106.279 168.864 106.279 168.841C106.347 168.602 106.407 168.384 106.475 168.167C106.498 168.1 106.52 168.04 106.543 167.973C106.565 167.905 106.565 167.868 106.588 167.8C106.679 167.516 106.784 167.216 106.852 166.932C106.897 166.782 106.943 166.647 106.958 166.52C107.063 166.153 107.154 165.809 107.222 165.457C107.29 165.262 107.327 165.068 107.35 164.873C107.456 164.528 107.524 164.177 107.569 163.832C107.592 163.682 107.637 163.533 107.659 163.375C107.659 163.353 107.659 163.33 107.682 163.286C107.705 163.113 107.75 162.941 107.773 162.769C107.863 162.425 107.901 162.058 107.946 161.706C107.969 161.638 107.969 161.578 107.969 161.511C108.014 161.294 108.037 161.099 108.059 160.882C108.059 160.837 108.059 160.777 108.082 160.732C108.082 160.665 108.105 160.605 108.105 160.538C108.127 160.388 108.15 160.216 108.172 160.036L108.24 159.325C108.263 159.257 108.263 159.22 108.263 159.153V159.13C108.286 159.063 108.286 159.025 108.286 158.958C108.286 158.913 108.286 158.868 108.308 158.853V158.636C108.331 158.546 108.331 158.486 108.331 158.396C108.353 158.291 108.353 158.202 108.353 158.097C108.353 158.029 108.376 157.97 108.376 157.88V157.685C108.399 157.58 108.399 157.468 108.399 157.386V157.281C108.421 157.213 108.421 157.131 108.421 157.064V156.719C108.444 156.629 108.444 156.547 108.444 156.457V156.023C108.444 155.918 108.467 155.783 108.467 155.656V154.593C108.467 154.503 108.467 154.443 108.444 154.353V153.679C108.421 153.634 108.421 153.574 108.421 153.53V153.357C108.421 153.252 108.399 153.118 108.399 152.99V152.886C108.399 152.856 108.391 152.833 108.376 152.818V152.796C108.376 152.796 108.376 152.751 108.376 152.706V152.489C108.376 152.444 108.376 152.399 108.353 152.361V152.339C108.353 152.249 108.353 152.167 108.331 152.054C108.331 151.95 108.331 151.86 108.308 151.755C108.308 151.665 108.308 151.583 108.286 151.47V151.381C108.286 151.336 108.263 151.291 108.263 151.253V151.126C108.263 151.126 108.24 151.059 108.24 150.999C108.24 150.954 108.24 150.909 108.218 150.871V150.827C108.195 150.722 108.195 150.587 108.172 150.482V150.377C108.15 150.25 108.127 150.115 108.105 149.988V149.838C108.082 149.771 108.082 149.711 108.059 149.644C108.059 149.576 108.059 149.539 108.037 149.471C108.037 149.426 108.037 149.382 108.014 149.344C108.014 149.239 107.991 149.104 107.969 149C107.969 148.977 107.969 148.932 107.946 148.91C107.923 148.76 107.901 148.625 107.878 148.476V148.453C107.878 148.408 107.856 148.386 107.856 148.348V148.303C107.833 148.213 107.81 148.109 107.788 147.996C107.765 147.824 107.72 147.652 107.682 147.48C107.682 147.412 107.659 147.352 107.659 147.285C107.637 147.24 107.637 147.18 107.614 147.135C107.614 147.068 107.592 147.008 107.592 146.941C107.546 146.791 107.524 146.656 107.486 146.506C107.463 146.416 107.463 146.357 107.441 146.267C107.418 146.199 107.395 146.139 107.373 146.05C107.35 145.96 107.327 145.877 107.305 145.788C107.305 145.72 107.282 145.683 107.26 145.615C107.26 145.57 107.237 145.511 107.237 145.466C107.192 145.338 107.169 145.204 107.131 145.076C107.086 144.926 107.041 144.777 107.003 144.62C107.003 144.597 107.003 144.575 106.98 144.552C106.98 144.485 106.958 144.402 106.935 144.335C106.913 144.313 106.913 144.268 106.913 144.268C106.913 144.245 106.913 144.223 106.89 144.2L106.867 144.178C106.867 144.178 106.867 144.11 106.845 144.088C106.777 143.848 106.716 143.631 106.626 143.392L106.799 143.025L107.516 141.617C113.816 154.997 112.488 172.143 104.544 187.073C101.352 193.078 97.0898 198.723 91.8239 203.62C91.8465 203.635 91.8616 203.65 91.8843 203.658C91.8616 203.643 91.8465 203.635 91.8239 203.62C90.2622 205.005 88.6855 206.286 87.0936 207.476C84.3173 209.55 81.5033 211.325 78.6742 212.807C64.7172 220.085 50.2624 220.115 37.4521 212.56C37.3692 212.508 37.2862 212.455 37.1956 212.41C37.3088 212.485 37.422 212.568 37.5351 212.642C37.9123 212.904 38.282 213.152 38.6291 213.391C38.7875 213.496 38.9535 213.601 39.1194 213.706C39.2024 213.758 39.2779 213.81 39.3609 213.855C39.5042 213.945 39.6551 214.035 39.806 214.132C40.4246 214.522 41.0357 214.889 41.6166 215.218C41.6996 215.263 41.7826 215.315 41.8656 215.36C42.537 215.735 43.2914 216.161 44.0685 216.588C44.0911 216.603 44.1213 216.618 44.1439 216.633C44.7173 216.94 45.2831 217.232 45.8414 217.524C46.9127 218.086 47.9236 218.565 49.1911 219.134C49.8776 219.441 50.6471 219.778 51.5449 220.167C51.6053 220.19 51.6656 220.22 51.726 220.242C51.6958 220.227 51.6581 220.212 51.6279 220.197C50.9414 219.905 50.2699 219.591 49.5985 219.254C51.1677 219.92 52.8652 220.609 54.5249 221.253C64.2646 224.293 75.4226 222.668 85.6527 216.506C88.3535 214.881 90.994 212.942 93.5214 210.681C94.902 209.445 96.2524 208.12 97.5576 206.705C97.5199 206.69 97.4821 206.667 97.4369 206.652C97.4746 206.667 97.5199 206.69 97.5576 206.705C101.714 202.198 105.117 197.129 107.757 191.76C112.231 182.64 114.472 172.675 114.313 163.166C114.276 160.882 114.102 158.628 113.785 156.42C112.948 150.55 111.13 145.001 108.286 140.097C108.459 139.798 108.633 139.513 108.791 139.229C108.836 139.206 108.836 139.161 108.859 139.139C108.949 139.011 109.032 138.877 109.1 138.749L109.757 137.731C110.828 139.184 111.809 140.741 112.684 142.343C115.211 146.911 117.022 152.025 118.116 157.415C118.289 158.344 118.463 159.28 118.621 160.231C119.579 166.355 119.647 172.787 118.84 179.151C118.055 185.254 116.486 191.318 114.125 197.016C112.314 201.389 110.021 205.544 107.275 209.333C106.203 210.808 105.094 212.193 103.955 213.466C101.994 215.675 99.9416 217.599 97.8065 219.246C90.564 224.854 82.469 227.303 74.7436 226.434C76.2298 226.629 77.7538 226.801 79.1721 226.951H79.24C79.3909 226.973 79.5267 226.996 79.655 226.996C79.9794 227.041 80.3113 227.063 80.6131 227.101C80.7866 227.101 80.9601 227.123 81.1336 227.123C81.3449 227.138 81.5712 227.145 81.7975 227.16C81.5712 227.145 81.3449 227.138 81.1261 227.123C81.8881 227.183 82.6878 227.243 83.5025 227.288C84.4758 227.348 85.4188 227.4 86.2562 227.415C86.3015 227.415 86.3467 227.415 86.392 227.415C86.5354 227.415 86.6787 227.423 86.822 227.43C86.9352 227.43 87.0484 227.43 87.1615 227.437C87.2898 227.437 87.4105 227.438 87.5388 227.445C87.8103 227.445 88.0819 227.452 88.3384 227.46C88.5346 227.46 88.7232 227.46 88.9118 227.46C88.9948 227.46 89.0702 227.46 89.1532 227.46C89.1683 227.46 89.191 227.46 89.206 227.46H89.7719C90.2698 227.46 90.7753 227.437 91.2581 227.393C96.9993 226.958 102.642 224.383 107.667 219.725C109.387 218.123 111.047 216.259 112.616 214.14C113.574 212.822 114.495 211.414 115.385 209.917L115.362 209.977Z" fill="url(#paint9_linear_1070_90883)"/>
<path id="Vector_11" d="M10.4278 181.937C10.4278 181.937 10.4654 182.004 10.4804 182.034C10.4278 181.937 10.3827 181.839 10.3301 181.734C10.3601 181.802 10.3902 181.869 10.4278 181.929V181.937Z" fill="url(#paint10_linear_1070_90883)"/>
<path id="Vector_12" d="M235.311 35.7451C235.861 36.5238 236.374 37.325 236.857 38.1336C236.389 37.4073 235.884 36.6286 235.311 35.7451Z" fill="url(#paint11_linear_1070_90883)"/>
<path id="Vector_13" d="M239.557 121.378C235.34 125.571 229.32 128.858 221.7 130.738C212.074 133.111 201.346 132.887 191.025 130.58C183.073 128.798 175.355 125.781 168.573 121.753C162.085 117.897 156.457 113.12 152.285 107.617C152.285 107.624 152.285 107.639 152.277 107.647C152.277 107.639 152.277 107.624 152.285 107.617C151.855 107.055 151.448 106.486 151.063 105.917C150.618 106.074 150.097 106.254 149.478 106.471C149.184 106.583 148.867 106.711 148.543 106.838C149.32 108.111 150.188 109.391 151.168 110.679C151.191 110.619 151.214 110.567 151.244 110.507C151.221 110.567 151.199 110.619 151.176 110.679C153.258 113.419 155.687 116.032 158.381 118.488C162.696 122.412 167.705 125.923 173.115 128.896C187.389 136.743 204.424 140.853 218.735 138.914C218.901 138.525 219.075 138.135 219.233 137.753C219.075 138.143 218.909 138.525 218.743 138.914C223.292 138.3 227.23 137.117 230.504 135.47C234.51 133.456 237.536 130.753 239.497 127.556C239.55 127.473 239.603 127.383 239.655 127.301C239.859 126.957 240.04 126.612 240.221 126.26C240.267 126.163 240.319 126.073 240.365 125.976C240.463 125.766 240.561 125.564 240.651 125.354C240.659 125.332 240.666 125.317 240.674 125.294C241.021 124.433 241.376 123.505 241.745 122.539C241.806 122.374 241.874 122.202 241.941 122.03C243.073 119.042 244.258 115.755 245.238 112.843C245.253 112.805 245.268 112.76 245.276 112.723C245.276 112.738 245.261 112.753 245.253 112.775C244.061 115.913 242.153 118.818 239.572 121.386L239.557 121.378Z" fill="url(#paint12_linear_1070_90883)"/>
<path id="Vector_14" d="M51.8321 191.034C57.528 190.944 63.3069 190.128 68.9123 188.503C72.6845 187.417 76.3737 185.995 79.927 184.198C97.3619 175.407 106.739 160.253 105.804 145.525C105.759 145.046 105.736 144.574 105.676 144.118C105.698 144.462 105.698 144.792 105.721 145.376V145.42C103.782 149.254 100.508 152.519 95.9662 154.944C92.6316 156.719 88.5954 158.044 83.9481 158.778H83.9255C70.2251 160.964 54.1255 157.677 40.2516 150.811C33.688 147.584 27.645 143.534 22.6054 138.884C20.1158 136.608 17.8676 134.167 15.9287 131.606C9.31992 122.883 7.39613 114.288 9.59906 107.205C9.64433 107.1 9.66696 106.965 9.70468 106.86C9.70468 106.838 9.72732 106.816 9.72732 106.793C9.72732 106.771 9.74995 106.748 9.74995 106.726C9.90084 106.314 10.0593 105.925 10.2328 105.535C10.1045 105.82 9.99137 106.119 9.86311 106.404C9.6217 107.01 9.38028 107.617 9.1464 108.201C9.12377 108.246 9.12377 108.291 9.10114 108.328C9.07851 108.373 9.05587 108.418 9.05587 108.455C8.85972 108.994 8.66357 109.541 8.44479 110.102C8.27127 110.559 8.12038 111.031 7.93932 111.533C7.81106 111.944 7.65263 112.334 7.52438 112.701C6.84539 114.647 6.08342 117.201 5.5176 119.304C5.47233 119.522 5.41198 119.739 5.36671 119.933C5.34408 119.978 5.34408 120.038 5.32144 120.083V120.151C5.32144 120.151 5.29881 120.173 5.29881 120.195C2.16038 135.657 12.9789 150.444 29.599 159.512C36.4266 163.233 44.2349 166.011 52.4658 167.456C61.8056 169.103 71.666 169.081 81.2171 166.872H81.2397C91.6056 164.057 97.5354 159.34 100.983 154.982C103.948 151.216 105.11 147.727 105.698 145.885C105.57 149.786 104.521 155.191 100.764 160.844C97.0149 166.52 90.5569 172.427 79.6026 177.347H79.58C74.4121 179.293 69.1538 180.574 63.9407 181.24C56.7434 182.191 49.6517 181.996 42.9524 180.851C20.8929 177.04 3.35993 162.641 2.13775 143.137C2.11512 142.792 2.11512 142.426 2.09248 142.051V142.463C2.09248 142.568 2.06985 142.68 2.06985 142.785V142.98C2.04722 143.264 2.04722 143.541 2.04722 143.826L2.00195 144.627C2.00195 144.754 2.02459 144.866 2.02459 144.971C2.00195 145.405 2.00195 145.84 2.00195 146.274C2.02459 146.97 2.04722 147.682 2.09248 148.393C2.11512 148.588 2.11512 148.805 2.11512 148.999C2.13775 149.261 2.13775 149.501 2.16038 149.733V150.033C2.16038 150.182 2.16038 150.332 2.18302 150.489V150.639C2.20565 150.901 2.20565 151.141 2.22828 151.395C2.25092 151.657 2.27355 151.934 2.29618 152.241V152.286C2.31881 152.459 2.34145 152.631 2.34145 152.788C2.36408 152.983 2.38671 153.177 2.40935 153.372C2.43198 153.567 2.45461 153.784 2.47724 153.979C2.49988 154.196 2.52251 154.413 2.54514 154.63C2.54514 154.652 2.56778 154.697 2.56778 154.735C2.59041 154.997 2.63567 155.251 2.65831 155.513C2.68094 155.708 2.70357 155.925 2.74884 156.12V156.225C2.77147 156.397 2.7941 156.547 2.81674 156.719C2.81674 156.809 2.83937 156.869 2.83937 156.959V157.026L2.9299 157.565V157.61C2.9299 157.655 2.95253 157.677 2.95253 157.7C3.73714 162.986 5.87218 168.137 9.45572 172.877C18.5768 184.894 34.8498 191.281 51.8698 191.019L51.8321 191.034Z" fill="url(#paint13_linear_1070_90883)"/>
<path id="Vector_15" d="M167.57 0.846525C167.72 0.868987 167.871 0.891449 168.03 0.913912C171.847 1.3931 175.597 2.81571 179.158 5.18172C182.236 7.24075 185.155 9.98862 187.796 13.4777C188.12 13.912 188.452 14.3837 188.777 14.8404C190.482 17.2439 191.96 19.8645 193.228 22.6348C196.653 30.1072 198.592 38.7252 198.969 47.5379C199.12 51.0644 199.037 54.6209 198.682 58.1475C198.162 63.6282 197.023 69.0192 195.302 74.1256C193.861 78.3484 192.006 82.3767 189.742 86.053C188.845 87.5504 187.886 88.9356 186.883 90.2309C185.374 92.2001 183.76 93.9746 182.085 95.532C176.132 101.013 169.32 103.716 162.56 103.566C162.47 103.551 162.379 103.536 162.289 103.521L162.56 103.566H162.221C162.349 103.566 162.522 103.566 162.636 103.588C171.078 105.063 180.154 102.682 188.203 96.5278C190.301 94.948 192.307 93.1061 194.224 91.0246C195.401 89.7218 196.54 88.3591 197.671 86.8916H197.694V86.8691C200.682 82.8633 203.171 78.4682 205.133 73.8336C207.645 67.8811 209.274 61.5542 210.021 55.19C211.462 43.1278 209.697 30.9383 204.635 21.1074C203.48 18.8761 202.168 16.7572 200.689 14.803C198.66 12.115 196.434 9.89129 194.058 8.04939C190.308 5.16675 186.204 3.33234 181.904 2.4638C181.836 2.44134 181.753 2.41888 181.662 2.39641L180.395 2.20174C179.369 2.02953 178.343 1.83486 177.317 1.68511C176.811 1.61773 176.313 1.55783 175.853 1.49044C175.612 1.46798 175.355 1.44552 175.091 1.42305C173.696 1.25084 172.3 1.12356 170.882 0.988785C170.64 0.966323 170.384 0.966323 170.142 0.943861C169.75 0.898937 169.358 0.876475 168.943 0.854012C168.852 0.854012 168.747 0.83155 168.656 0.83155H168.415C168.068 0.809088 167.698 0.786626 167.321 0.764164C167.011 0.741702 166.687 0.741702 166.34 0.71924C165.819 0.71924 165.246 0.696777 164.703 0.696777C165.186 0.719239 165.684 0.741702 166.204 0.764164C166.642 0.786626 167.117 0.809088 167.577 0.83155L167.57 0.846525Z" fill="url(#paint14_linear_1070_90883)"/>
</g>
<g id="Group_4">
<path id="Vector_16" d="M231.506 139.139C231.438 139.288 231.355 139.423 231.265 139.573L231.242 139.618C230.503 140.681 229.583 141.677 228.496 142.538C226.316 144.267 223.457 145.593 219.941 146.349C217.715 146.828 215.226 147.105 212.502 147.128C195.271 147.3 173.362 137.836 157.987 124.546C154.26 121.319 150.918 117.874 148.127 114.28C147.953 114.063 147.78 113.846 147.606 113.607C146.097 111.615 144.815 109.668 143.766 107.781L144.377 107.497C144.883 107.28 145.449 107.063 146.014 106.823C146.165 106.778 146.316 106.718 146.452 106.628C148.564 105.805 150.247 103.881 151.386 100.893C151.627 100.242 151.846 99.5303 152.042 98.7741C152.065 98.7292 152.065 98.6843 152.087 98.6468C152.238 97.9505 152.389 97.2392 152.525 96.4605C152.699 95.3149 152.827 94.102 152.917 92.7767C153.091 89.7219 152.963 86.3451 152.548 82.796C152.11 78.7903 151.326 74.5449 150.232 70.1723C149.575 67.5293 148.813 64.8263 147.961 62.1159C144.43 51.0121 139.255 39.6837 133.212 30.3095C131.899 28.2953 130.549 26.3711 129.175 24.5517C128.828 24.0725 128.474 23.6232 128.127 23.189C125.615 20.0293 123.178 17.4761 120.862 15.4994C117.504 12.6617 114.404 11.0594 111.695 10.6925C110.782 10.5877 109.93 10.6027 109.123 10.7599H109.055C108.338 11.0444 107.636 11.3214 106.942 11.5835C107.048 11.5161 107.161 11.4562 107.289 11.3888C107.38 11.3439 107.486 11.299 107.576 11.2615L107.289 11.3664C105.999 11.883 104.739 12.4071 103.54 12.9237L102.823 13.2232C102.823 13.2232 102.801 13.2232 102.801 13.2457H102.733C100.334 14.3089 97.1952 15.8438 94.7734 16.9669C95.1431 16.7947 95.558 16.6824 95.9956 16.6674C96.6746 16.6001 97.4366 16.7124 98.2664 16.9669C100.56 17.6782 103.397 19.6549 106.603 22.8595C108.874 25.0907 111.318 27.9285 113.936 31.3502C114.087 31.5449 114.223 31.762 114.374 31.9567C116.033 34.1655 117.67 36.5015 119.285 38.9499C124.543 47.0063 129.492 56.2083 133.551 65.2756C134.796 68.0908 135.973 70.9061 137.044 73.6764C138.877 78.3934 140.401 82.9458 141.541 87.1836C142.476 90.7102 143.178 94.0046 143.525 96.9697C143.676 98.2051 143.766 99.3282 143.811 100.391C143.857 101.889 143.789 103.207 143.615 104.33C143.246 106.838 142.325 108.425 140.952 109.092C140.952 109.114 140.929 109.114 140.907 109.114C140.839 109.159 140.779 109.204 140.711 109.219C141.978 111.6 143.593 114.131 145.599 116.751V116.759V116.774C145.841 117.096 146.105 117.425 146.339 117.725C160.756 136.084 187.681 152.885 207.138 155.529C209.122 155.813 210.956 155.918 212.638 155.873C215.648 155.806 218.138 155.266 220.122 154.293C221.367 153.687 222.415 152.908 223.245 151.979C223.419 151.785 223.592 151.568 223.743 151.351C223.766 151.328 223.788 151.283 223.811 151.261L224.49 150.287C224.49 150.287 224.535 150.242 224.558 150.22C224.664 150.093 224.754 149.92 224.845 149.786C224.867 149.763 224.89 149.763 224.89 149.741C225.456 148.94 226.067 148.034 226.678 147.12C227.395 146.02 228.142 144.844 228.836 143.676L229.447 142.748C229.537 142.575 229.643 142.426 229.733 142.268C229.839 142.096 229.93 141.946 230.035 141.789L230.82 140.404C231.061 140.015 231.28 139.625 231.499 139.258C231.74 138.869 231.959 138.48 232.178 138.09C232.246 137.986 232.283 137.851 232.351 137.746C232.283 137.836 232.246 137.896 232.2 137.986C232.117 138.128 232.034 138.27 231.951 138.42L232.472 137.506C232.472 137.506 232.48 137.484 232.487 137.476C232.276 137.851 232.065 138.218 231.861 138.585C231.755 138.764 231.657 138.944 231.552 139.116L231.506 139.139Z" fill="url(#paint15_linear_1070_90883)"/>
<path id="Vector_17" d="M65.1406 35.1468L65.1634 35.124H65.1406V35.1468Z" fill="url(#paint16_linear_1070_90883)"/>
<path id="Vector_18" d="M210.46 167.695C209.721 168.302 208.718 168.669 207.45 168.781C205.926 168.908 204.048 168.676 201.777 168.047C200.645 167.725 199.4 167.314 198.065 166.789C190.8 163.929 181.943 158.411 173.086 151.545C167.918 147.539 162.72 143.077 157.877 138.405C151.984 132.752 146.553 126.799 142.169 120.997C139.876 117.964 138.005 115.171 136.564 112.641C136.39 112.356 136.239 112.057 136.058 111.772C136.058 111.75 136.036 111.75 136.036 111.727C135.447 112.094 134.836 112.461 134.316 112.768L134.21 112.835C133.863 113.053 133.493 113.315 133.078 113.547C133.01 113.592 132.95 113.637 132.882 113.651C133.169 113.479 133.32 113.067 133.32 112.461C133.32 111.899 133.192 111.166 132.95 110.252C132.709 109.384 132.362 108.328 131.901 107.115C131.554 106.246 131.162 105.251 130.702 104.195C129.502 101.47 127.978 98.3248 126.168 94.9031C123.723 90.2235 120.781 85.0272 117.552 79.6138C111.6 69.6556 104.636 58.9786 97.937 49.6493C96.2999 47.3732 94.6854 45.1868 93.1162 43.0904C91.4112 40.8367 89.8194 38.8226 88.3633 37.0481C84.8929 32.8252 82.1242 29.8826 80.1627 28.2579C79.461 27.6963 78.85 27.2845 78.352 27.0674C77.9145 26.8502 77.5674 26.7828 77.3034 26.8502H77.2581C77.1525 26.9176 77.0393 26.9775 76.9563 27.0449C76.979 27.0224 77.0016 27 77.0242 26.9775C76.8734 27.0823 76.7225 27.1722 76.564 27.277C75.4098 27.9883 74.2479 28.7296 73.2295 29.4184C73.1012 29.5232 72.9428 29.6131 72.8145 29.7029L72.6636 29.8078C71.4415 30.6314 70.0458 31.6272 68.6501 32.623C68.6274 32.623 68.6274 32.6455 68.6048 32.6455C68.4765 32.7353 68.3408 32.8177 68.2351 32.9075C68.1069 33.0124 67.9711 33.1022 67.8428 33.1921C67.36 33.514 66.9073 33.8435 66.4471 34.1654C66.2962 34.2702 66.1605 34.3825 66.0322 34.4649C65.9417 34.5548 65.8587 34.5922 65.7681 34.6596C65.7229 34.7045 65.6776 34.7494 65.6399 34.7644C65.6173 34.7869 65.5946 34.7869 65.572 34.8093C65.5267 34.8542 65.4815 34.8767 65.4437 34.8992C65.3758 34.9666 65.3155 35.004 65.2476 35.0489L65.1797 35.1163C65.225 35.1612 65.5041 35.5281 66.0548 36.202C66.4698 36.7411 67.0356 37.4599 67.7372 38.3658C69.6987 40.8966 72.7315 44.9023 76.7904 50.2333C77.4467 51.1019 78.1182 51.9854 78.8198 52.9213C82.6372 57.9453 86.8243 63.486 91.1019 69.1615C93.8254 72.7779 96.6017 76.4617 99.3252 80.0706C105.104 87.7601 110.694 95.2026 115.357 101.44C117.824 104.749 120.049 107.736 121.905 110.23C122.584 111.136 123.195 111.959 123.716 112.701C124.478 113.719 125.112 114.565 125.617 115.254C126.711 116.766 127.232 117.508 127.232 117.552C126.379 118.181 125.376 118.938 124.568 119.589C124.44 119.694 124.327 119.806 124.199 119.888C124.199 119.911 124.176 119.911 124.153 119.933C124.131 119.956 124.086 119.978 124.063 120.023L124.086 120.046C125.066 121.191 126.138 122.472 127.292 123.902C128.688 125.654 130.212 127.623 131.871 129.787C133.637 132.115 135.455 134.579 137.296 137.124C143.791 146.124 150.566 156.225 156.511 165.674C159.808 170.923 162.848 175.962 165.428 180.506C167.465 184.078 169.223 187.35 170.604 190.158C171.094 191.153 171.524 192.067 171.894 192.898C172.528 194.321 172.995 195.496 173.297 196.44C173.742 197.825 173.833 198.701 173.576 199.068C173.554 199.098 173.523 199.12 173.501 199.15C173.863 198.918 174.21 198.686 174.549 198.469L175.311 197.959L175.402 197.9C177.944 196.155 181.136 193.841 183.844 191.865C184.334 191.505 184.81 191.153 185.262 190.824C185.255 190.824 185.232 190.809 185.217 190.802C185.028 190.697 184.531 190.18 183.769 189.304C183.112 188.555 182.26 187.537 181.241 186.309C180.653 185.598 180.011 184.827 179.317 183.981C179.219 184.055 179.114 184.13 179.016 184.205C179.114 184.13 179.212 184.055 179.317 183.973C177.122 181.285 174.489 178.006 171.554 174.329C165.406 166.602 157.967 157.123 150.634 147.659C150.589 147.599 150.543 147.539 150.498 147.48C145.134 140.554 139.838 133.65 135.146 127.466C134.512 126.62 133.901 125.826 133.335 125.062C130.936 121.903 129.057 119.364 127.556 117.358C127.971 117.058 128.386 116.729 128.823 116.429L130.023 115.561L130.74 115.059C130.785 115.059 130.808 115.037 130.83 115.014L131.004 114.909C131.177 114.805 131.328 114.692 131.487 114.587C131.509 114.587 131.509 114.565 131.532 114.565C131.856 114.348 132.211 114.108 132.558 113.891C134.263 116.729 136.549 120.061 139.431 123.827C141.045 125.968 142.765 128.155 144.599 130.363C154.353 142.208 166.635 154.765 177.409 164.072C182.275 168.25 186.809 171.799 190.694 174.314C191.72 174.988 192.678 175.55 193.553 176.044C195.274 176.995 196.692 177.624 197.854 177.931C199.008 178.253 199.883 178.23 200.449 177.886C200.494 177.863 200.54 177.818 200.577 177.796C200.623 177.751 200.668 177.706 200.706 177.691L200.773 177.624L200.841 177.556L202.192 176.276L202.282 176.186C202.282 176.186 202.312 176.156 202.335 176.134C202.569 175.917 202.81 175.692 203.052 175.46C203.987 174.561 204.991 173.551 205.964 172.555C206.183 172.33 206.401 172.106 206.62 171.888C207.171 171.319 207.714 170.75 208.25 170.174C208.28 170.144 208.303 170.114 208.333 170.084C208.348 170.069 208.363 170.054 208.378 170.039L208.484 169.919C208.951 169.41 209.457 168.871 209.97 168.302C209.917 168.354 209.864 168.407 209.819 168.467C209.864 168.414 209.91 168.362 209.962 168.309C210.113 168.16 210.249 168.01 210.377 167.853C210.423 167.83 210.445 167.785 210.483 167.748C210.573 167.658 210.656 167.553 210.747 167.448C210.656 167.516 210.619 167.576 210.551 167.643C210.528 167.665 210.506 167.688 210.483 167.688L210.46 167.695Z" fill="url(#paint17_linear_1070_90883)"/>
<path id="Vector_19" d="M211.092 167.067C211.115 167.022 211.16 166.977 211.183 166.939C211.032 167.112 210.858 167.284 210.723 167.456C210.851 167.329 210.964 167.194 211.092 167.067Z" fill="url(#paint18_linear_1070_90883)"/>
<path id="Vector_20" d="M7.38801 179.481C7.49363 179.72 7.6068 179.952 7.71242 180.185C7.85576 180.462 7.99156 180.731 8.12735 180.993C7.69733 180.095 7.27485 179.174 6.875 178.283C7.03343 178.687 7.20695 179.084 7.38047 179.481H7.38801Z" fill="url(#paint19_linear_1070_90883)"/>
<path id="Vector_21" d="M103.594 142.778C103.631 143.025 103.654 143.272 103.684 143.511C103.669 143.339 103.646 143.137 103.609 142.89L103.594 142.77V142.778Z" fill="url(#paint20_linear_1070_90883)"/>
<path id="Vector_22" d="M247.826 77.555C247.826 77.5175 247.826 77.4726 247.826 77.4352V77.3303C247.803 77.1207 247.788 76.911 247.78 76.7089C247.75 76.2222 247.705 75.7056 247.652 75.1814C247.607 74.6873 247.569 74.1931 247.516 73.699C247.516 73.669 247.516 73.6465 247.516 73.6166C247.516 73.6391 247.516 73.6615 247.516 73.684C247.539 73.991 247.554 74.283 247.577 74.5675C247.675 76.05 247.758 77.2854 247.818 78.3636C247.75 77.2779 247.675 76.05 247.577 74.5675C248.188 85.7162 244.023 101.088 221.662 112.888C221.685 113.187 221.707 113.494 221.753 113.794C221.707 113.494 221.685 113.187 221.647 112.888C218.026 114.64 214.253 116.025 210.413 117.066C204.808 118.541 199.044 119.275 193.393 119.275C178.101 119.275 163.42 113.989 154.012 104.203C154.427 104.098 154.865 104.008 155.257 103.918L155.8 103.813L155.823 103.791H155.846C155.974 103.768 156.11 103.746 156.238 103.723C167.102 112.641 182.982 115.763 198.712 112.536C203.314 111.608 207.916 110.133 212.367 108.096C214.789 106.973 217.188 105.693 219.527 104.24C240.425 91.2045 249.221 68.8621 241.843 50.9373C241.209 49.5521 240.689 48.3841 240.183 47.3434C240.138 47.2535 240.093 47.1487 240.032 47.0439C239.595 46.093 239.157 45.2244 238.72 44.3783C238.199 43.3825 237.671 42.3867 237.037 41.3235C236.773 40.9117 236.539 40.4774 236.275 40.0432C235.838 39.3693 235.4 38.658 234.902 37.8793C238.176 43.42 239.814 49.6345 239.919 56.0437C240.01 60.9779 239.202 66.0244 237.565 70.981C234.095 81.3735 226.966 91.3542 216.6 98.909C214.683 100.317 212.692 101.597 210.662 102.743C206.951 104.861 203.111 106.554 199.21 107.834C184.31 112.663 168.844 111.128 157.603 103.506H157.513C157.973 103.416 158.448 103.334 158.909 103.222C169.84 108.717 183.586 108.418 196.456 102.353C199.64 100.841 202.786 98.9988 205.796 96.7901C207.456 95.5771 209.093 94.2593 210.662 92.8292C216.336 87.7378 220.847 81.7853 224.189 75.466C232.239 60.1767 233.242 42.6413 226 29.3062C225.125 27.6815 224.121 26.1241 222.99 24.6491C220.983 21.9836 218.69 19.7149 216.162 17.8281C213.937 16.2033 210.821 14.2117 208.482 12.7217H208.459C208.459 12.7217 208.437 12.6992 208.414 12.6768C207.584 12.1976 206.754 11.7259 205.97 11.3141C205.623 11.1194 205.291 10.9472 204.944 10.775C204.838 10.7076 204.702 10.6477 204.574 10.5803C204.054 10.3182 203.503 10.0412 202.96 9.77914L202.786 9.67431C202.718 9.65185 202.681 9.62939 202.635 9.60693C202.567 9.58447 202.507 9.53954 202.439 9.51708C202.266 9.42723 202.115 9.36733 201.941 9.27748C201.964 9.29246 201.986 9.29995 202.009 9.31492C201.986 9.30743 201.964 9.29246 201.941 9.28497C201.79 9.2101 201.639 9.13522 201.489 9.06035C201.526 9.07532 201.564 9.09779 201.602 9.12025C201.466 9.05286 201.323 8.99296 201.187 8.93306C201.164 8.92558 201.141 8.91809 201.126 8.90311C200.719 8.72342 200.319 8.54372 199.904 8.379C199.904 8.379 199.919 8.379 199.927 8.38648C200.674 8.71593 201.413 9.05286 202.145 9.39728C202.537 9.59944 202.937 9.8016 203.36 10.0112C203.36 10.0112 203.36 10.0112 203.367 10.0112C206.702 11.8531 209.78 14.3165 212.465 17.4163C213.009 18.0228 213.537 18.6517 214.035 19.3031C225.049 33.8511 225.117 56.0662 215.649 74.6648C212.926 80.0108 209.41 85.0573 205.155 89.5423H205.132L205.11 89.5647C203.737 91.0397 202.318 92.3575 200.855 93.6154C198.305 95.8242 195.664 97.6885 192.933 99.2684C181.805 105.745 169.674 107.063 159.399 103.102C163.284 102.001 166.905 99.5529 169.999 95.7194C171.221 94.2443 172.33 92.5597 173.378 90.6729C174.08 89.3925 174.729 88.0298 175.363 86.5773C175.295 86.5773 175.234 86.5997 175.166 86.5997C175.234 86.5772 175.295 86.5773 175.363 86.5548C176.758 83.2229 177.83 79.584 178.569 75.773C179.421 71.4677 179.859 66.9378 179.919 62.3256C179.942 59.3606 179.829 56.3507 179.55 53.3407C178.456 41.5182 174.97 29.6731 169.403 20.1492C168.248 18.1351 166.981 16.2482 165.63 14.4513C165.17 13.8673 164.718 13.2832 164.257 12.7217C161.662 9.60693 158.931 7.13609 156.14 5.33912C152.669 3.06295 149.116 1.83502 145.646 1.61789C144.748 1.57296 143.858 1.57296 142.982 1.66281C142.696 1.68527 142.417 1.7302 142.13 1.75266L136.238 2.74848L136.064 2.79341C135.959 2.81587 135.823 2.83833 135.717 2.86079C135.589 2.88326 135.453 2.90572 135.348 2.92818C133.099 3.40737 130.376 4.05129 128.15 4.5754C129.131 4.4032 130.135 4.33581 131.161 4.38073C134.39 4.53048 137.837 5.83329 141.33 8.29664C143.797 10.0262 146.279 12.3698 148.724 15.2674C149.335 15.9787 149.946 16.7424 150.534 17.5436C151.432 18.6891 152.277 19.9245 153.107 21.1824C159.716 31.253 164.431 44.1762 166.634 56.9497C167.132 59.8323 167.509 62.7075 167.728 65.5452C168.075 69.9178 168.12 74.1632 167.796 78.2138C167.509 81.8303 166.943 85.2969 166.076 88.4566V88.479C165.683 89.8867 165.246 91.2045 164.748 92.4399C164.031 94.2593 163.224 95.8841 162.303 97.3142C159.927 101.058 156.917 103.401 153.537 104.33L153.469 104.352C153.401 104.375 153.363 104.375 153.296 104.397C152.949 104.487 152.579 104.592 152.179 104.697C152.156 104.719 152.134 104.719 152.134 104.719C159.595 113.727 171.16 119.896 183.94 122.584C190.662 123.992 197.686 124.448 204.642 123.82C210.489 123.28 216.268 121.978 221.722 119.881C237.211 113.405 245.675 103.776 247.637 90.4333C247.66 90.2835 247.682 90.1338 247.705 89.9765C247.705 89.9091 247.705 89.8492 247.728 89.7819C247.75 89.0705 247.795 88.3293 247.818 87.5506C247.818 87.3335 247.841 87.1388 247.841 86.9441V86.7944C247.886 85.514 247.924 84.4583 247.946 83.5074C247.924 84.5033 247.893 85.6114 247.841 86.9292C247.841 86.9142 247.841 86.8992 247.841 86.8917C247.909 85.6338 247.961 84.4134 247.984 83.3128C248.029 81.6056 247.931 79.4043 247.826 77.5624V77.555Z" fill="url(#paint21_linear_1070_90883)"/>
<path id="Vector_23" d="M157.838 197.593C157.355 194.673 156.548 191.401 155.507 187.896C154.217 183.651 152.542 179.039 150.58 174.299C149.094 170.773 147.48 167.179 145.737 163.585C142.161 156.247 138.057 148.865 133.741 142.171C131.976 139.446 130.188 136.825 128.393 134.354C127.955 133.748 127.495 133.164 127.065 132.58C124.553 129.248 122.176 126.477 120.018 124.269L119.603 123.857L119.8 123.662C119.211 124.201 118.012 124.096 116.178 123.273C115.281 122.861 114.262 122.299 113.078 121.566C112.248 121.049 111.335 120.443 110.369 119.746H110.347C106.899 117.275 102.931 113.988 98.6303 110.132C87.4421 100.062 74.2848 86.1429 64.0548 73.4143C62.6817 71.7072 61.3464 69.9926 60.0865 68.3453C56.2464 63.2764 53.4098 59.0535 51.5765 55.7665C50.724 54.2316 50.0903 52.8839 49.6753 51.7608C49.0416 50.0686 48.936 48.8781 49.3283 48.2567C49.3509 48.2118 49.3509 48.1893 49.3736 48.1668C49.4188 48.1219 49.4792 48.062 49.5471 47.9946C49.4415 48.0845 49.3509 48.1668 49.2453 48.2567L47.8044 49.6194L45.8655 51.4388C45.6241 51.6784 45.36 51.918 45.1035 52.1726C45.1035 52.1726 45.0884 52.1801 45.0582 52.1951C44.515 52.7341 43.9643 53.2807 43.4438 53.8198C42.3347 54.9429 41.1956 56.1184 40.1922 57.1517C39.9507 57.4362 39.6867 57.6908 39.4302 57.9529C39.3397 58.0427 39.234 58.1475 39.1435 58.2524C39.0756 58.3197 39.0379 58.3796 38.9926 58.447C38.9473 58.4695 38.9247 58.5144 38.9021 58.5369C37.8987 59.922 37.8987 62.1982 38.9247 65.2306C39.4679 66.9003 40.343 68.8021 41.4973 70.906C43.0665 73.7213 45.1639 76.9034 47.8421 80.43C51.3577 85.0871 55.5222 89.8716 60.0563 94.5437C66.6048 101.32 73.885 107.856 81.0445 113.427C88.8303 119.492 96.4877 124.403 102.817 127.174H102.84C104.13 127.735 105.284 128.192 106.393 128.559C107.985 129.076 109.381 129.383 110.603 129.487C112.678 129.682 114.156 129.27 115.054 128.319L115.077 128.297C115.145 128.252 115.182 128.192 115.228 128.147C115.318 128.057 115.401 127.975 115.492 127.885L116.126 127.234L116.805 126.537C118.706 128.357 120.69 130.566 122.742 133.164C123.006 133.508 123.262 133.86 123.549 134.227C124.945 136.091 126.318 138.06 127.676 140.119C133.674 149.344 138.887 160.41 142.621 171.252C143.534 173.94 144.364 176.598 145.088 179.219C146.31 183.704 147.246 188.076 147.812 192.142C148.317 195.646 148.528 198.963 148.468 201.973C148.445 203.186 148.362 204.331 148.227 205.394C148.03 207.169 147.706 208.704 147.246 210.029C146.393 212.56 145.111 214.297 143.474 215.203C143.406 215.225 143.345 215.27 143.277 215.293C142.953 215.42 142.598 215.577 142.251 215.705C142.448 215.637 142.666 215.577 142.863 215.51L145.262 214.469H145.284C145.284 214.469 145.284 214.447 145.307 214.447C148.098 213.211 151.614 211.504 154.579 210.052C155.084 209.812 155.537 209.595 155.997 209.378C156.148 209.288 156.284 209.206 156.435 209.093C157.393 208.359 158.004 206.997 158.245 204.983C158.374 203.815 158.374 202.429 158.245 200.805C158.155 199.809 158.027 198.746 157.853 197.6L157.838 197.593Z" fill="url(#paint22_linear_1070_90883)"/>
<path id="Vector_24" d="M135.068 175.018C132.692 162.709 128.014 150.265 121.677 140.382C120.689 138.839 119.655 137.357 118.591 135.942C118.539 135.957 118.486 135.972 118.441 135.979C118.388 135.994 118.342 136.002 118.29 136.017C118.388 135.987 118.486 135.957 118.591 135.934C118.056 135.23 117.52 134.549 116.977 133.905C115.808 132.498 114.631 131.217 113.461 130.079C113.258 130.311 113.061 130.536 112.88 130.745C112.865 130.768 112.843 130.783 112.828 130.805C112.828 130.805 112.767 130.88 112.737 130.918C112.722 130.933 112.707 130.955 112.692 130.97C112.669 131 112.647 131.03 112.624 131.06C112.601 131.082 112.586 131.105 112.564 131.127C112.556 131.135 112.548 131.15 112.541 131.157C112.194 131.569 111.824 132.033 111.462 132.483C112.149 133.194 112.828 133.95 113.499 134.751C114.035 135.388 114.563 136.047 115.083 136.735C115.181 136.72 115.287 136.705 115.385 136.683C115.347 136.683 115.317 136.698 115.279 136.705C115.212 136.72 115.151 136.728 115.083 136.743C116.245 138.27 117.339 139.895 118.373 141.595C124.325 151.366 128.143 163.675 129.44 175.947C129.727 178.695 129.893 181.443 129.931 184.153C129.991 188.87 129.651 193.49 128.897 197.862C128.241 201.673 127.267 205.305 125.962 208.652C126.09 208.629 126.219 208.607 126.339 208.584C126.211 208.607 126.083 208.629 125.955 208.652C125.411 210.052 124.815 211.362 124.189 212.59C123.141 214.642 121.979 216.454 120.726 218.026C117.679 221.844 114.087 224.248 110.217 225.206L109.832 225.266C109.131 225.386 108.437 225.506 107.758 225.611C108.158 225.573 108.558 225.528 108.957 225.461C108.957 225.461 108.957 225.461 108.965 225.461H109.01L112.02 224.907C112.096 224.892 112.179 224.869 112.254 224.854C112.292 224.854 112.33 224.839 112.367 224.832C112.435 224.817 112.503 224.81 112.571 224.795C112.933 224.72 113.31 224.637 113.703 224.555C114.751 224.353 115.785 224.143 116.796 223.919C118.048 223.641 119.308 223.342 120.432 223.035C120.674 222.968 120.923 222.9 121.156 222.833C121.602 222.706 122.032 222.586 122.454 222.458C122.552 222.436 122.65 222.414 122.741 222.384C123.201 222.256 123.676 222.129 124.159 221.994C124.302 221.949 124.446 221.897 124.589 221.844C124.612 221.837 124.634 221.822 124.657 221.815C127.396 220.751 129.81 218.625 131.764 215.435C132.684 213.93 133.499 212.193 134.193 210.217C134.6 209.071 134.963 207.843 135.279 206.54C136.064 203.343 136.539 199.862 136.728 196.193C136.947 191.947 136.773 187.462 136.26 182.865C135.966 180.275 135.566 177.646 135.053 175.011L135.068 175.018Z" fill="url(#paint23_linear_1070_90883)"/>
<path id="Vector_25" d="M113.393 209.745C115.491 206.173 117.166 202.317 118.501 198.244C120.183 193.071 121.247 187.59 121.707 182.027C122.009 178.171 122.054 174.277 121.798 170.421C121.209 161.826 119.18 153.447 115.755 146.17C114.533 143.527 113.114 141.041 111.522 138.72C111.13 138.181 110.76 137.656 110.368 137.14C109.953 136.601 109.538 136.077 109.101 135.56C109.229 135.41 109.342 135.238 109.448 135.081L109.666 134.759C108.731 136.039 107.396 137.057 105.676 137.724C104.8 138.068 103.842 138.33 102.794 138.525C102.688 138.525 102.597 138.547 102.507 138.57C101.413 138.72 100.259 138.809 98.9762 138.787C97.3165 138.787 95.5058 138.615 93.5443 138.285C74.1706 135.013 46.9658 117.178 32.7674 98.4674C32.262 97.7936 31.7867 97.1497 31.3265 96.4983C29.1009 93.3386 27.4185 90.3736 26.2643 87.6632C23.9708 82.2498 23.752 77.8098 25.5249 74.7399C25.5928 74.6126 25.6758 74.4779 25.7663 74.3506L23.3446 77.7049L23.2164 77.8996C23.2164 77.8996 23.1711 77.9445 23.1485 77.9894C23.1258 78.0344 23.0806 78.0793 23.0428 78.1392C22.6279 78.7457 22.213 79.3971 21.7528 80.0635C21.1869 80.9095 20.5759 81.8155 19.9874 82.729C19.3537 83.7248 18.7426 84.7431 18.1315 85.7389C18.0862 85.8063 18.0636 85.8437 18.0259 85.8886L17.9354 86.0609C17.9127 86.1058 17.8901 86.1282 17.8675 86.1657C17.8448 86.2106 17.7996 86.2705 17.7769 86.3154C17.7543 86.3379 17.7543 86.3603 17.7317 86.3603C17.6864 86.4502 17.6638 86.5101 17.626 86.5775C17.6034 86.5775 17.6034 86.5999 17.6034 86.5999C17.4978 86.8171 17.3846 87.0118 17.279 87.2289C14.7894 92.1631 15.6193 98.9616 20.093 106.696C21.119 108.448 22.296 110.223 23.6917 112.065C25.3288 114.228 27.162 116.355 29.1688 118.406C44.4385 134.167 69.1159 146.312 87.9615 146.641C90.7077 146.709 93.1973 146.492 95.4229 146.057C98.848 145.383 101.617 144.17 103.737 142.508C103.759 142.486 103.782 142.463 103.827 142.441C108.52 159.677 99.6854 180.005 80.4399 192.389V192.412C78.0634 193.947 75.5964 195.294 73.0842 196.485C69.0027 198.387 64.8156 199.839 60.5833 200.835C41.4736 205.275 21.9489 200.184 11.4774 186.369C10.3684 184.894 9.38012 183.359 8.53516 181.78C8.95009 182.626 9.3424 183.359 9.68943 184.033C10.5646 185.658 11.2813 186.938 12.1112 188.256C13.1824 189.948 14.4273 191.7 16.2756 194.358C16.2982 194.381 16.2982 194.403 16.3209 194.426C16.3661 194.471 16.3888 194.516 16.4491 194.576C16.8188 195.055 17.2337 195.594 17.6713 196.11C17.9354 196.432 18.2145 196.762 18.5012 197.061C29.8704 209.73 49.2366 212.935 67.5014 206.331C70.9718 205.073 74.3969 203.448 77.7315 201.501C79.7156 200.311 81.6771 199.008 83.5783 197.563C83.5104 197.496 83.4727 197.413 83.4048 197.323C84.3855 197.451 85.2154 195.893 85.9774 195.287L87.7428 193.752C87.9389 193.58 88.1351 193.408 88.3312 193.235C88.6556 192.951 88.9423 192.651 89.2441 192.344C89.312 192.299 89.3723 192.239 89.4402 192.172C89.7269 191.888 90.006 191.633 90.2927 191.348L90.5341 191.109C90.7303 190.892 90.9491 190.675 91.1452 190.48C91.2509 190.375 91.364 190.24 91.4545 190.136C91.6281 189.963 91.8016 189.769 91.9751 189.596C92.0807 189.469 92.1939 189.357 92.2995 189.23C92.4504 189.057 92.6239 188.885 92.7823 188.69C92.888 188.586 93.0011 188.451 93.1068 188.324C93.2576 188.151 93.4085 187.957 93.567 187.784C93.6726 187.657 93.7857 187.545 93.8914 187.418C93.9366 187.373 93.9593 187.328 93.997 187.268C94.1252 187.141 94.2384 186.983 94.344 186.856C94.4345 186.729 94.5402 186.616 94.6307 186.489C94.8042 186.294 94.9551 186.1 95.1135 185.883C95.2041 185.778 95.2871 185.666 95.3776 185.561C95.5737 185.299 95.7699 185.044 95.966 184.782C96.0113 184.737 96.0566 184.677 96.0717 184.632C96.2678 184.348 96.464 184.093 96.6601 183.809C96.7054 183.764 96.7506 183.719 96.7657 183.681C96.8336 183.592 96.894 183.487 96.9619 183.397C97.0298 183.307 97.0675 183.225 97.1354 183.135C97.158 183.112 97.1807 183.067 97.2259 183.03C97.2712 182.963 97.3165 182.903 97.3316 182.835C97.3768 182.79 97.3995 182.745 97.4221 182.73C97.5126 182.603 97.5956 182.468 97.6635 182.364C97.7691 182.214 97.8823 182.064 97.9653 181.907C97.9879 181.862 98.0105 181.817 98.0558 181.78C98.0558 181.78 98.0558 181.757 98.0784 181.757C98.1011 181.69 98.1463 181.63 98.1841 181.562C98.2293 181.495 98.2746 181.435 98.3123 181.368C98.4406 181.173 98.5537 180.978 98.682 180.784C98.7046 180.739 98.7499 180.679 98.7725 180.634C98.7725 180.634 98.7952 180.612 98.7952 180.589C98.8404 180.522 98.8857 180.439 98.9234 180.372C99.0517 180.177 99.1648 179.983 99.2704 179.788C99.361 179.661 99.4213 179.526 99.5119 179.399C99.5345 179.354 99.5798 179.309 99.6024 179.249C99.625 179.226 99.6477 179.181 99.6477 179.159C99.6929 179.092 99.7382 179.032 99.7759 178.942C99.7985 178.897 99.8438 178.837 99.8664 178.77C99.957 178.642 100.017 178.508 100.085 178.38C100.13 178.313 100.153 178.275 100.191 178.208C100.213 178.163 100.236 178.103 100.259 178.058C100.327 177.969 100.364 177.886 100.41 177.796C100.432 177.774 100.432 177.751 100.455 177.729C100.5 177.602 100.561 177.489 100.628 177.384C100.651 177.34 100.674 177.28 100.719 177.235C100.787 177.107 100.847 176.973 100.915 176.845C100.96 176.756 101.006 176.651 101.066 176.561C101.066 176.516 101.089 176.493 101.111 176.456C101.111 176.434 101.134 176.411 101.157 176.389C101.179 176.344 101.202 176.299 101.224 176.261C101.292 176.112 101.353 175.962 101.421 175.827C101.488 175.677 101.571 175.52 101.639 175.37C101.639 175.37 101.662 175.348 101.662 175.325C101.685 175.281 101.707 175.258 101.707 175.221C101.775 175.093 101.836 174.959 101.903 174.831C101.926 174.764 101.949 174.704 101.994 174.659C102.017 174.554 102.062 174.442 102.122 174.352C102.122 174.33 102.145 174.285 102.145 174.262C102.167 174.217 102.167 174.195 102.19 174.172C102.213 174.105 102.235 174.068 102.258 174.023C102.303 173.955 102.326 173.895 102.349 173.828C102.439 173.656 102.499 173.506 102.567 173.334C102.59 173.266 102.635 173.184 102.658 173.117C102.703 173.027 102.726 172.967 102.748 172.9C102.771 172.877 102.794 172.855 102.794 172.832C102.794 172.81 102.794 172.787 102.816 172.765C102.839 172.72 102.862 172.66 102.884 172.615C102.929 172.525 102.952 172.443 102.975 172.353C102.997 172.331 102.997 172.308 102.997 172.286C103.043 172.218 103.088 172.136 103.103 172.046C103.126 171.956 103.171 171.896 103.193 171.806C103.239 171.679 103.299 171.544 103.344 171.395C103.39 171.327 103.412 171.245 103.435 171.155C103.458 171.088 103.503 171.05 103.525 170.983C103.548 170.915 103.548 170.878 103.571 170.811C103.639 170.661 103.676 170.511 103.744 170.354C103.789 170.227 103.835 170.092 103.872 169.942C103.872 169.942 103.88 169.927 103.895 169.897C103.986 169.635 104.091 169.358 104.159 169.096C104.204 168.969 104.227 168.834 104.265 168.707C104.287 168.662 104.31 168.639 104.31 168.617C104.378 168.377 104.438 168.16 104.506 167.943C104.529 167.876 104.551 167.816 104.574 167.748C104.597 167.681 104.597 167.643 104.619 167.576C104.71 167.291 104.816 166.992 104.883 166.707C104.929 166.558 104.974 166.423 104.989 166.296C105.095 165.929 105.185 165.584 105.253 165.232C105.321 165.038 105.359 164.843 105.381 164.648C105.487 164.304 105.555 163.952 105.6 163.608C105.623 163.458 105.668 163.308 105.691 163.151C105.691 163.129 105.691 163.106 105.713 163.061C105.736 162.889 105.781 162.717 105.804 162.544C105.894 162.2 105.932 161.833 105.977 161.481C106 161.414 106 161.354 106 161.287C106.045 161.069 106.068 160.875 106.09 160.658C106.09 160.613 106.09 160.553 106.113 160.508C106.113 160.441 106.136 160.381 106.136 160.313C106.158 160.164 106.181 159.991 106.204 159.812L106.272 159.1C106.294 159.033 106.294 158.995 106.294 158.928V158.906C106.317 158.838 106.317 158.801 106.317 158.733C106.317 158.688 106.317 158.644 106.339 158.629V158.411C106.362 158.322 106.362 158.262 106.362 158.172C106.385 158.067 106.385 157.977 106.385 157.872C106.385 157.805 106.407 157.745 106.407 157.655V157.461C106.43 157.356 106.43 157.243 106.43 157.161V157.056C106.453 156.989 106.453 156.906 106.453 156.839V156.495C106.475 156.405 106.475 156.322 106.475 156.233V155.798C106.475 155.694 106.498 155.559 106.498 155.431V154.368C106.498 154.278 106.498 154.219 106.475 154.129V153.455C106.453 153.41 106.453 153.35 106.453 153.305V153.133C106.453 153.028 106.43 152.893 106.43 152.766V152.661C106.43 152.631 106.422 152.609 106.407 152.594V152.571C106.407 152.571 106.407 152.526 106.407 152.481V152.264C106.407 152.219 106.407 152.174 106.385 152.137V152.115C106.385 152.025 106.385 151.942 106.362 151.83C106.362 151.725 106.362 151.635 106.339 151.531C106.339 151.441 106.339 151.358 106.317 151.246V151.156C106.317 151.111 106.294 151.066 106.294 151.029V150.902C106.294 150.902 106.272 150.834 106.272 150.774C106.272 150.729 106.272 150.684 106.249 150.647V150.602C106.226 150.497 106.226 150.363 106.204 150.258V150.153C106.181 150.026 106.158 149.891 106.136 149.764V149.614C106.113 149.546 106.113 149.486 106.09 149.419C106.09 149.352 106.09 149.314 106.068 149.247C106.068 149.202 106.068 149.157 106.045 149.12C106.045 149.015 106.023 148.88 106 148.775C106 148.753 106 148.708 105.977 148.685C105.955 148.536 105.932 148.401 105.909 148.251V148.229C105.909 148.184 105.887 148.161 105.887 148.124V148.079C105.864 147.989 105.842 147.884 105.819 147.779C105.796 147.607 105.751 147.435 105.713 147.263C105.713 147.195 105.691 147.135 105.691 147.068C105.668 147.023 105.668 146.963 105.645 146.918C105.645 146.851 105.623 146.791 105.623 146.724C105.577 146.574 105.555 146.439 105.517 146.289C105.494 146.2 105.494 146.14 105.472 146.05C105.449 145.982 105.427 145.923 105.404 145.833C105.381 145.743 105.359 145.66 105.336 145.571C105.336 145.503 105.313 145.466 105.291 145.398C105.291 145.353 105.268 145.294 105.268 145.249C105.223 145.121 105.2 144.987 105.163 144.859C105.117 144.71 105.072 144.56 105.034 144.403C105.034 144.38 105.034 144.358 105.012 144.335C105.012 144.268 104.989 144.185 104.966 144.118C104.944 144.096 104.944 144.051 104.944 144.051C104.944 144.028 104.944 144.006 104.921 143.983L104.898 143.961C104.898 143.961 104.898 143.893 104.876 143.871C104.808 143.631 104.748 143.414 104.657 143.175L104.831 142.808L105.547 141.4C111.847 154.78 110.519 171.926 102.575 186.856C99.3836 192.861 95.1211 198.506 89.8552 203.403C89.8778 203.418 89.8929 203.433 89.9155 203.441C89.8929 203.426 89.8778 203.418 89.8552 203.403C88.2935 204.788 86.7167 206.069 85.1249 207.259C82.3486 209.333 79.5346 211.108 76.7054 212.59C62.7485 219.868 48.2936 219.898 35.4834 212.343C35.4004 212.291 35.3174 212.238 35.2269 212.193C35.34 212.268 35.4532 212.351 35.5664 212.425C35.9436 212.688 36.3133 212.935 36.6603 213.174C36.8187 213.279 36.9847 213.384 37.1507 213.489C37.2337 213.541 37.3091 213.593 37.3921 213.638C37.5354 213.728 37.6863 213.818 37.8372 213.915C38.4558 214.305 39.0669 214.672 39.6478 215.001C39.7308 215.046 39.8138 215.098 39.8968 215.143C40.5683 215.518 41.3227 215.945 42.0997 216.371C42.1224 216.386 42.1525 216.401 42.1752 216.416C42.7486 216.723 43.3144 217.015 43.8727 217.307C44.9439 217.869 45.9549 218.348 47.2223 218.917C47.9089 219.224 48.6784 219.561 49.5761 219.95C49.6365 219.98 49.6969 220.003 49.7572 220.025C49.727 220.01 49.6893 219.995 49.6591 219.98C48.9726 219.688 48.3012 219.374 47.6297 219.037C49.1989 219.703 50.8964 220.392 52.5561 221.036C62.2958 224.076 73.4538 222.451 83.6839 216.289C86.3848 214.664 89.0253 212.725 91.5526 210.464C92.9332 209.228 94.2837 207.903 95.5888 206.488C95.5511 206.473 95.5134 206.451 95.4681 206.436C95.5058 206.451 95.5511 206.473 95.5888 206.488C99.7457 201.981 103.148 196.912 105.789 191.543C110.262 182.424 112.503 172.458 112.345 162.949C112.307 160.665 112.133 158.411 111.817 156.203C110.979 150.333 109.161 144.784 106.324 139.88C106.498 139.581 106.671 139.296 106.83 139.012C106.875 138.989 106.875 138.944 106.898 138.922C106.988 138.795 107.071 138.66 107.139 138.532L107.796 137.514C108.867 138.967 109.848 140.524 110.715 142.126C113.242 146.694 115.053 151.808 116.147 157.199C116.321 158.127 116.494 159.063 116.653 160.014C117.611 166.138 117.679 172.57 116.871 178.934C116.087 185.037 114.517 191.101 112.156 196.799C110.345 201.172 108.052 205.327 105.306 209.116C104.235 210.591 103.126 211.976 101.986 213.249C100.025 215.458 97.9728 217.382 95.8378 219.029C88.5953 224.637 80.5002 227.086 72.7749 226.217C74.2611 226.412 75.785 226.584 77.2034 226.734H77.2713C77.4222 226.756 77.5579 226.779 77.6862 226.779C78.0106 226.824 78.3426 226.846 78.6443 226.884C78.8178 226.884 78.9914 226.906 79.1649 226.906C79.3761 226.921 79.6025 226.929 79.8288 226.943C79.5949 226.929 79.3686 226.921 79.1573 226.906C79.9193 226.966 80.719 227.026 81.5338 227.071C82.507 227.131 83.45 227.183 84.2875 227.198C84.3327 227.198 84.378 227.198 84.4233 227.198C84.5666 227.198 84.7099 227.206 84.8533 227.213C84.9665 227.213 85.0796 227.213 85.1928 227.221C85.321 227.221 85.4417 227.221 85.57 227.228C85.8416 227.228 86.1132 227.235 86.3697 227.243C86.5583 227.243 86.7545 227.243 86.9431 227.243C87.026 227.243 87.1015 227.243 87.1845 227.243C87.1996 227.243 87.2222 227.243 87.2373 227.243H87.8031C88.301 227.243 88.8065 227.221 89.2893 227.176C95.0305 226.741 100.681 224.166 105.698 219.509C107.418 217.906 109.078 216.042 110.647 213.923C111.605 212.605 112.526 211.198 113.416 209.7L113.393 209.745Z" fill="url(#paint24_linear_1070_90883)"/>
<path id="Vector_26" d="M8.46687 181.697C8.46687 181.697 8.50446 181.764 8.5195 181.794C8.47439 181.697 8.42176 181.599 8.36914 181.495C8.39921 181.562 8.42928 181.629 8.46687 181.689V181.697Z" fill="url(#paint25_linear_1070_90883)"/>
<path id="Vector_27" d="M233.342 35.5059C233.893 36.2845 234.406 37.0857 234.888 37.8943C234.421 37.1681 233.915 36.3819 233.342 35.5059Z" fill="url(#paint26_linear_1070_90883)"/>
<path id="Vector_28" d="M237.595 121.139C233.377 125.332 227.357 128.619 219.737 130.498C210.111 132.872 199.383 132.647 189.062 130.341C181.11 128.559 173.393 125.542 166.61 121.514C160.122 117.658 154.494 112.881 150.322 107.377C150.322 107.385 150.322 107.4 150.315 107.407C150.315 107.4 150.314 107.385 150.322 107.377C149.892 106.816 149.485 106.247 149.1 105.678C148.655 105.835 148.134 106.015 147.516 106.232C147.221 106.344 146.904 106.471 146.58 106.599C147.357 107.872 148.225 109.152 149.205 110.44C149.228 110.38 149.251 110.327 149.281 110.268C149.258 110.327 149.236 110.38 149.213 110.44C151.295 113.18 153.725 115.793 156.418 118.249C160.733 122.172 165.743 125.684 171.152 128.657C185.426 136.503 202.461 140.614 216.772 138.675C216.938 138.285 217.112 137.896 217.27 137.514C217.112 137.903 216.946 138.285 216.78 138.675C221.329 138.061 225.267 136.878 228.541 135.23C232.547 133.216 235.573 130.513 237.534 127.316C237.587 127.234 237.64 127.144 237.693 127.062C237.896 126.717 238.077 126.373 238.258 126.021C238.304 125.924 238.356 125.834 238.402 125.736C238.5 125.534 238.598 125.325 238.688 125.115C238.696 125.1 238.703 125.078 238.711 125.055C239.058 124.194 239.413 123.266 239.782 122.3C239.843 122.135 239.911 121.963 239.979 121.791C241.11 118.803 242.295 115.516 243.275 112.604C243.29 112.566 243.306 112.521 243.321 112.484C243.321 112.499 243.306 112.514 243.298 112.536C242.106 115.673 240.197 118.579 237.617 121.147L237.595 121.139Z" fill="url(#paint27_linear_1070_90883)"/>
<path id="Vector_29" d="M49.8708 190.794C55.5668 190.704 61.3457 189.888 66.9511 188.264C70.7233 187.178 74.4125 185.755 77.9658 183.958C95.4007 175.168 104.778 160.014 103.843 145.286C103.797 144.807 103.775 144.335 103.715 143.878C103.737 144.223 103.737 144.552 103.76 145.136V145.181C101.821 149.015 98.5467 152.279 94.005 154.705C90.6704 156.48 86.6342 157.805 81.9869 158.539H81.9643C68.2638 160.725 52.1643 157.438 38.2903 150.572C31.7268 147.345 25.6838 143.294 20.6442 138.645C18.1546 136.369 15.9064 133.928 13.9675 131.367C7.35872 122.644 5.43492 114.049 7.63786 106.966C7.68312 106.861 7.70576 106.726 7.74348 106.621C7.74348 106.599 7.76611 106.576 7.76611 106.554C7.76611 106.531 7.78874 106.509 7.78874 106.486C7.93963 106.075 8.09052 105.685 8.27158 105.296C8.14332 105.58 8.03016 105.88 7.90191 106.164C7.66049 106.771 7.41907 107.377 7.1852 107.961C7.16257 108.006 7.16257 108.051 7.13993 108.089C7.1173 108.134 7.09467 108.179 7.09467 108.216C6.89852 108.755 6.70236 109.302 6.48358 109.863C6.31006 110.32 6.15917 110.792 5.97811 111.293C5.84986 111.705 5.69143 112.094 5.56317 112.461C4.88419 114.408 4.12221 116.961 3.55639 119.065C3.51113 119.282 3.45077 119.499 3.40551 119.694C3.38287 119.739 3.38287 119.799 3.36024 119.844V119.911C3.36024 119.911 3.33761 119.934 3.33761 119.956C0.199178 135.418 11.0177 150.205 27.6378 159.272C34.4654 162.994 42.2737 165.772 50.5046 167.217C59.8444 168.864 69.7048 168.841 79.2559 166.633H79.2785C89.6444 163.817 95.5742 159.1 99.0219 154.743C101.987 150.976 103.149 147.487 103.737 145.645C103.609 149.546 102.56 154.952 98.8032 160.605C95.0536 166.281 88.5957 172.188 77.6414 177.107H77.6188C72.4509 179.054 67.1926 180.334 61.9794 181.001C54.7822 181.952 47.6905 181.757 40.9912 180.612C18.9317 176.808 1.39118 162.41 0.169001 142.905C0.146368 142.561 0.146368 142.194 0.123735 141.819V142.231C0.123735 142.336 0.101102 142.448 0.101102 142.553V142.748C0.0784689 143.032 0.0784689 143.309 0.0784689 143.594L0.0332031 144.395C0.0332031 144.522 0.055836 144.635 0.055836 144.739C0.0332031 145.174 0.0332031 145.608 0.0332031 146.035C0.055836 146.731 0.0784689 147.442 0.123735 148.154C0.146368 148.348 0.146368 148.565 0.146368 148.76C0.169001 149.022 0.169001 149.262 0.191633 149.494V149.793C0.191633 149.943 0.191633 150.093 0.214266 150.25V150.4C0.236899 150.662 0.236899 150.902 0.259532 151.156C0.282165 151.418 0.304798 151.695 0.327431 152.002V152.047C0.350064 152.219 0.372697 152.392 0.372697 152.549C0.395329 152.743 0.417962 152.938 0.440595 153.133C0.463228 153.327 0.485861 153.545 0.508494 153.739C0.531127 153.956 0.55376 154.174 0.576393 154.391C0.576393 154.413 0.599026 154.458 0.599026 154.496C0.621659 154.758 0.666924 155.012 0.689557 155.274C0.71219 155.469 0.734823 155.686 0.780089 155.881V155.986C0.802722 156.158 0.825355 156.307 0.847987 156.487C0.847987 156.577 0.87062 156.637 0.87062 156.727V156.794L0.961152 157.333V157.378C0.961152 157.423 0.983785 157.446 0.983785 157.468C1.76839 162.754 3.90343 167.905 7.48697 172.645C16.608 184.662 32.8811 191.049 49.901 190.787L49.8708 190.794Z" fill="url(#paint28_linear_1070_90883)"/>
<path id="Vector_30" d="M165.601 0.607104C165.752 0.629566 165.903 0.652028 166.061 0.674491C169.878 1.15368 173.628 2.57629 177.189 4.9423C180.267 7.00133 183.187 9.7492 185.827 13.2383C186.152 13.6726 186.483 14.1443 186.808 14.601C188.513 17.0045 189.992 19.6251 191.259 22.3954C194.684 29.8678 196.623 38.4858 197 47.2984C197.151 50.825 197.068 54.3815 196.714 57.9081C196.193 63.3888 195.054 68.7797 193.334 73.8861C191.893 78.109 190.037 82.1372 187.774 85.8136C186.876 87.311 185.918 88.6962 184.914 89.9915C183.405 91.9607 181.791 93.7352 180.116 95.2926C174.164 100.773 167.351 103.476 160.591 103.327C160.501 103.312 160.41 103.297 160.32 103.282L160.591 103.327H160.252C160.38 103.327 160.554 103.327 160.667 103.349C169.109 104.824 178.185 102.443 186.235 96.2884C188.332 94.7086 190.339 92.8667 192.255 90.7927C193.432 89.4899 194.571 88.1272 195.703 86.6596H195.725V86.6372C198.713 82.6314 201.202 78.2363 203.164 73.6016C205.676 67.6492 207.306 61.3223 208.053 54.958C209.494 42.8959 207.728 30.7064 202.666 20.8755C201.512 18.6442 200.199 16.5253 198.72 14.5711C196.691 11.8831 194.465 9.65935 192.089 7.81746C188.339 4.93481 184.235 3.1004 179.935 2.23187C179.867 2.2094 179.784 2.18694 179.694 2.16448L178.426 1.96981C177.4 1.7976 176.374 1.60293 175.348 1.45318C174.843 1.38579 174.345 1.32589 173.884 1.25851C173.643 1.23604 173.379 1.21358 173.123 1.19112C171.727 1.01891 170.331 0.891625 168.913 0.756852C168.671 0.73439 168.415 0.73439 168.173 0.711927C167.781 0.667003 167.389 0.644541 166.974 0.622079C166.883 0.622079 166.778 0.599617 166.687 0.599617H166.446C166.099 0.577155 165.729 0.554692 165.352 0.53223C165.05 0.509768 164.718 0.509768 164.371 0.487306C163.851 0.487306 163.277 0.464844 162.734 0.464844C163.217 0.487306 163.715 0.509768 164.243 0.53223C164.68 0.554692 165.156 0.577155 165.616 0.599617L165.601 0.607104Z" fill="url(#paint29_linear_1070_90883)"/>
</g>
</g>
</g>
</g>
<defs>
<linearGradient id="paint0_linear_1070_90883" x1="234.412" y1="83.5072" x2="96.7363" y2="83.5072" gradientUnits="userSpaceOnUse">
<stop stop-color="#5050A1"/>
<stop offset="0.29" stop-color="#69549A"/>
<stop offset="0.38" stop-color="#7E599C"/>
<stop offset="0.53" stop-color="#9960A0"/>
<stop offset="0.61" stop-color="#A363A2"/>
<stop offset="0.62" stop-color="#A363A2"/>
<stop offset="0.87" stop-color="#C77FB7"/>
<stop offset="1" stop-color="#D58ABF"/>
</linearGradient>
<linearGradient id="paint1_linear_1070_90883" x1="67.1246" y1="35.3712" x2="67.1094" y2="35.3712" gradientUnits="userSpaceOnUse">
<stop stop-color="#5050A1"/>
<stop offset="0.29" stop-color="#69549A"/>
<stop offset="0.38" stop-color="#7E599C"/>
<stop offset="0.53" stop-color="#9960A0"/>
<stop offset="0.61" stop-color="#A363A2"/>
<stop offset="0.62" stop-color="#A363A2"/>
<stop offset="0.87" stop-color="#C77FB7"/>
<stop offset="1" stop-color="#D58ABF"/>
</linearGradient>
<linearGradient id="paint2_linear_1070_90883" x1="212.683" y1="113.225" x2="67.1236" y2="113.225" gradientUnits="userSpaceOnUse">
<stop stop-color="#5050A1"/>
<stop offset="0.29" stop-color="#69549A"/>
<stop offset="0.38" stop-color="#7E599C"/>
<stop offset="0.53" stop-color="#9960A0"/>
<stop offset="0.61" stop-color="#A363A2"/>
<stop offset="0.62" stop-color="#A363A2"/>
<stop offset="0.87" stop-color="#C77FB7"/>
<stop offset="1" stop-color="#D58ABF"/>
</linearGradient>
<linearGradient id="paint3_linear_1070_90883" x1="213.146" y1="167.433" x2="212.686" y2="167.433" gradientUnits="userSpaceOnUse">
<stop stop-color="#5050A1"/>
<stop offset="0.29" stop-color="#69549A"/>
<stop offset="0.38" stop-color="#7E599C"/>
<stop offset="0.53" stop-color="#9960A0"/>
<stop offset="0.61" stop-color="#A363A2"/>
<stop offset="0.62" stop-color="#A363A2"/>
<stop offset="0.87" stop-color="#C77FB7"/>
<stop offset="1" stop-color="#D58ABF"/>
</linearGradient>
<linearGradient id="paint4_linear_1070_90883" x1="10.0978" y1="179.877" x2="8.84543" y2="179.877" gradientUnits="userSpaceOnUse">
<stop stop-color="#5050A1"/>
<stop offset="0.29" stop-color="#69549A"/>
<stop offset="0.38" stop-color="#7E599C"/>
<stop offset="0.53" stop-color="#9960A0"/>
<stop offset="0.61" stop-color="#A363A2"/>
<stop offset="0.62" stop-color="#A363A2"/>
<stop offset="0.87" stop-color="#C77FB7"/>
<stop offset="1" stop-color="#D58ABF"/>
</linearGradient>
<linearGradient id="paint5_linear_1070_90883" x1="105.645" y1="143.384" x2="105.562" y2="143.384" gradientUnits="userSpaceOnUse">
<stop stop-color="#5050A1"/>
<stop offset="0.29" stop-color="#69549A"/>
<stop offset="0.38" stop-color="#7E599C"/>
<stop offset="0.53" stop-color="#9960A0"/>
<stop offset="0.61" stop-color="#A363A2"/>
<stop offset="0.62" stop-color="#A363A2"/>
<stop offset="0.87" stop-color="#C77FB7"/>
<stop offset="1" stop-color="#D58ABF"/>
</linearGradient>
<linearGradient id="paint6_linear_1070_90883" x1="249.96" y1="63.0815" x2="130.111" y2="63.0815" gradientUnits="userSpaceOnUse">
<stop stop-color="#5050A1"/>
<stop offset="0.29" stop-color="#69549A"/>
<stop offset="0.38" stop-color="#7E599C"/>
<stop offset="0.53" stop-color="#9960A0"/>
<stop offset="0.61" stop-color="#A363A2"/>
<stop offset="0.62" stop-color="#A363A2"/>
<stop offset="0.87" stop-color="#C77FB7"/>
<stop offset="1" stop-color="#D58ABF"/>
</linearGradient>
<linearGradient id="paint7_linear_1070_90883" x1="160.297" y1="132.078" x2="40.1089" y2="132.078" gradientUnits="userSpaceOnUse">
<stop stop-color="#5050A1"/>
<stop offset="0.29" stop-color="#69549A"/>
<stop offset="0.38" stop-color="#7E599C"/>
<stop offset="0.53" stop-color="#9960A0"/>
<stop offset="0.61" stop-color="#A363A2"/>
<stop offset="0.62" stop-color="#A363A2"/>
<stop offset="0.87" stop-color="#C77FB7"/>
<stop offset="1" stop-color="#D58ABF"/>
</linearGradient>
<linearGradient id="paint8_linear_1070_90883" x1="138.802" y1="178.08" x2="109.741" y2="178.08" gradientUnits="userSpaceOnUse">
<stop stop-color="#5050A1"/>
<stop offset="0.29" stop-color="#69549A"/>
<stop offset="0.38" stop-color="#7E599C"/>
<stop offset="0.53" stop-color="#9960A0"/>
<stop offset="0.61" stop-color="#A363A2"/>
<stop offset="0.62" stop-color="#A363A2"/>
<stop offset="0.87" stop-color="#C77FB7"/>
<stop offset="1" stop-color="#D58ABF"/>
</linearGradient>
<linearGradient id="paint9_linear_1070_90883" x1="123.932" y1="151.059" x2="10.4888" y2="151.059" gradientUnits="userSpaceOnUse">
<stop stop-color="#5050A1"/>
<stop offset="0.29" stop-color="#69549A"/>
<stop offset="0.38" stop-color="#7E599C"/>
<stop offset="0.53" stop-color="#9960A0"/>
<stop offset="0.61" stop-color="#A363A2"/>
<stop offset="0.62" stop-color="#A363A2"/>
<stop offset="0.87" stop-color="#C77FB7"/>
<stop offset="1" stop-color="#D58ABF"/>
</linearGradient>
<linearGradient id="paint10_linear_1070_90883" x1="10.488" y1="181.884" x2="10.3376" y2="181.884" gradientUnits="userSpaceOnUse">
<stop stop-color="#5050A1"/>
<stop offset="0.29" stop-color="#69549A"/>
<stop offset="0.38" stop-color="#7E599C"/>
<stop offset="0.53" stop-color="#9960A0"/>
<stop offset="0.61" stop-color="#A363A2"/>
<stop offset="0.62" stop-color="#A363A2"/>
<stop offset="0.87" stop-color="#C77FB7"/>
<stop offset="1" stop-color="#D58ABF"/>
</linearGradient>
<linearGradient id="paint11_linear_1070_90883" x1="236.857" y1="36.9356" x2="235.311" y2="36.9356" gradientUnits="userSpaceOnUse">
<stop stop-color="#5050A1"/>
<stop offset="0.29" stop-color="#69549A"/>
<stop offset="0.38" stop-color="#7E599C"/>
<stop offset="0.53" stop-color="#9960A0"/>
<stop offset="0.61" stop-color="#A363A2"/>
<stop offset="0.62" stop-color="#A363A2"/>
<stop offset="0.87" stop-color="#C77FB7"/>
<stop offset="1" stop-color="#D58ABF"/>
</linearGradient>
<linearGradient id="paint12_linear_1070_90883" x1="245.261" y1="122.651" x2="148.543" y2="122.651" gradientUnits="userSpaceOnUse">
<stop stop-color="#5050A1"/>
<stop offset="0.29" stop-color="#69549A"/>
<stop offset="0.38" stop-color="#7E599C"/>
<stop offset="0.53" stop-color="#9960A0"/>
<stop offset="0.61" stop-color="#A363A2"/>
<stop offset="0.62" stop-color="#A363A2"/>
<stop offset="0.87" stop-color="#C77FB7"/>
<stop offset="1" stop-color="#D58ABF"/>
</linearGradient>
<linearGradient id="paint13_linear_1070_90883" x1="105.872" y1="148.288" x2="2.00949" y2="148.288" gradientUnits="userSpaceOnUse">
<stop stop-color="#5050A1"/>
<stop offset="0.29" stop-color="#69549A"/>
<stop offset="0.38" stop-color="#7E599C"/>
<stop offset="0.53" stop-color="#9960A0"/>
<stop offset="0.61" stop-color="#A363A2"/>
<stop offset="0.62" stop-color="#A363A2"/>
<stop offset="0.87" stop-color="#C77FB7"/>
<stop offset="1" stop-color="#D58ABF"/>
</linearGradient>
<linearGradient id="paint14_linear_1070_90883" x1="210.489" y1="52.3597" x2="162.206" y2="52.3597" gradientUnits="userSpaceOnUse">
<stop stop-color="#5050A1"/>
<stop offset="0.29" stop-color="#69549A"/>
<stop offset="0.38" stop-color="#7E599C"/>
<stop offset="0.53" stop-color="#9960A0"/>
<stop offset="0.61" stop-color="#A363A2"/>
<stop offset="0.62" stop-color="#A363A2"/>
<stop offset="0.87" stop-color="#C77FB7"/>
<stop offset="1" stop-color="#D58ABF"/>
</linearGradient>
<linearGradient id="paint15_linear_1070_90883" x1="232.439" y1="83.2669" x2="94.7304" y2="83.2669" gradientUnits="userSpaceOnUse">
<stop stop-color="white"/>
<stop offset="0.29" stop-color="#949494"/>
<stop offset="0.38" stop-color="#707070"/>
<stop offset="0.53" stop-color="#4A4A4A"/>
<stop offset="0.61" stop-color="#4B4B4B"/>
<stop offset="0.713542" stop-color="#8D8D8D"/>
<stop offset="0.87" stop-color="#9B9B9B"/>
<stop offset="1" stop-color="white"/>
</linearGradient>
<linearGradient id="paint16_linear_1070_90883" x1="65.1634" y1="35.1354" x2="65.1406" y2="35.1354" gradientUnits="userSpaceOnUse">
<stop stop-color="white"/>
<stop offset="0.29" stop-color="#949494"/>
<stop offset="0.38" stop-color="#707070"/>
<stop offset="0.53" stop-color="#4A4A4A"/>
<stop offset="0.61" stop-color="#4B4B4B"/>
<stop offset="0.713542" stop-color="#8D8D8D"/>
<stop offset="0.87" stop-color="#9B9B9B"/>
<stop offset="1" stop-color="white"/>
</linearGradient>
<linearGradient id="paint17_linear_1070_90883" x1="210.696" y1="113.003" x2="65.1342" y2="113.003" gradientUnits="userSpaceOnUse">
<stop stop-color="white"/>
<stop offset="0.29" stop-color="#949494"/>
<stop offset="0.38" stop-color="#707070"/>
<stop offset="0.53" stop-color="#4A4A4A"/>
<stop offset="0.61" stop-color="#4B4B4B"/>
<stop offset="0.713542" stop-color="#8D8D8D"/>
<stop offset="0.87" stop-color="#9B9B9B"/>
<stop offset="1" stop-color="white"/>
</linearGradient>
<linearGradient id="paint18_linear_1070_90883" x1="211.183" y1="167.198" x2="210.723" y2="167.198" gradientUnits="userSpaceOnUse">
<stop stop-color="white"/>
<stop offset="0.29" stop-color="#949494"/>
<stop offset="0.38" stop-color="#707070"/>
<stop offset="0.53" stop-color="#4A4A4A"/>
<stop offset="0.61" stop-color="#4B4B4B"/>
<stop offset="0.713542" stop-color="#8D8D8D"/>
<stop offset="0.87" stop-color="#9B9B9B"/>
<stop offset="1" stop-color="white"/>
</linearGradient>
<linearGradient id="paint19_linear_1070_90883" x1="8.12691" y1="179.638" x2="6.87461" y2="179.638" gradientUnits="userSpaceOnUse">
<stop stop-color="white"/>
<stop offset="0.29" stop-color="#949494"/>
<stop offset="0.38" stop-color="#707070"/>
<stop offset="0.53" stop-color="#4A4A4A"/>
<stop offset="0.61" stop-color="#4B4B4B"/>
<stop offset="0.713542" stop-color="#8D8D8D"/>
<stop offset="0.87" stop-color="#9B9B9B"/>
<stop offset="1" stop-color="white"/>
</linearGradient>
<linearGradient id="paint20_linear_1070_90883" x1="103.684" y1="143.141" x2="103.594" y2="143.141" gradientUnits="userSpaceOnUse">
<stop stop-color="white"/>
<stop offset="0.29" stop-color="#949494"/>
<stop offset="0.38" stop-color="#707070"/>
<stop offset="0.53" stop-color="#4A4A4A"/>
<stop offset="0.61" stop-color="#4B4B4B"/>
<stop offset="0.713542" stop-color="#8D8D8D"/>
<stop offset="0.87" stop-color="#9B9B9B"/>
<stop offset="1" stop-color="white"/>
</linearGradient>
<linearGradient id="paint21_linear_1070_90883" x1="247.953" y1="62.8529" x2="128.113" y2="62.8529" gradientUnits="userSpaceOnUse">
<stop stop-color="white"/>
<stop offset="0.29" stop-color="#949494"/>
<stop offset="0.38" stop-color="#707070"/>
<stop offset="0.53" stop-color="#4A4A4A"/>
<stop offset="0.61" stop-color="#4B4B4B"/>
<stop offset="0.713542" stop-color="#8D8D8D"/>
<stop offset="0.87" stop-color="#9B9B9B"/>
<stop offset="1" stop-color="white"/>
</linearGradient>
<linearGradient id="paint22_linear_1070_90883" x1="158.299" y1="131.864" x2="38.1148" y2="131.864" gradientUnits="userSpaceOnUse">
<stop stop-color="white"/>
<stop offset="0.29" stop-color="#949494"/>
<stop offset="0.38" stop-color="#707070"/>
<stop offset="0.53" stop-color="#4A4A4A"/>
<stop offset="0.61" stop-color="#4B4B4B"/>
<stop offset="0.713542" stop-color="#8D8D8D"/>
<stop offset="0.87" stop-color="#9B9B9B"/>
<stop offset="1" stop-color="white"/>
</linearGradient>
<linearGradient id="paint23_linear_1070_90883" x1="136.81" y1="177.853" x2="107.749" y2="177.853" gradientUnits="userSpaceOnUse">
<stop stop-color="white"/>
<stop offset="0.29" stop-color="#949494"/>
<stop offset="0.38" stop-color="#707070"/>
<stop offset="0.53" stop-color="#4A4A4A"/>
<stop offset="0.61" stop-color="#4B4B4B"/>
<stop offset="0.713542" stop-color="#8D8D8D"/>
<stop offset="0.87" stop-color="#9B9B9B"/>
<stop offset="1" stop-color="white"/>
</linearGradient>
<linearGradient id="paint24_linear_1070_90883" x1="121.925" y1="150.81" x2="8.49971" y2="150.81" gradientUnits="userSpaceOnUse">
<stop stop-color="white"/>
<stop offset="0.29" stop-color="#949494"/>
<stop offset="0.38" stop-color="#707070"/>
<stop offset="0.53" stop-color="#4A4A4A"/>
<stop offset="0.61" stop-color="#4B4B4B"/>
<stop offset="0.713542" stop-color="#8D8D8D"/>
<stop offset="0.87" stop-color="#9B9B9B"/>
<stop offset="1" stop-color="white"/>
</linearGradient>
<linearGradient id="paint25_linear_1070_90883" x1="8.51944" y1="181.644" x2="8.36909" y2="181.644" gradientUnits="userSpaceOnUse">
<stop stop-color="white"/>
<stop offset="0.29" stop-color="#949494"/>
<stop offset="0.38" stop-color="#707070"/>
<stop offset="0.53" stop-color="#4A4A4A"/>
<stop offset="0.61" stop-color="#4B4B4B"/>
<stop offset="0.713542" stop-color="#8D8D8D"/>
<stop offset="0.87" stop-color="#9B9B9B"/>
<stop offset="1" stop-color="white"/>
</linearGradient>
<linearGradient id="paint26_linear_1070_90883" x1="234.888" y1="36.7003" x2="233.341" y2="36.7003" gradientUnits="userSpaceOnUse">
<stop stop-color="white"/>
<stop offset="0.29" stop-color="#949494"/>
<stop offset="0.38" stop-color="#707070"/>
<stop offset="0.53" stop-color="#4A4A4A"/>
<stop offset="0.61" stop-color="#4B4B4B"/>
<stop offset="0.713542" stop-color="#8D8D8D"/>
<stop offset="0.87" stop-color="#9B9B9B"/>
<stop offset="1" stop-color="white"/>
</linearGradient>
<linearGradient id="paint27_linear_1070_90883" x1="243.287" y1="122.417" x2="146.55" y2="122.417" gradientUnits="userSpaceOnUse">
<stop stop-color="white"/>
<stop offset="0.29" stop-color="#949494"/>
<stop offset="0.38" stop-color="#707070"/>
<stop offset="0.53" stop-color="#4A4A4A"/>
<stop offset="0.61" stop-color="#4B4B4B"/>
<stop offset="0.713542" stop-color="#8D8D8D"/>
<stop offset="0.87" stop-color="#9B9B9B"/>
<stop offset="1" stop-color="white"/>
</linearGradient>
<linearGradient id="paint28_linear_1070_90883" x1="103.87" y1="148.053" x2="0.000743173" y2="148.053" gradientUnits="userSpaceOnUse">
<stop stop-color="white"/>
<stop offset="0.29" stop-color="#949494"/>
<stop offset="0.38" stop-color="#707070"/>
<stop offset="0.53" stop-color="#4A4A4A"/>
<stop offset="0.61" stop-color="#4B4B4B"/>
<stop offset="0.713542" stop-color="#8D8D8D"/>
<stop offset="0.87" stop-color="#9B9B9B"/>
<stop offset="1" stop-color="white"/>
</linearGradient>
<linearGradient id="paint29_linear_1070_90883" x1="208.52" y1="52.1278" x2="160.237" y2="52.1278" gradientUnits="userSpaceOnUse">
<stop stop-color="white"/>
<stop offset="0.29" stop-color="#949494"/>
<stop offset="0.38" stop-color="#707070"/>
<stop offset="0.53" stop-color="#4A4A4A"/>
<stop offset="0.61" stop-color="#4B4B4B"/>
<stop offset="0.713542" stop-color="#8D8D8D"/>
<stop offset="0.87" stop-color="#9B9B9B"/>
<stop offset="1" stop-color="white"/>
</linearGradient>
</defs>
</svg>
