<svg width="470" height="305" viewBox="0 0 470 305" fill="none" xmlns="http://www.w3.org/2000/svg">
<g clip-path="url(#clip0_2619_67935)">
<path d="M308.67 17.8438H179.318V104.017H308.67V17.8438Z" fill="#222222"/>
<path d="M271.108 109.107C247.35 109.107 228.021 128.436 228.021 152.194C228.021 175.952 247.35 195.28 271.108 195.28V109.107Z" fill="#222222"/>
<path d="M87.5239 17.8438C63.766 17.8438 44.4375 37.1722 44.4375 60.9301C44.4375 84.6881 63.766 104.017 87.5239 104.017H130.61V60.9301C130.614 37.1722 111.286 17.8438 87.5239 17.8438Z" fill="#222222"/>
<path d="M442.749 243.704C442.749 267.218 423.618 286.349 400.104 286.349C376.59 286.349 357.459 267.218 357.459 243.704V201.059H400.104C423.618 201.059 442.749 220.189 442.749 243.704Z" fill="white" stroke="#222222" stroke-width="0.882956"/>
<path d="M308.624 109.107C284.866 109.107 265.537 128.436 265.537 152.194C265.537 175.952 284.866 195.28 308.624 195.28H351.71V152.194C351.71 128.436 332.381 109.107 308.624 109.107Z" fill="#222222"/>
<path d="M87.5239 194.839C64.0098 194.839 44.879 175.708 44.879 152.194C44.879 128.68 64.0098 109.549 87.5239 109.549H130.169V152.194C130.169 175.708 111.038 194.839 87.5239 194.839Z" fill="white" stroke="#222222" stroke-width="0.882956"/>
<path d="M44.4375 243.985C44.4375 267.743 63.766 287.071 87.5239 287.071C111.282 287.071 130.61 267.743 130.61 243.985V200.898H87.5239C63.766 200.898 44.4375 220.227 44.4375 243.985Z" fill="#222222"/>
<path d="M179.319 195.28C203.077 195.28 222.405 175.952 222.405 152.194C222.405 128.436 203.077 109.107 179.319 109.107H136.232V152.194C136.232 175.952 155.561 195.28 179.319 195.28Z" fill="#222222"/>
<path d="M179.319 18.2852C202.833 18.2852 221.964 37.416 221.964 60.9301C221.964 84.4443 202.833 103.575 179.319 103.575H136.674V60.9301C136.674 37.416 155.805 18.2852 179.319 18.2852Z" fill="white" stroke="#222222" stroke-width="0.882956"/>
<path d="M443.548 60.9316H357.375V195.282H443.548V60.9316Z" fill="#222222"/>
<path d="M443.548 60.9301C443.548 84.6881 424.219 104.017 400.461 104.017C376.703 104.017 357.375 84.6881 357.375 60.9301V17.8438H400.461C424.219 17.8438 443.548 37.1722 443.548 60.9301Z" fill="#222222"/>
<path d="M308.669 200.898H177.582V287.071H308.669V200.898Z" fill="#222222"/>
<path d="M308.666 287.071C284.909 287.071 265.58 267.743 265.58 243.985C265.58 220.227 284.909 200.898 308.666 200.898H351.753V243.985C351.753 267.743 332.424 287.071 308.666 287.071Z" fill="#222222"/>
<path d="M339.131 91.4003C355.957 74.574 355.957 47.2932 339.131 30.4669C322.304 13.6406 295.023 13.6406 278.197 30.4669C261.371 47.2932 261.371 74.574 278.197 91.4003C295.023 108.227 322.304 108.227 339.131 91.4003Z" fill="white"/>
<path d="M209.783 274.451C226.609 257.625 226.609 230.344 209.783 213.518C192.957 196.691 165.676 196.691 148.849 213.518C132.023 230.344 132.023 257.625 148.849 274.451C165.676 291.277 192.957 291.277 209.783 274.451Z" fill="white"/>
<path d="M308.671 109.107H271.109V195.28H308.671V109.107Z" fill="#222222"/>
<path d="M177.578 135.414H136.227V195.246H177.578V135.414Z" fill="#222222"/>
<path d="M44.4405 287.076H130.613V243.99H44.4405V287.076Z" fill="#222222"/>
</g>
<defs>
<clipPath id="clip0_2619_67935">
<rect width="470" height="304.917" fill="white"/>
</clipPath>
</defs>
</svg>
