<svg width="105" height="96" viewBox="0 0 105 96" fill="none" xmlns="http://www.w3.org/2000/svg">
<g id="Frame" clip-path="url(#clip0_1118_18108)">
<g id="Group">
<g id="Graphic Elements">
<g id="Group_2">
<g id="Group_3">
<g id="Group_4">
<path id="Vector" d="M94.4925 10.5311C107.834 23.9063 107.834 45.5918 94.4925 58.967C81.1512 72.3422 59.5206 72.3422 46.1793 58.967C32.8379 45.5918 32.8379 23.9063 46.1793 10.5311C59.5206 -2.84411 81.1512 -2.84411 94.4925 10.5311Z" stroke="white"/>
</g>
</g>
<g id="Group_5">
<path id="Vector_2" d="M28.2307 83.3233C29.0655 75.531 23.4413 68.5357 15.6687 67.6988C7.89613 66.8619 0.918506 72.5004 0.083741 80.2927C-0.751024 88.085 4.87318 95.0803 12.6458 95.9172C20.4183 96.754 27.396 91.1156 28.2307 83.3233Z" fill="url(#paint0_radial_1118_18108)"/>
<path id="Vector_3" style="mix-blend-mode:multiply" opacity="0.4" d="M28.2307 83.3233C29.0655 75.531 23.4413 68.5357 15.6687 67.6988C7.89613 66.8619 0.918506 72.5004 0.083741 80.2927C-0.751024 88.085 4.87318 95.0803 12.6458 95.9172C20.4183 96.754 27.396 91.1156 28.2307 83.3233Z" fill="url(#paint1_linear_1118_18108)"/>
<g id="Group_6">
<path id="Vector_4" d="M28.2307 83.3233C29.0655 75.531 23.4413 68.5357 15.6687 67.6988C7.89613 66.8619 0.918506 72.5004 0.083741 80.2927C-0.751024 88.085 4.87318 95.0803 12.6458 95.9172C20.4183 96.754 27.396 91.1156 28.2307 83.3233Z" fill="url(#paint2_linear_1118_18108)"/>
</g>
</g>
</g>
</g>
</g>
</g>
<defs>
<radialGradient id="paint0_radial_1118_18108" cx="0" cy="0" r="1" gradientUnits="userSpaceOnUse" gradientTransform="translate(20.3274 79.0242) rotate(-139.528) scale(20.9101 20.9185)">
<stop stop-color="#FFFFEB"/>
<stop offset="1" stop-color="#FF5F76"/>
</radialGradient>
<linearGradient id="paint1_linear_1118_18108" x1="-9.1618" y1="79.5009" x2="31.5886" y2="83.6501" gradientUnits="userSpaceOnUse">
<stop offset="0.36" stop-color="#E84A00"/>
<stop offset="0.4" stop-color="#E95914"/>
<stop offset="0.52" stop-color="#F08B54"/>
<stop offset="0.64" stop-color="#F5B48A"/>
<stop offset="0.75" stop-color="#F9D4B4"/>
<stop offset="0.85" stop-color="#FCEBD2"/>
<stop offset="0.94" stop-color="#FEF9E4"/>
<stop offset="1" stop-color="#FFFFEB"/>
</linearGradient>
<linearGradient id="paint2_linear_1118_18108" x1="0.0837409" y1="80.2927" x2="28.2323" y2="83.3081" gradientUnits="userSpaceOnUse">
<stop stop-color="white"/>
<stop offset="1" stop-color="#828282"/>
</linearGradient>
<clipPath id="clip0_1118_18108">
<rect width="105" height="96" fill="white"/>
</clipPath>
</defs>
</svg>
