<svg width="134" height="139" viewBox="0 0 134 139" fill="none" xmlns="http://www.w3.org/2000/svg">
<g id="Graphic_Elements" clip-path="url(#clip0_1080_101395)">
<path id="Vector" d="M7.60982 135.34C5.88243 134.642 3.75961 135.105 2.99373 136.336C2.44845 137.207 2.77312 138.232 3.64722 139H9.37468C9.39965 138.959 9.42879 138.922 9.45376 138.88C10.1447 137.649 9.33306 136.042 7.60566 135.34H7.60982Z" fill="white"/>
<path id="Vector_2" d="M1.80648 124.269C2.80962 123.005 2.20191 121.597 0.487 121.312C0.328829 121.287 0.166496 121.274 0 121.266V125.504C0.740906 125.215 1.38608 124.798 1.80648 124.269Z" fill="white"/>
<path id="Vector_3" d="M13.9355 125.711C12.3788 125.005 10.31 125.492 9.41513 126.752C8.52022 128.016 9.21534 129.573 10.8512 130.276C12.4911 130.978 14.4558 130.569 15.2633 129.309C16.0708 128.049 15.4881 126.417 13.9313 125.711H13.9355Z" fill="white"/>
<path id="Vector_4" opacity="0.5" d="M27.7052 135.58C28.3171 134.316 27.5346 132.585 25.9529 131.73C24.3711 130.879 22.5064 131.238 21.8029 132.498C21.0953 133.758 21.8945 135.443 23.572 136.299C25.2494 137.154 27.0975 136.844 27.7094 135.58H27.7052Z" fill="white"/>
<path id="Vector_5" d="M34.4512 139H39.0589C38.8009 138.777 38.5137 138.574 38.2015 138.405C36.6614 137.579 35.0214 137.847 34.4553 139H34.4512Z" fill="white"/>
<path id="Vector_6" d="M9.78489 114.467C10.8463 113.182 10.4301 111.745 8.88581 111.426C7.34156 111.108 5.1896 112.05 4.04911 113.351C2.90445 114.653 3.26658 115.797 4.88991 116.098C6.51741 116.4 8.72348 115.751 9.78489 114.467Z" fill="white"/>
<path id="Vector_7" d="M16.5375 116.97C15.5926 118.251 16.0755 119.833 17.5365 120.543C18.9975 121.254 20.8622 120.832 21.7197 119.556C22.5771 118.279 22.1775 116.631 20.8039 115.917C19.4303 115.198 17.4865 115.689 16.5416 116.97H16.5375Z" fill="white"/>
<path id="Vector_8" d="M32.575 125.814C33.2243 124.538 32.6333 122.799 31.2638 121.952C29.8944 121.105 28.1795 121.473 27.4303 122.745C26.681 124.022 27.2638 125.719 28.7331 126.57C30.2024 127.421 31.9257 127.091 32.5708 125.814H32.575Z" fill="white"/>
<path id="Vector_9" d="M40.1164 133.221C41.6024 134.076 43.1591 133.709 43.592 132.428C44.0249 131.147 43.2507 129.433 41.8646 128.582C40.4785 127.731 38.9218 128.066 38.389 129.346C37.8562 130.627 38.6304 132.366 40.1164 133.221Z" fill="white"/>
<path id="Vector_10" d="M52.5423 134.621C51.1521 133.927 49.7618 134.361 49.4372 135.646C49.1499 136.778 49.8534 138.199 51.0355 138.996H54.2447C54.4404 138.773 54.5777 138.492 54.636 138.161C54.8691 136.873 53.9325 135.315 52.5423 134.621Z" fill="white"/>
<path id="Vector_11" d="M61.3945 139H63.6297C63.4965 138.942 63.3592 138.892 63.2177 138.855C62.535 138.669 61.8899 138.735 61.3945 139Z" fill="white"/>
<path id="Vector_12" d="M7.15444 103.297C8.33239 101.954 8.17838 100.988 6.82977 101.343C5.48115 101.698 3.47904 103.078 2.28443 104.466C1.08982 105.854 1.1148 106.684 2.49255 106.28C3.87447 105.875 5.97648 104.64 7.15444 103.297Z" fill="white"/>
<path id="Vector_13" d="M17.8939 104.573C18.9304 103.285 18.6307 101.83 17.2571 101.475C15.8835 101.12 13.8939 102.025 12.7783 103.33C11.6628 104.635 11.9042 105.829 13.3569 106.168C14.8096 106.507 16.8575 105.862 17.8939 104.573Z" fill="white"/>
<path id="Vector_14" d="M27.6415 106.065C26.4511 105.333 24.6946 105.817 23.7705 107.101C22.8465 108.386 23.1794 109.981 24.4531 110.708C25.7268 111.435 27.4292 111.009 28.2659 109.729C29.1025 108.448 28.8278 106.796 27.6374 106.065H27.6415Z" fill="white"/>
<path id="Vector_15" opacity="0.5" d="M36.5628 112.128C35.4056 111.282 33.8863 111.649 33.1579 112.93C32.4253 114.21 32.8416 115.912 34.0986 116.759C35.3557 117.606 36.8999 117.271 37.5284 115.991C38.1611 114.71 37.7199 112.975 36.5628 112.128Z" fill="white"/>
<path id="Vector_16" d="M46.8935 122.559C47.3139 121.274 46.6895 119.568 45.5157 118.726C44.3419 117.883 42.9808 118.222 42.4647 119.502C41.9444 120.783 42.5438 122.526 43.8175 123.373C45.0912 124.22 46.4731 123.848 46.8935 122.563V122.559Z" fill="white"/>
<path id="Vector_17" d="M54.639 124.716C53.436 124.026 52.2206 124.464 51.9084 125.752C51.5962 127.041 52.3788 128.694 53.6691 129.383C54.9595 130.073 56.1957 129.536 56.4246 128.247C56.6494 126.959 55.846 125.405 54.6431 124.716H54.639Z" fill="white"/>
<path id="Vector_18" d="M64.0378 128.917C62.7933 128.537 61.6861 129.198 61.5446 130.491C61.4072 131.784 62.3479 133.221 63.6591 133.601C64.9702 133.981 66.0982 133.155 66.169 131.862C66.2439 130.569 65.2782 129.297 64.0337 128.921L64.0378 128.917Z" fill="white"/>
<path id="Vector_19" d="M73.8122 130.156C72.551 130.197 71.4563 131.242 71.4396 132.531C71.423 133.82 72.5219 134.865 73.8122 134.824C74.9777 134.786 75.9891 133.836 75.985 132.547C75.985 131.259 74.9777 130.118 73.8122 130.156Z" fill="white"/>
<path id="Vector_20" d="M82.9694 135.732C84.1474 135.951 85.0339 135.142 84.9673 133.878C84.8966 132.614 83.9351 131.362 82.7987 131.126C81.6624 130.891 80.7508 131.775 80.78 133.056C80.8091 134.332 81.7914 135.509 82.9694 135.732Z" fill="white"/>
<path id="Vector_21" d="M93.5573 136.397C93.3576 135.187 92.3419 133.886 91.268 133.518C90.1983 133.151 89.4241 133.874 89.5531 135.113C89.6863 136.352 90.7228 137.616 91.8632 137.959C93.0037 138.302 93.753 137.612 93.5532 136.397H93.5573Z" fill="white"/>
<path id="Vector_22" d="M99.2691 136.534C98.2576 136.133 97.6582 136.761 97.9413 137.943C98.0287 138.298 98.1952 138.657 98.4116 139H101.625C101.171 137.955 100.185 136.897 99.2691 136.534Z" fill="white"/>
<path id="Vector_23" d="M130.354 136.637C129.584 137.335 129.297 138.219 129.522 139H134V136.443C134 136.443 133.992 136.435 133.988 136.431C133.068 135.522 131.44 135.654 130.354 136.637Z" fill="white"/>
<path id="Vector_24" opacity="0.5" d="M5.57345 94.7293C6.67232 93.1802 6.28522 92.2879 4.70351 92.8497C3.14261 93.4033 1.04892 95.1754 0 96.741V98.7156C0.224769 98.7114 0.50365 98.6495 0.840804 98.5173C2.36008 97.9307 4.47874 96.2825 5.57345 94.7334V94.7293Z" fill="white"/>
<path id="Vector_25" d="M16.2083 92.4614C17.3447 91.0032 17.2115 89.8507 15.9295 90.0902C14.6474 90.3298 12.612 91.7426 11.459 93.2545C10.3061 94.7664 10.4393 95.7661 11.7504 95.4687C13.0616 95.1712 15.072 93.9196 16.2083 92.4614Z" fill="white"/>
<path id="Vector_26" d="M25.8441 94.217C26.8431 92.829 26.6516 91.2593 25.4487 90.8545C24.2457 90.4496 22.4185 91.3956 21.3446 92.8084C20.2665 94.2211 20.4039 95.543 21.6859 95.9231C22.9679 96.3031 24.8451 95.605 25.8441 94.217Z" fill="white"/>
<path id="Vector_27" d="M34.3305 95.6546C33.319 94.8946 31.7581 95.4398 30.8674 96.8196C29.9766 98.1951 30.1639 99.8723 31.2587 100.616C32.3534 101.359 33.8851 100.884 34.6926 99.5211C35.5001 98.158 35.342 96.4147 34.3305 95.6588V95.6546Z" fill="white"/>
<path id="Vector_28" d="M38.7694 102.772C38.0659 104.123 38.3198 105.891 39.3646 106.742C40.4094 107.593 41.7705 107.209 42.3823 105.866C42.9901 104.52 42.6904 102.718 41.7413 101.859C40.7923 101 39.4728 101.421 38.7694 102.772Z" fill="white"/>
<path id="Vector_29" d="M50.1204 112.472C50.5241 111.137 50.0413 109.386 49.0756 108.531C48.1099 107.68 46.9486 108.06 46.4491 109.398C45.9496 110.737 46.3825 112.517 47.4439 113.368C48.5054 114.215 49.7125 113.806 50.1162 112.472H50.1204Z" fill="white"/>
<path id="Vector_30" d="M58.1567 118.189C58.3732 116.867 57.6947 115.28 56.6749 114.582C55.6551 113.884 54.6145 114.351 54.3148 115.677C54.0151 117.003 54.6437 118.684 55.7467 119.378C56.8497 120.068 57.9403 119.51 58.1567 118.189Z" fill="white"/>
<path id="Vector_31" d="M64.8255 118.87C63.7183 118.478 62.7401 119.147 62.6111 120.461C62.482 121.774 63.2979 123.233 64.4717 123.617C65.6413 124.001 66.6694 123.175 66.736 121.865C66.8026 120.56 65.9327 119.263 64.8255 118.87Z" fill="white"/>
<path id="Vector_32" d="M73.8116 120.254C72.6045 120.283 71.593 121.299 71.5764 122.596C71.5597 123.889 72.5837 124.955 73.8116 124.922C74.977 124.889 75.9594 123.943 75.9552 122.654C75.9552 121.365 74.9812 120.229 73.8116 120.254Z" fill="white"/>
<path id="Vector_33" d="M84.4306 124.174C84.3598 122.91 83.4816 121.625 82.4326 121.357C81.3837 121.088 80.5263 121.956 80.5554 123.232C80.5845 124.509 81.5128 125.707 82.6033 125.963C83.6939 126.215 84.4972 125.438 84.4306 124.174Z" fill="white"/>
<path id="Vector_34" d="M90.0085 124.096C89.0803 123.67 88.4143 124.352 88.5433 125.591C88.6765 126.83 89.6089 128.136 90.6037 128.536C91.5985 128.937 92.2271 128.293 92.0273 127.082C91.8275 125.872 90.9367 124.521 90.0085 124.1V124.096Z" fill="white"/>
<path id="Vector_35" opacity="0.5" d="M96.759 127.607C95.9224 127.136 95.4603 127.71 95.7475 128.888C96.0347 130.065 97.0254 131.374 97.9411 131.812C98.861 132.25 99.2897 131.668 98.9234 130.523C98.553 129.379 97.5956 128.074 96.759 127.603V127.607Z" fill="white"/>
<path id="Vector_36" d="M105.305 133.667C104.755 132.597 103.69 131.432 102.92 131.027C102.145 130.627 101.887 131.172 102.354 132.279C102.82 133.386 103.902 134.605 104.759 134.968C105.617 135.336 105.858 134.737 105.305 133.667Z" fill="white"/>
<path id="Vector_37" d="M108.531 134.915C109.176 135.947 110.262 137.001 111.186 137.174C112.111 137.344 112.29 136.658 111.561 135.662C110.833 134.667 109.538 133.704 108.706 133.502C107.873 133.295 107.886 133.886 108.531 134.919V134.915Z" fill="white"/>
<path id="Vector_38" d="M118.923 135.187C118.049 134.258 116.559 133.807 115.618 134.01C114.677 134.208 114.594 135.009 115.414 135.964C116.23 136.918 117.695 137.641 118.69 137.418C119.689 137.19 119.797 136.116 118.923 135.187Z" fill="white"/>
<path id="Vector_39" d="M126.933 129.433C126.013 128.524 124.377 128.656 123.299 129.639C122.221 130.622 122.129 131.965 123.041 132.878C123.952 133.791 125.542 133.919 126.625 132.936C127.707 131.953 127.848 130.341 126.933 129.433Z" fill="white"/>
<path id="Vector_40" d="M132.098 125.984C132.547 126.446 133.234 126.715 134 126.793V122.856C133.717 122.91 133.438 122.985 133.176 123.092C131.628 123.72 131.203 125.066 132.098 125.984Z" fill="white"/>
<path id="Vector_41" d="M0 85.9595V87.3764C0.287205 86.7196 0.266393 86.2321 0 85.9595Z" fill="white"/>
<path id="Vector_42" d="M11.6681 80.8659C9.97817 81.374 7.96357 83.1255 7.1519 84.6869C6.34024 86.2484 6.99789 87.0168 8.64204 86.488C10.2862 85.9593 12.3258 84.3565 13.1832 82.8157C14.0407 81.2748 13.358 80.3578 11.6681 80.8659Z" fill="white"/>
<path id="Vector_43" d="M19.4174 81.6095C18.5225 83.1214 18.9096 84.1954 20.1666 84.0219C21.4237 83.8484 23.1969 82.6629 24.0876 81.2005C24.9784 79.7382 24.662 78.5155 23.4175 78.6311C22.1687 78.7468 20.3123 80.0976 19.4174 81.6054V81.6095Z" fill="white"/>
<path id="Vector_44" opacity="0.5" d="M28.8254 81.8945C27.9763 83.3114 28.1636 84.7035 29.2916 85.1331C30.4196 85.5669 32.0096 84.8894 32.7963 83.4973C33.583 82.1052 33.3291 80.5148 32.2594 80.0563C31.1938 79.5977 29.6745 80.4776 28.8254 81.8945Z" fill="white"/>
<path id="Vector_45" d="M37.461 90.0658C38.3892 90.8424 39.6587 90.3714 40.2914 89.0082C40.9241 87.6409 40.7368 85.8894 39.871 85.1004C39.0094 84.3114 37.7523 84.8237 37.0531 86.2034C36.3538 87.5831 36.5328 89.2891 37.461 90.0658Z" fill="white"/>
<path id="Vector_46" d="M46.5771 95.4975C47.0474 94.1508 46.7644 92.3415 45.9943 91.4657C45.2201 90.59 44.192 90.9907 43.6426 92.3415C43.0931 93.6964 43.3012 95.4851 44.1504 96.3526C44.9995 97.22 46.1067 96.84 46.5771 95.4975Z" fill="white"/>
<path id="Vector_47" opacity="0.5" d="M52.8664 102.206C53.1702 100.872 52.7373 99.1122 51.9465 98.2488C51.1598 97.3855 50.2565 97.749 49.8736 99.0915C49.4948 100.43 49.8486 102.231 50.7144 103.09C51.5802 103.949 52.5625 103.545 52.8664 102.21V102.206Z" fill="white"/>
<path id="Vector_48" d="M58.2535 104.391C57.3877 103.681 56.5594 104.135 56.3388 105.461C56.1223 106.787 56.6593 108.485 57.5917 109.187C58.524 109.89 59.4356 109.34 59.5896 108.014C59.7394 106.692 59.1193 105.098 58.2576 104.387L58.2535 104.391Z" fill="white"/>
<path id="Vector_49" d="M65.3831 108.791C64.38 108.378 63.5475 109.034 63.4601 110.348C63.3727 111.662 64.1136 113.132 65.1584 113.537C66.2073 113.942 67.1272 113.124 67.1647 111.819C67.2063 110.513 66.3821 109.2 65.379 108.791H65.3831Z" fill="white"/>
<path id="Vector_50" d="M73.8114 110.352C72.6251 110.369 71.6803 111.348 71.6719 112.645C71.6636 113.938 72.621 115.041 73.8114 115.02C74.9894 114.999 75.9342 114.049 75.9301 112.76C75.9301 111.472 74.9935 110.34 73.8114 110.352Z" fill="white"/>
<path id="Vector_51" d="M82.0705 111.587C81.109 111.286 80.3056 112.133 80.3348 113.409C80.3639 114.686 81.238 115.904 82.2411 116.189C83.2443 116.474 83.9644 115.731 83.8936 114.467C83.8228 113.203 83.032 111.885 82.0663 111.583L82.0705 111.587Z" fill="white"/>
<path id="Vector_52" d="M90.4908 117.763C90.291 116.553 89.5251 115.152 88.7426 114.673C87.96 114.19 87.3981 114.834 87.5313 116.074C87.6645 117.313 88.4887 118.66 89.3378 119.114C90.1869 119.568 90.6906 118.978 90.4908 117.763Z" fill="white"/>
<path id="Vector_53" d="M94.2494 118.676C93.5917 118.135 93.2671 118.655 93.5543 119.833C93.8415 121.01 94.6906 122.377 95.4357 122.881C96.1766 123.389 96.4638 122.869 96.0933 121.72C95.7229 120.576 94.9112 119.213 94.2535 118.672L94.2494 118.676Z" fill="white"/>
<path id="Vector_54" d="M101.063 125.434C100.509 124.364 99.5933 123.137 99.0064 122.658C98.4195 122.183 98.3071 122.666 98.7733 123.773C99.2395 124.881 100.172 126.157 100.85 126.599C101.525 127.041 101.616 126.504 101.067 125.43L101.063 125.434Z" fill="white"/>
<path id="Vector_55" d="M103.574 126.983C104.219 128.016 105.197 129.123 105.921 129.371C106.646 129.619 106.679 128.995 105.946 127.999C105.218 127.004 104.073 125.979 103.441 125.694C102.808 125.413 102.924 125.95 103.57 126.983H103.574Z" fill="white"/>
<path id="Vector_56" d="M109.101 126.773C108.285 126.913 108.323 127.661 109.139 128.615C109.955 129.569 111.299 130.35 112.173 130.18C113.047 130.011 113.076 128.974 112.202 128.045C111.328 127.115 109.917 126.632 109.101 126.773Z" fill="white"/>
<path id="Vector_57" d="M119.877 122.435C118.957 121.526 117.313 121.659 116.243 122.642C115.174 123.625 115.115 124.955 116.027 125.868C116.939 126.781 118.495 126.921 119.565 125.942C120.639 124.959 120.789 123.348 119.873 122.439L119.877 122.435Z" fill="white"/>
<path id="Vector_58" d="M125.217 118.915C126.112 119.837 128.018 119.969 129.621 119.316C131.223 118.664 131.948 117.453 131.098 116.511C130.249 115.569 128.102 115.276 126.453 115.95C124.805 116.623 124.322 117.994 125.217 118.915Z" fill="white"/>
<path id="Vector_59" d="M0.199795 79.7755C2.14363 78.97 4.10828 77.1317 4.52869 75.6363C4.94909 74.141 3.63377 73.5544 1.64415 74.364C1.0739 74.5954 0.516137 74.9176 0 75.2894V79.8498C0.0665983 79.8251 0.133197 79.8003 0.199795 79.7755Z" fill="white"/>
<path id="Vector_60" d="M14.3853 74.6739C16.1127 74.1823 17.9358 72.6621 18.4145 71.1915C18.8932 69.7168 17.8318 68.8369 16.0836 69.312C14.3353 69.787 12.5747 71.4435 12.1168 72.9306C11.6589 74.4177 12.6579 75.1613 14.3853 74.6739Z" fill="white"/>
<path id="Vector_61" d="M24.8368 70.1835C24.3456 71.6335 25.0699 72.724 26.3186 72.6703C27.5673 72.6166 29.02 71.5426 29.5195 70.134C30.0189 68.7253 29.3654 67.4819 28.1042 67.4819C26.8389 67.4819 25.3279 68.7295 24.8409 70.1794L24.8368 70.1835Z" fill="white"/>
<path id="Vector_62" d="M36.6591 69.527C35.6768 69.023 34.5279 69.7955 34.0409 71.1628C33.5539 72.5302 33.9327 73.9471 34.9483 74.4304C35.964 74.9137 37.196 74.294 37.6539 72.9474C38.1076 71.6007 37.6414 70.031 36.6591 69.527Z" fill="white"/>
<path id="Vector_63" d="M42.0398 79.5856C42.8432 80.3912 43.8005 79.9615 44.1585 78.6355C44.5165 77.3095 44.171 75.5787 43.4051 74.7649C42.6392 73.9511 41.736 74.4055 41.3364 75.7398C40.941 77.0782 41.2365 78.7801 42.0398 79.5856Z" fill="white"/>
<path id="Vector_64" d="M46.9778 82.0436C46.6739 83.3654 46.9403 85.1459 47.6354 86.0299C48.3347 86.9139 49.1547 86.5627 49.4086 85.245C49.6625 83.9272 49.2921 82.1427 48.6427 81.2546C47.9976 80.3664 47.2816 80.7217 46.9778 82.0394V82.0436Z" fill="white"/>
<path id="Vector_65" d="M54.6112 92.0276C54.7527 90.714 54.2782 88.9749 53.6164 88.1033C52.9546 87.2317 52.3219 87.5663 52.1304 88.8799C51.9348 90.1935 52.3011 91.9863 53.0128 92.8538C53.7246 93.7213 54.4697 93.3371 54.6112 92.0235V92.0276Z" fill="white"/>
<path id="Vector_66" d="M59.0224 94.2915C58.2606 93.5769 57.6363 94.0065 57.5447 95.316C57.4573 96.6255 57.9776 98.3191 58.7768 99.0338C59.5801 99.7484 60.321 99.2114 60.371 97.906C60.4209 96.5965 59.7841 95.0103 59.0224 94.2956V94.2915Z" fill="white"/>
<path id="Vector_67" d="M67.3227 101.801C67.3227 100.5 66.486 99.1866 65.537 98.7611C64.588 98.3356 63.8762 98.9718 63.8595 100.277C63.847 101.583 64.5588 103.057 65.5245 103.479C66.4902 103.9 67.3227 103.103 67.3227 101.801Z" fill="white"/>
<path id="Vector_68" d="M71.6797 102.698C71.6839 103.991 72.6121 105.123 73.8067 105.114C74.993 105.106 75.9004 104.152 75.8962 102.863C75.8962 101.574 74.993 100.447 73.8067 100.451C72.5913 100.451 71.6714 101.409 71.6797 102.702V102.698Z" fill="white"/>
<path id="Vector_69" d="M83.3647 104.763C83.2939 103.499 82.5863 102.152 81.7122 101.818C80.8381 101.483 80.0889 102.309 80.118 103.586C80.1471 104.862 80.9671 106.102 81.8829 106.42C82.7986 106.738 83.4354 106.027 83.3647 104.763Z" fill="white"/>
<path id="Vector_70" d="M88.9586 108.448C88.7588 107.238 88.1177 105.788 87.4809 105.251C86.8399 104.714 86.3862 105.313 86.5194 106.552C86.6526 107.791 87.3685 109.179 88.0761 109.691C88.7837 110.204 89.1583 109.658 88.9586 108.448Z" fill="white"/>
<path id="Vector_71" d="M93.2587 112.926C92.8883 111.781 92.2223 110.356 91.7395 109.749C91.2566 109.138 91.0693 109.604 91.3565 110.782C91.6437 111.959 92.3555 113.38 92.9216 113.958C93.4877 114.537 93.625 114.074 93.2546 112.93L93.2587 112.926Z" fill="white"/>
<path id="Vector_72" d="M95.0986 114.298C94.6949 113.744 94.7323 114.17 95.1985 115.277C95.6647 116.384 96.4472 117.722 96.9426 118.238C97.4337 118.755 97.3796 118.276 96.826 117.206C96.2724 116.136 95.5065 114.847 95.0986 114.298Z" fill="white"/>
<path id="Vector_73" d="M100.334 120.341C99.6059 119.345 98.6069 118.255 98.1782 117.895C97.7495 117.536 97.9701 118.023 98.6153 119.056C99.2604 120.089 100.135 121.25 100.659 121.572C101.183 121.894 101.067 121.34 100.334 120.341Z" fill="white"/>
<path id="Vector_74" d="M102.582 119.54C101.891 119.622 102.045 120.312 102.861 121.27C103.676 122.225 104.9 123.059 105.654 122.952C106.403 122.84 106.353 121.84 105.479 120.911C104.605 119.982 103.273 119.461 102.582 119.544V119.54Z" fill="white"/>
<path id="Vector_75" d="M109.188 115.64C108.127 116.623 108.106 117.936 109.018 118.849C109.929 119.762 111.448 119.919 112.514 118.936C113.58 117.953 113.738 116.342 112.822 115.433C111.902 114.524 110.25 114.657 109.188 115.64Z" fill="white"/>
<path id="Vector_76" d="M118.337 111.843C119.232 112.765 121.197 112.868 122.904 112.17C124.606 111.472 125.434 110.216 124.585 109.274C123.736 108.332 121.488 108.088 119.736 108.807C117.984 109.526 117.443 110.926 118.337 111.843Z" fill="white"/>
<path id="Vector_77" d="M132.817 107.019C133.067 107.333 133.479 107.589 133.999 107.779V104.862C132.742 105.432 132.243 106.287 132.817 107.019Z" fill="white"/>
<path id="Vector_78" d="M2.435 68.5561C4.45376 67.7423 6.11872 65.9991 6.06877 64.7351C6.02299 63.4669 4.32473 63.0786 2.31429 63.88C1.42354 64.2352 0.616035 64.7681 0 65.3671V68.9238C0.645171 69.0436 1.4943 68.9362 2.435 68.5561Z" fill="white"/>
<path id="Vector_79" d="M13.8026 62.0581C13.8609 63.3139 15.2677 63.9914 17.0284 63.5287C18.785 63.0619 20.221 61.6409 20.1627 60.3851C20.1044 59.1293 18.6226 58.4518 16.8661 58.9104C15.1096 59.373 13.7443 60.8023 13.8026 62.0581Z" fill="white"/>
<path id="Vector_80" d="M26.5566 59.4931C26.6108 60.7613 27.7471 61.8188 29.0499 61.8725C30.3486 61.9262 31.4142 60.9885 31.3392 59.7657C31.2643 58.543 30.1571 57.4194 28.8668 57.3037C27.5806 57.1881 26.5025 58.2249 26.5566 59.4931Z" fill="white"/>
<path id="Vector_81" d="M39.3855 63C39.2939 61.8227 38.4156 60.4265 37.4499 59.8936C36.4843 59.3607 35.7975 59.8977 35.889 61.0833C35.9806 62.2689 36.7132 63.6775 37.6789 64.2021C38.6445 64.7267 39.477 64.1773 39.3855 63.0042V63Z" fill="white"/>
<path id="Vector_82" opacity="0.5" d="M42.8058 65.8174C42.8808 67.0071 43.4385 68.676 44.1836 69.5022C44.9287 70.3242 45.5364 69.9524 45.4823 68.7379C45.424 67.5235 44.7705 65.9289 44.0088 65.1276C43.2471 64.3262 42.7351 64.6277 42.81 65.8215L42.8058 65.8174Z" fill="white"/>
<path id="Vector_83" d="M50.2824 75.3185C50.2657 74.0379 49.6955 72.336 49.0753 71.4727C48.4551 70.6093 48.043 70.8902 48.0805 72.1377C48.1179 73.3853 48.5675 75.1326 49.1752 76.0208C49.7829 76.9089 50.299 76.5991 50.2824 75.3185Z" fill="white"/>
<path id="Vector_84" d="M52.7324 78.9165C52.7283 80.2301 53.2153 81.9857 53.8396 82.8532C54.464 83.7207 54.9635 83.3696 54.9885 82.0312C55.0134 80.6928 54.4515 78.9702 53.8188 78.1234C53.1861 77.2765 52.7408 77.6029 52.7324 78.9165Z" fill="white"/>
<path id="Vector_85" d="M59.0228 84.1791C58.2819 83.4727 57.7366 83.9313 57.695 85.2903C57.6576 86.6494 58.2611 88.31 58.9937 89.0288C59.7304 89.7434 60.3132 89.2353 60.3589 87.868C60.4047 86.5007 59.7596 84.8896 59.0228 84.1791Z" fill="white"/>
<path id="Vector_86" d="M67.1641 91.8088C67.1932 90.4786 66.3608 89.1237 65.4201 88.6817C64.4794 88.2397 63.7759 88.8965 63.7301 90.2556C63.6885 91.6146 64.4544 93.0728 65.3993 93.4983C66.3483 93.9238 67.1308 93.143 67.16 91.8129L67.1641 91.8088Z" fill="white"/>
<path id="Vector_87" opacity="0.5" d="M73.7369 90.6644C72.5006 90.6107 71.6016 91.503 71.6016 92.7836C71.6016 94.0641 72.5548 95.2125 73.8118 95.2125C75.0022 95.2125 75.893 94.25 75.8222 93.0314C75.7515 91.8128 74.8482 90.7098 73.7369 90.6644Z" fill="white"/>
<path id="Vector_88" d="M82.6653 95.1711C82.4114 94.031 81.6538 92.7463 80.8921 92.3704C80.1304 91.9945 79.5976 92.6967 79.7683 93.8616C79.9389 95.0307 80.6882 96.2989 81.5207 96.65C82.349 97.0011 82.9192 96.3112 82.6653 95.1711Z" fill="white"/>
<path id="Vector_89" d="M87.2401 99.2198C86.8447 98.1044 86.187 96.6917 85.6875 96.1133C85.1839 95.535 84.9883 96.0183 85.3212 97.1378C85.6542 98.2614 86.2495 99.699 86.8114 100.265C87.3733 100.831 87.6355 100.331 87.2401 99.2156V99.2198Z" fill="white"/>
<path id="Vector_90" d="M88.9955 101.781C89.4534 102.904 90.0236 104.379 90.4107 105.028C90.7978 105.676 90.7895 105.275 90.2817 104.144C89.7739 103.012 89.1662 101.553 88.8332 100.905C88.5002 100.256 88.5335 100.661 88.9913 101.781H88.9955Z" fill="white"/>
<path id="Vector_91" d="M91.0101 105.676C90.8977 105.416 90.8977 105.429 91.0101 105.676V105.676Z" fill="white"/>
<path id="Vector_92" d="M91.0117 105.676C91.02 105.697 91.0284 105.718 91.0409 105.742C91.2948 106.333 91.9108 107.746 92.5185 108.907C92.735 109.32 92.9014 109.634 93.0097 109.84C92.9889 109.795 92.9681 109.749 92.9556 109.716C92.6267 109.064 92.0398 107.804 91.5195 106.746C91.274 106.246 91.1033 105.883 91.0117 105.676Z" fill="white"/>
<path id="Vector_93" d="M93.6214 111.009C94.279 112.178 95.0699 113.372 95.3946 113.773C95.7192 114.174 95.4237 113.707 94.7202 112.534C94.0168 111.36 93.2717 110.051 93.0012 109.646C92.8721 109.452 92.8597 109.493 92.9554 109.716C92.972 109.754 92.9929 109.795 93.0095 109.84C93.126 110.096 93.33 110.493 93.6172 111.009H93.6214Z" fill="white"/>
<path id="Vector_94" d="M96.3096 111.657C95.7393 111.691 95.8392 112.558 96.6051 113.731C97.3668 114.904 98.5073 115.764 99.1358 115.71C99.7644 115.656 99.5937 114.723 98.7737 113.566C97.9495 112.409 96.884 111.62 96.3137 111.653L96.3096 111.657Z" fill="white"/>
<path id="Vector_95" opacity="0.5" d="M102.187 108.134C101.192 109.068 101.079 110.555 101.978 111.666C102.877 112.781 104.401 112.922 105.458 111.939C106.515 110.955 106.649 109.373 105.712 108.312C104.776 107.25 103.181 107.2 102.187 108.134Z" fill="white"/>
<path id="Vector_96" d="M118.117 101.959C117.359 100.913 115.199 100.575 113.33 101.327C111.461 102.074 110.646 103.632 111.478 104.677C112.31 105.722 114.375 105.78 116.181 105.032C117.988 104.288 118.875 103.004 118.117 101.959Z" fill="white"/>
<path id="Vector_97" opacity="0.5" d="M130.162 96.522C127.702 97.0301 126.253 98.3892 126.94 99.4467C127.627 100.504 130.137 100.839 132.543 100.355C133.084 100.248 133.571 100.103 134 99.9341V96.5674C132.93 96.2824 131.54 96.237 130.162 96.522Z" fill="white"/>
<path id="Vector_98" d="M4.49122 55.7463C4.14158 54.6682 2.26434 54.3542 0.31218 55.0689C0.20812 55.106 0.10406 55.1515 0 55.1928V59.4559C0.478675 59.3939 0.99065 59.27 1.51511 59.0676C3.50057 58.3033 4.84087 56.8245 4.49122 55.7463Z" fill="white"/>
<path id="Vector_99" d="M18.332 51.76C17.9324 50.7604 16.2175 50.244 14.4943 50.653C12.7752 51.0619 11.6846 52.2681 12.0634 53.2967C12.4422 54.3294 14.1654 54.7673 15.9053 54.3253C17.6452 53.8833 18.7274 52.7556 18.3278 51.76H18.332Z" fill="white"/>
<path id="Vector_100" opacity="0.5" d="M24.6877 50.9297C25.1039 51.9005 26.5816 52.6647 27.8386 52.8464C29.0957 53.0282 29.7658 52.4499 29.3329 51.5204C28.9042 50.5869 27.5473 49.6244 26.3069 49.393C25.0665 49.1576 24.2715 49.959 24.6877 50.9338V50.9297Z" fill="white"/>
<path id="Vector_101" d="M37.3831 54.978C36.9669 54.0568 35.8139 52.8836 34.8233 52.359C33.8326 51.8385 33.3914 52.1566 33.8243 53.0695C34.253 53.9824 35.381 55.1432 36.3592 55.6761C37.3332 56.209 37.8035 55.9033 37.3873 54.978H37.3831Z" fill="white"/>
<path id="Vector_102" d="M40.9872 57.5929C41.3702 58.5512 42.2942 59.9516 43.0934 60.7076C43.8884 61.4676 44.2089 61.2404 43.8593 60.2366C43.5096 59.2328 42.6147 57.8655 41.7781 57.155C40.9414 56.4445 40.6043 56.6345 40.9872 57.5929Z" fill="white"/>
<path id="Vector_103" d="M49.1127 66.1808C48.838 65.0779 48.018 63.5825 47.3312 62.8183C46.6444 62.0499 46.378 62.2606 46.6902 63.314C47.0023 64.3673 47.7391 65.9123 48.3884 66.7302C49.0378 67.5481 49.3874 67.2879 49.1127 66.1808Z" fill="white"/>
<path id="Vector_104" d="M54.2617 72.2819C54.0619 71.0798 53.2835 69.5225 52.5884 68.7583C51.8932 67.9941 51.5727 68.2791 51.8058 69.4399C52.0389 70.6006 52.7132 72.2365 53.3751 73.042C54.0369 73.8475 54.4614 73.484 54.2617 72.2819Z" fill="white"/>
<path id="Vector_105" d="M59.9344 77.7475C59.7887 76.4752 58.977 74.9633 58.1986 74.2982C57.4203 73.6373 56.9874 74.0545 57.158 75.302C57.3287 76.5454 58.0113 78.173 58.7647 78.8587C59.5223 79.5486 60.0801 79.0157 59.9344 77.7475Z" fill="white"/>
<path id="Vector_106" d="M66.7522 81.7915C66.6232 80.515 65.6867 79.1684 64.7459 78.7016C63.8094 78.2348 63.2267 78.8296 63.3557 80.1143C63.4889 81.3991 64.2756 82.882 65.2121 83.3447C66.1487 83.8032 66.8813 83.0679 66.7522 81.7956V81.7915Z" fill="white"/>
<path id="Vector_107" d="M72.8165 81.2295C71.6468 81.0477 70.8851 81.8408 71.0266 83.0842C71.1682 84.3276 72.1671 85.5215 73.3659 85.6454C74.394 85.7528 75.0267 84.939 74.8519 83.7369C74.6771 82.539 73.7905 81.3741 72.8165 81.2253V81.2295Z" fill="white"/>
<path id="Vector_108" d="M79.1187 83.4853C78.4444 83.0722 78.024 83.7248 78.2446 84.8939C78.4652 86.0588 79.2686 87.2774 79.9679 87.6781C80.6713 88.0788 80.9793 87.517 80.7338 86.3645C80.4882 85.212 79.793 83.9025 79.1187 83.4894V83.4853Z" fill="white"/>
<path id="Vector_109" d="M84.6677 90.4455C84.3888 89.2847 83.8602 87.8596 83.4065 87.2978C82.9528 86.736 82.7488 87.24 83.0152 88.3925C83.2816 89.545 83.931 90.9123 84.393 91.4824C84.855 92.0566 84.9424 91.6063 84.6635 90.4455H84.6677Z" fill="white"/>
<path id="Vector_110" d="M87.2805 95.1343C87.0016 93.924 86.5895 92.4492 86.2815 91.842C85.9735 91.2389 85.8902 91.7181 86.1733 92.8995C86.4522 94.0851 86.9933 95.5391 87.2971 96.1712C87.6051 96.7991 87.5594 96.3405 87.2805 95.1343Z" fill="white"/>
<path id="Vector_111" d="M88.3477 97.5674C88.6182 98.8067 89.0969 100.277 89.3341 100.843C89.5714 101.409 89.4757 100.835 89.2134 99.5709C88.9512 98.3027 88.6057 96.8486 88.3643 96.3075C88.1187 95.7663 88.0813 96.3281 88.3518 97.5674H88.3477Z" fill="white"/>
<path id="Vector_112" d="M91.1235 102.929C90.8779 101.611 90.4992 100.228 90.2411 99.8599C89.983 99.4923 89.9123 100.219 90.1662 101.516C90.4201 102.809 90.8988 104.201 91.1485 104.59C91.3982 104.978 91.3691 104.247 91.1235 102.929Z" fill="white"/>
<path id="Vector_113" d="M94.7063 103.974C94.4524 102.644 93.8655 101.698 93.3369 101.719C92.8083 101.739 92.5419 102.731 92.7875 104.065C93.033 105.399 93.7073 106.572 94.2401 106.548C94.7729 106.523 94.9561 105.304 94.7022 103.97L94.7063 103.974Z" fill="white"/>
<path id="Vector_114" d="M101.12 99.3517C100.842 98.0918 99.6219 97.8315 98.7187 98.6536C97.8113 99.4756 97.2785 101.037 97.5491 102.342C97.8196 103.648 98.8186 104.168 99.7551 103.301C100.692 102.429 101.403 100.616 101.12 99.3558V99.3517Z" fill="white"/>
<path id="Vector_115" d="M114.437 93.2092C114.22 91.9865 112.43 91.5114 110.487 92.2467C108.543 92.982 107.194 94.6509 107.431 95.886C107.669 97.1212 109.384 97.431 111.307 96.6874C113.23 95.9439 114.653 94.432 114.437 93.2092Z" fill="white"/>
<path id="Vector_116" d="M132.568 88.6983C132.36 87.459 130.174 86.827 127.689 87.3681C125.204 87.9093 123.356 89.4088 123.56 90.6357C123.768 91.8625 125.95 92.3541 128.439 91.8254C130.928 91.2966 132.776 89.9376 132.568 88.6983Z" fill="white"/>
<path id="Vector_117" d="M0.936539 48.0257C0.753394 47.7242 0.424564 47.4846 0 47.3193V50.1283C0.919889 49.4798 1.32364 48.6743 0.936539 48.0257Z" fill="white"/>
<path id="Vector_118" d="M8.20866 46.0595C8.81637 46.9187 10.6936 47.2864 12.3794 46.9352C14.0651 46.58 14.8935 45.6918 14.2525 44.8905C13.6073 44.0891 11.7675 43.6347 10.115 43.928C8.46256 44.2212 7.60095 45.2003 8.20866 46.0595Z" fill="white"/>
<path id="Vector_119" d="M20.4326 44.3781C21.107 45.1216 22.7927 45.7289 24.0165 46.0139C25.2402 46.2948 25.6731 45.9643 24.9905 45.2538C24.3078 44.5433 22.7678 43.7089 21.5523 43.3908C20.3369 43.0686 19.7625 43.6345 20.4368 44.3781H20.4326Z" fill="white"/>
<path id="Vector_120" d="M33.2532 48.6701C32.608 47.9431 31.2345 46.9723 30.1897 46.4931C29.1449 46.0139 28.8536 46.1916 29.5237 46.8938C30.1939 47.6002 31.5591 48.5751 32.5748 49.079C33.5904 49.583 33.8984 49.4013 33.2532 48.6701Z" fill="white"/>
<path id="Vector_121" d="M37.1615 50.9543C37.7609 51.7309 38.9471 52.8999 39.8337 53.5484C40.7203 54.197 40.891 54.04 40.3374 53.2014C39.7838 52.367 38.6891 51.2104 37.7525 50.6197C36.816 50.0331 36.5621 50.1735 37.1615 50.9543Z" fill="white"/>
<path id="Vector_122" d="M46.2481 58.2411C45.7902 57.2745 44.7621 55.9898 43.9795 55.3495C43.197 54.7092 42.9972 54.9075 43.5009 55.8121C44.0045 56.7168 44.9827 58.0387 45.7153 58.7409C46.4478 59.4432 46.7018 59.2118 46.2439 58.2452L46.2481 58.2411Z" fill="white"/>
<path id="Vector_123" d="M49.3039 61.0171C49.7076 62.0539 50.5984 63.4956 51.3393 64.202C52.0802 64.9084 52.4215 64.5614 52.0635 63.4667C51.7056 62.372 50.744 60.9882 49.9615 60.3396C49.179 59.6911 48.9043 59.9843 49.308 61.0212L49.3039 61.0171Z" fill="white"/>
<path id="Vector_124" d="M58.2528 68.3001C57.9698 67.1104 57.0166 65.706 56.1758 65.1194C55.3308 64.5328 54.9437 64.9541 55.2601 66.1025C55.5764 67.255 56.438 68.738 57.2497 69.3618C58.0613 69.9897 58.5359 69.4898 58.2528 68.296V68.3001Z" fill="white"/>
<path id="Vector_125" d="M63.0731 69.1838C62.1116 68.7252 61.5871 69.2912 61.841 70.5098C62.0949 71.7284 63.0107 73.1453 63.9597 73.6121C64.9087 74.0788 65.5372 73.4096 65.3 72.1869C65.0586 70.9642 64.0346 69.6423 63.0731 69.1838Z" fill="white"/>
<path id="Vector_126" d="M71.1018 72.022C69.9779 71.7453 69.2953 72.464 69.5367 73.6703C69.7781 74.8765 70.852 76.0992 71.9925 76.3347C72.9291 76.5288 73.4494 75.7977 73.1996 74.6245C72.9499 73.4513 72.0342 72.2534 71.1059 72.0262L71.1018 72.022Z" fill="white"/>
<path id="Vector_127" d="M77.2788 74.6159C76.5962 74.1945 76.1966 74.8141 76.438 75.9667C76.6836 77.1192 77.4744 78.3626 78.1446 78.7839C78.8147 79.2053 79.1144 78.6435 78.8855 77.491C78.6524 76.3384 77.9614 75.0372 77.2788 74.6117V74.6159Z" fill="white"/>
<path id="Vector_128" d="M82.9476 81.3992C82.7769 80.2137 82.2816 78.8133 81.7821 78.2928C81.2826 77.7723 80.9996 78.3093 81.2035 79.4743C81.4075 80.6392 82.0027 82.0065 82.4689 82.5476C82.9351 83.0888 83.1182 82.5848 82.9476 81.3992Z" fill="white"/>
<path id="Vector_129" d="M85.1177 82.4027C84.7389 81.8699 84.485 82.4275 84.614 83.6461C84.7431 84.8689 85.1718 86.3147 85.509 86.8847C85.8461 87.4548 85.9918 86.8971 85.9044 85.6414C85.817 84.3856 85.4965 82.9315 85.1135 82.3986L85.1177 82.4027Z" fill="white"/>
<path id="Vector_130" d="M87.2097 87.7853C87.243 89.0865 87.5468 90.5613 87.8257 91.0611C88.1046 91.5609 88.2836 90.867 88.3002 89.5285C88.3169 88.1901 88.1212 86.7402 87.7924 86.2817C87.4636 85.819 87.1764 86.4882 87.2097 87.7895V87.7853Z" fill="white"/>
<path id="Vector_131" d="M89.9695 94.345C90.2609 94.6838 90.5773 93.8204 90.7021 92.4077C90.8228 90.9949 90.6647 89.5863 90.3234 89.2806C89.982 88.9749 89.5949 89.8217 89.52 91.2056C89.4451 92.5894 89.6782 94.0104 89.9695 94.345Z" fill="white"/>
<path id="Vector_132" d="M94.5823 93.2381C94.7862 91.7841 94.5115 90.7431 93.9288 90.7803C93.3502 90.8174 92.7175 91.9163 92.5469 93.3621C92.3762 94.8079 92.7092 96.0637 93.2545 96.0347C93.7997 96.0058 94.3783 94.6922 94.5781 93.2381H94.5823Z" fill="white"/>
<path id="Vector_133" d="M101.068 89.0785C101.313 87.674 100.464 87.2361 99.5528 87.9714C98.6412 88.7067 97.7088 90.3219 97.4757 91.7594C97.2427 93.2011 97.7879 93.8992 98.687 93.1268C99.5861 92.3543 100.822 90.483 101.068 89.0785Z" fill="white"/>
<path id="Vector_134" opacity="0.5" d="M114.52 83.2825C114.74 81.9317 113.313 81.3534 111.386 82.0515C109.463 82.7538 107.756 84.4846 107.515 85.8519C107.273 87.2192 108.605 87.686 110.549 86.9673C112.493 86.2485 114.299 84.6333 114.52 83.2784V83.2825Z" fill="white"/>
<path id="Vector_135" d="M132.356 78.7181C132.498 77.3673 130.642 76.6733 128.227 77.2269C125.813 77.7845 123.715 79.3749 123.532 80.7216C123.349 82.0683 125.18 82.659 127.64 82.1054C130.1 81.556 132.219 80.0689 132.356 78.714V78.7181Z" fill="white"/>
<path id="Vector_136" opacity="0.5" d="M8.70423 39.2968C7.91753 38.6318 6.04862 38.1567 4.48772 38.2972C2.92682 38.4335 2.22754 39.1936 2.96844 39.933C3.70935 40.6766 5.6407 41.0566 7.24739 40.8377C8.85407 40.6229 9.48676 39.9578 8.70006 39.2927L8.70423 39.2968Z" fill="white"/>
<path id="Vector_137" d="M19.0932 40.4413C18.2608 39.8877 16.6083 39.14 15.397 38.7559C14.1858 38.3717 13.7737 38.7146 14.5979 39.3011C15.4262 39.8877 17.2035 40.4454 18.4189 40.8048C19.6302 41.16 19.9299 40.9948 19.0974 40.4413H19.0932Z" fill="white"/>
<path id="Vector_138" d="M23.7595 42.077C24.5712 42.6388 26.1071 43.4608 27.1852 43.907C28.2632 44.3531 28.5047 44.2292 27.7263 43.6385C26.9479 43.0478 25.412 42.2464 24.3007 41.8333C23.1893 41.4202 22.9479 41.5193 23.7595 42.0811V42.077Z" fill="white"/>
<path id="Vector_139" d="M32.0139 45.4895C32.7423 46.1421 34.1326 47.0964 35.1274 47.6086C36.1264 48.1208 36.2346 47.9763 35.5603 47.2575C34.886 46.5387 33.6539 45.5721 32.6008 45.1301C31.5477 44.6839 31.2897 44.8368 32.0139 45.4895Z" fill="white"/>
<path id="Vector_140" d="M39.1475 49.306C39.7635 50.0991 40.9332 51.2144 41.7698 51.7762C42.6064 52.3421 42.8437 52.086 42.2776 51.2185C41.7157 50.3511 40.5252 49.2605 39.6345 48.7689C38.7437 48.2774 38.5273 48.5128 39.1433 49.306H39.1475Z" fill="white"/>
<path id="Vector_141" d="M48.1839 56.1924C49.0206 56.7708 49.3536 56.399 48.904 55.3869C48.4545 54.3749 47.3514 53.1563 46.4607 52.6482C45.5699 52.1401 45.2744 52.4747 45.7781 53.4206C46.2817 54.3666 47.3473 55.6183 48.1881 56.1924H48.1839Z" fill="white"/>
<path id="Vector_142" d="M52.4753 57.5599C52.8749 58.6381 53.8905 59.9724 54.7729 60.5094C55.6595 61.0464 56.1132 60.5424 55.7553 59.4188C55.3973 58.2952 54.3317 57.0064 53.4077 56.5189C52.4836 56.0274 52.0757 56.4818 52.4753 57.5599Z" fill="white"/>
<path id="Vector_143" d="M60.7912 60.088C59.788 59.6542 59.2677 60.2201 59.5924 61.3809C59.9171 62.5417 60.9368 63.8801 61.9192 64.3262C62.9015 64.7724 63.4842 64.1486 63.1845 62.9713C62.8807 61.794 61.7943 60.5176 60.7953 60.088H60.7912Z" fill="white"/>
<path id="Vector_144" opacity="0.5" d="M71.1237 65.71C70.8365 64.5658 69.8625 63.3678 68.9094 63.0704C67.8022 62.7275 67.1611 63.372 67.4567 64.541C67.7522 65.71 68.8719 66.941 69.9833 67.2509C70.9198 67.5152 71.4109 66.8502 71.1237 65.71Z" fill="white"/>
<path id="Vector_145" d="M77.2074 68.6842C77.0035 67.5441 76.2459 66.3089 75.4884 65.8958C74.7266 65.4786 74.2854 66.0487 74.531 67.1805C74.7808 68.3124 75.6049 69.5517 76.325 69.973C77.0451 70.3944 77.4114 69.8284 77.2074 68.6883V68.6842Z" fill="white"/>
<path id="Vector_146" d="M80.7298 69.3203C80.1179 68.8577 79.7225 69.3658 79.8682 70.5266C80.0138 71.6873 80.6174 73.0216 81.171 73.5091C81.7246 74.0006 82.0617 73.4388 81.9785 72.245C81.8952 71.0553 81.3416 69.783 80.7298 69.3162V69.3203Z" fill="white"/>
<path id="Vector_147" d="M85.0454 72.8686C84.5251 72.4225 84.1131 72.9636 84.1172 74.1988C84.1214 75.4339 84.5293 76.8343 84.9788 77.3259C85.4284 77.8174 85.7988 77.1648 85.8696 75.8883C85.9404 74.6119 85.5657 73.323 85.0496 72.8728L85.0454 72.8686Z" fill="white"/>
<path id="Vector_148" d="M88.8514 76.0493C88.3728 75.6817 87.8733 76.322 87.7193 77.6563C87.5652 78.9864 87.8025 80.4198 88.2021 80.8329C88.6017 81.246 89.0762 80.4405 89.3135 79.0649C89.5507 77.6852 89.3301 76.4211 88.8514 76.0535V76.0493Z" fill="white"/>
<path id="Vector_149" d="M92.5512 78.3792C92.06 78.152 91.4274 78.9492 91.1027 80.3785C90.778 81.8078 90.8904 83.2123 91.3025 83.4725C91.7187 83.7369 92.3764 82.762 92.7801 81.2914C93.1839 79.8208 93.0424 78.6022 92.5512 78.375V78.3792Z" fill="white"/>
<path id="Vector_150" d="M97.5494 81.7543C98.0989 80.23 97.8991 79.3377 97.1998 79.4038C96.5005 79.4699 95.6139 80.4737 95.1269 81.9815C94.6441 83.4893 94.7773 84.7698 95.4141 84.7203C96.051 84.6666 97 83.2786 97.5494 81.7543Z" fill="white"/>
<path id="Vector_151" d="M103.577 76.731C102.59 77.3919 101.404 78.8212 100.796 80.3414C100.184 81.8615 100.442 82.6753 101.387 81.9813C102.332 81.2832 103.905 79.4119 104.546 77.9248C105.187 76.4336 104.563 76.07 103.577 76.731Z" fill="white"/>
<path id="Vector_152" d="M117.555 72.5711C118.108 71.1419 116.922 70.6792 115.082 71.3401C113.247 72.0011 111.424 73.546 110.824 74.9918C110.225 76.4418 111.203 77.0284 113.084 76.3468C114.97 75.6652 117.001 73.9963 117.555 72.567V72.5711Z" fill="white"/>
<path id="Vector_153" d="M131.036 66.6186C128.76 67.1845 126.624 68.651 126.141 70.0679C125.659 71.4848 127.153 72.1457 129.5 71.5839C131.34 71.1461 133.113 70.0927 134 68.9732V66.6847C133.38 66.3377 132.314 66.2964 131.036 66.6145V66.6186Z" fill="white"/>
<path id="Vector_154" d="M1.29867 35.6744C2.80545 35.6248 3.32575 35.1869 2.50992 34.6375C1.97298 34.274 1.01146 33.9312 0 33.7246V35.6083C0.441214 35.662 0.882428 35.6868 1.29867 35.6744Z" fill="white"/>
<path id="Vector_155" d="M8.06254 35.2407C8.92415 35.7116 10.6807 36.2858 11.8961 36.6989C13.1074 37.1161 13.3779 37.0624 12.508 36.6204C11.638 36.1784 9.95226 35.5134 8.74101 35.0755C7.52975 34.6417 7.20092 34.7698 8.0667 35.2407H8.06254Z" fill="white"/>
<path id="Vector_156" d="M17.337 38.1858C18.1862 38.6444 19.8095 39.3425 20.9625 39.7184C22.1155 40.0943 22.3819 39.9704 21.5702 39.4705C20.7544 38.9707 19.1352 38.3304 17.9489 37.9958C16.7626 37.6612 16.4879 37.7273 17.337 38.1858Z" fill="white"/>
<path id="Vector_157" d="M30.215 42.0647C29.5074 41.4203 28.1962 40.6271 27.0183 40.3421C25.8403 40.0571 25.5032 40.2636 26.2649 40.8337C27.0266 41.4037 28.55 42.1721 29.6697 42.5356C30.7894 42.8991 30.9226 42.705 30.215 42.0647Z" fill="white"/>
<path id="Vector_158" d="M34.253 43.486C34.9023 44.2171 36.201 45.1466 37.1583 45.5555C38.1115 45.9645 38.4029 45.6299 37.8077 44.8202C37.2125 44.0106 35.918 43.0894 34.9065 42.7631C33.8992 42.4326 33.6037 42.7548 34.253 43.486Z" fill="white"/>
<path id="Vector_159" d="M45.2984 47.811C44.8156 46.8361 43.6168 45.7621 42.6137 45.4027C41.6147 45.0475 41.2359 45.4812 41.7687 46.3818C42.3015 47.2823 43.5003 48.3728 44.4493 48.8066C45.3983 49.2403 45.7813 48.7901 45.2984 47.811Z" fill="white"/>
<path id="Vector_160" d="M52.8798 50.9131C52.4927 49.806 51.3564 48.6081 50.3407 48.2321C49.3251 47.8562 48.8548 48.3974 49.2835 49.4466C49.7122 50.5 50.8361 51.7145 51.8101 52.1482C52.7841 52.582 53.2669 52.0243 52.8798 50.9131Z" fill="white"/>
<path id="Vector_161" opacity="0.5" d="M58.2439 51.1734C57.195 50.7851 56.6373 51.4006 56.9911 52.5572C57.3407 53.7139 58.4437 54.9986 59.4677 55.4117C60.4916 55.8248 61.0744 55.1886 60.7455 54.0072C60.4167 52.8299 59.2929 51.5617 58.2481 51.1734H58.2439Z" fill="white"/>
<path id="Vector_162" d="M65.084 55.6015C65.4045 56.7829 66.5617 58.0511 67.6522 58.427C68.6304 58.7657 69.1424 58.1502 68.8344 56.9977C68.5263 55.8452 67.4899 54.5522 66.4868 54.1763C65.4129 53.7715 64.7635 54.4201 65.084 55.6015Z" fill="white"/>
<path id="Vector_163" d="M75.5688 60.2323C75.3565 59.117 74.5241 57.8612 73.6624 57.4233C72.8008 56.9854 72.2805 57.5431 72.5428 58.6667C72.805 59.7903 73.7124 61.042 74.5199 61.4716C75.3316 61.9012 75.7769 61.3476 75.5688 60.2323Z" fill="white"/>
<path id="Vector_164" d="M79.8391 60.7943C79.0857 60.3606 78.5613 60.91 78.7028 62.0253C78.8443 63.1448 79.5478 64.4171 80.2304 64.8633C80.913 65.3094 81.3751 64.7517 81.3043 63.6199C81.2294 62.488 80.5925 61.2281 79.8391 60.7943Z" fill="white"/>
<path id="Vector_165" d="M86.3741 66.8088C86.4657 65.6233 86.0162 64.3634 85.3294 63.975C84.6467 63.5867 84.0557 64.194 84.0432 65.3506C84.0307 66.5073 84.5385 67.7961 85.1379 68.2092C85.7373 68.6223 86.2784 67.9903 86.37 66.8047L86.3741 66.8088Z" fill="white"/>
<path id="Vector_166" d="M88.9004 68.2918C88.7131 69.5104 89.0419 70.791 89.6122 71.1215C90.1824 71.4561 90.8443 70.6877 91.119 69.4402C91.3937 68.1885 91.1065 66.9534 90.4488 66.6519C89.7912 66.3503 89.0877 67.0732 88.9004 68.2918Z" fill="white"/>
<path id="Vector_167" d="M95.5142 68.5108C94.844 68.3373 93.9866 69.2048 93.6119 70.4895C93.2373 71.7701 93.4246 73.0052 94.0074 73.2035C94.5901 73.4018 95.4476 72.5054 95.9096 71.2C96.3675 69.8947 96.1843 68.6885 95.5142 68.515V68.5108Z" fill="white"/>
<path id="Vector_168" d="M101.817 71.4475C102.437 70.1173 102.241 69.1879 101.397 69.2581C100.552 69.3283 99.4319 70.3776 98.8866 71.7077C98.3413 73.0337 98.512 74.145 99.282 74.0747C100.056 74.0045 101.197 72.7776 101.817 71.4475Z" fill="white"/>
<path id="Vector_169" d="M109.521 68.0647C110.241 66.8006 109.812 66.3503 108.73 66.9121C107.648 67.4781 106.241 68.8784 105.554 70.1838C104.863 71.4892 105.109 72.179 106.141 71.5676C107.173 70.9563 108.801 69.3287 109.521 68.0605V68.0647Z" fill="white"/>
<path id="Vector_170" d="M121.841 62.9587C122.462 61.7235 121.492 61.2361 119.769 61.8846C118.045 62.5373 116.176 64.0823 115.502 65.3257C114.828 66.569 115.635 67.0234 117.417 66.3666C119.198 65.7098 121.221 64.1938 121.846 62.9587H121.841Z" fill="white"/>
<path id="Vector_171" d="M129.884 60.4141C129.339 61.6575 130.637 62.1698 132.831 61.5873C133.222 61.484 133.618 61.3477 134.001 61.1949V57.2788C132.119 57.9769 130.371 59.3029 129.884 60.4141Z" fill="white"/>
<path id="Vector_172" d="M1.42835 31.9233C2.28164 32.324 3.96741 32.9643 5.18283 33.4187C6.39825 33.8731 6.67713 33.8855 5.81967 33.5137C4.96222 33.1419 3.28061 32.5223 2.06519 32.0514C0.849774 31.5805 0.575056 31.5268 1.42835 31.9275V31.9233Z" fill="white"/>
<path id="Vector_173" opacity="0.5" d="M10.8136 34.9512C11.6502 35.3436 13.3277 35.9302 14.5514 36.2152C15.7793 36.5002 16.1165 36.3433 15.3215 35.9095C14.5223 35.4758 12.8532 34.9718 11.592 34.7281C10.3308 34.4885 9.98113 34.5587 10.8136 34.9512Z" fill="white"/>
<path id="Vector_174" d="M20.4425 36.7196C21.1875 37.2277 22.8025 37.8184 24.0471 38.0167C25.2916 38.2109 25.4914 37.9465 24.8005 37.3599C24.1095 36.7733 22.7651 36.1454 21.4622 36.0339C20.1594 35.9182 19.6974 36.2115 20.4425 36.7196Z" fill="white"/>
<path id="Vector_175" d="M29.3038 38.095C29.9324 38.7724 31.3226 39.516 32.3965 39.7514C33.4662 39.9869 33.8575 39.5614 33.2873 38.8013C32.717 38.0413 31.3517 37.3018 30.2279 37.149C29.0999 36.9961 28.6795 37.4175 29.308 38.095H29.3038Z" fill="white"/>
<path id="Vector_176" opacity="0.5" d="M40.5784 41.6932C41.6398 41.9617 42.1185 41.4288 41.6648 40.4994C41.2111 39.5699 39.9541 38.657 38.8385 38.4628C37.723 38.2687 37.2152 38.8098 37.7272 39.6608C38.235 40.5117 39.5212 41.4247 40.5826 41.6932H40.5784Z" fill="white"/>
<path id="Vector_177" d="M48.7246 43.9237C49.786 44.2335 50.3479 43.6221 49.99 42.5563C49.632 41.4864 48.4665 40.4083 47.3593 40.1563C46.2563 39.9043 45.6694 40.5239 46.069 41.5319C46.4686 42.5398 47.6632 43.6097 48.7246 43.9195V43.9237Z" fill="white"/>
<path id="Vector_178" d="M55.8087 42.3913C54.714 42.0567 54.0688 42.7053 54.3852 43.8248C54.7015 44.9442 55.8379 46.138 56.9118 46.4974C57.9857 46.8568 58.6059 46.2248 58.3103 45.0805C58.0148 43.9363 56.9034 42.7259 55.8087 42.3913Z" fill="white"/>
<path id="Vector_179" d="M66.6016 48.2362C66.3352 47.1126 65.2655 45.7783 64.1999 45.3239C63.1468 44.8737 62.4434 45.4892 62.7306 46.6375C63.0136 47.7859 64.1708 49.0376 65.2322 49.4672C66.2644 49.8844 66.868 49.3639 66.6016 48.2362Z" fill="white"/>
<path id="Vector_180" d="M74.1286 51.7432C73.9704 50.6485 73.0755 49.4092 72.0973 48.959C71.1192 48.5046 70.4657 49.0168 70.6821 50.1156C70.8986 51.2144 71.8601 52.4785 72.78 52.9246C73.704 53.3708 74.2868 52.8379 74.1286 51.7432Z" fill="white"/>
<path id="Vector_181" d="M79.335 52.2389C78.4276 51.8424 77.7325 52.3959 77.8199 53.4947C77.9073 54.5977 78.6815 55.8369 79.514 56.2541C80.3465 56.6714 80.9875 56.0848 80.975 54.9653C80.9625 53.8458 80.2466 52.6355 79.335 52.2389Z" fill="white"/>
<path id="Vector_182" d="M86.1273 55.0234C85.2616 54.7012 84.4749 55.3498 84.3958 56.494C84.3167 57.6424 84.9078 58.8776 85.6861 59.2328C86.4645 59.5881 87.2096 58.9023 87.3719 57.7209C87.5342 56.5395 86.9931 55.3457 86.1273 55.0193V55.0234Z" fill="white"/>
<path id="Vector_183" d="M92.6962 57.1631C91.8471 56.9318 90.9272 57.7125 90.6608 58.927C90.3944 60.1456 90.8107 61.3684 91.5641 61.6327C92.3216 61.8971 93.2082 61.0751 93.5703 59.8234C93.9283 58.5718 93.5454 57.3945 92.6962 57.1631Z" fill="white"/>
<path id="Vector_184" d="M96.8469 60.6042C96.3849 61.893 96.643 63.0827 97.413 63.2273C98.183 63.3718 99.2736 62.4259 99.8272 61.1081C100.381 59.7904 100.114 58.6255 99.2528 58.5098C98.3912 58.3941 97.3048 59.3153 96.8428 60.6042H96.8469Z" fill="white"/>
<path id="Vector_185" d="M107.019 61.1659C107.743 59.8192 107.497 58.865 106.494 58.9435C105.487 59.022 104.159 60.1043 103.51 61.4468C102.86 62.7893 103.073 63.8881 104.005 63.8138C104.933 63.7394 106.294 62.5084 107.019 61.1659Z" fill="white"/>
<path id="Vector_186" d="M115.545 58.2453C116.381 56.9565 116.102 56.4277 114.904 56.8987C113.705 57.3696 112.119 58.741 111.316 60.067C110.516 61.3931 110.754 62.1531 111.898 61.6368C113.043 61.1204 114.708 59.53 115.54 58.2412L115.545 58.2453Z" fill="white"/>
<path id="Vector_187" d="M127.048 53.3832C127.772 52.1315 126.99 51.6275 125.391 52.2637C123.793 52.8999 121.941 54.4324 121.154 55.6965C120.367 56.9605 120.992 57.4562 122.652 56.8159C124.313 56.1715 126.324 54.639 127.048 53.3873V53.3832Z" fill="white"/>
<path id="Vector_188" d="M4.69988 32.0721C5.44495 32.4357 7.11407 32.9437 8.4169 33.1338C9.71973 33.3279 10.1942 33.1007 9.48663 32.6918C8.77903 32.2828 7.12655 31.8904 5.78626 31.7417C4.44597 31.593 3.95897 31.7045 4.69988 32.068V32.0721Z" fill="white"/>
<path id="Vector_189" d="M19.8 32.9766C19.2006 32.419 17.877 31.9356 16.4451 31.9935C15.0132 32.0513 14.3722 32.4561 15.0257 32.9395C15.6792 33.4186 17.3317 33.8565 18.7053 33.8772C20.0747 33.8978 20.3994 33.5384 19.8 32.9766Z" fill="white"/>
<path id="Vector_190" d="M29.1858 33.0882C28.703 32.357 27.3294 31.7787 26.0807 31.8035C24.832 31.8283 24.2326 32.3736 24.7695 33.0221C25.3106 33.6707 26.7383 34.2407 27.9288 34.3027C29.1192 34.3605 29.6645 33.8194 29.1817 33.0882H29.1858Z" fill="white"/>
<path id="Vector_191" d="M38.4641 33.4724C38.0978 32.5719 36.8324 31.8077 35.6045 31.7829C34.3766 31.7581 33.6898 32.4149 34.1102 33.237C34.5306 34.059 35.8543 34.8026 37.0281 34.9059C38.2019 35.0091 38.8304 34.373 38.4641 33.4724Z" fill="white"/>
<path id="Vector_192" d="M43.2978 33.9022C43.61 34.8813 44.8254 35.8107 45.9784 35.9966C47.1313 36.1825 47.814 35.5092 47.5434 34.4682C47.2729 33.4313 46.1199 32.4647 44.9253 32.3366C43.7307 32.2086 42.9814 32.9232 43.2936 33.9022H43.2978Z" fill="white"/>
<path id="Vector_193" d="M56.3387 36.4054C56.1264 35.29 55.0692 34.1334 53.9245 33.8566C52.7799 33.5799 52.0057 34.2697 52.2388 35.3561C52.4719 36.4426 53.5999 37.5496 54.7196 37.8512C55.8392 38.1527 56.5468 37.5207 56.3387 36.4054Z" fill="white"/>
<path id="Vector_194" d="M62.4653 36.7153C61.4247 36.2278 60.638 36.802 60.8378 37.9174C61.0376 39.0368 62.1448 40.272 63.1895 40.7388C64.2926 41.2345 65.021 40.7966 64.8379 39.6978C64.6547 38.6031 63.5975 37.244 62.4653 36.7112V36.7153Z" fill="white"/>
<path id="Vector_195" opacity="0.5" d="M71.0733 40.6849C69.9744 40.2222 69.1669 40.689 69.3043 41.763C69.4417 42.8371 70.4323 44.1011 71.4729 44.5596C72.5177 45.0182 73.2627 44.5018 73.1795 43.4319C73.0962 42.362 72.168 41.1475 71.0733 40.689V40.6849Z" fill="white"/>
<path id="Vector_196" d="M79.3609 43.8246C78.2995 43.4693 77.4212 44.0311 77.4337 45.1093C77.4462 46.1916 78.2829 47.3937 79.2777 47.7696C80.2683 48.1455 81.0966 47.5341 81.1549 46.4353C81.2132 45.3324 80.4223 44.1798 79.3609 43.8246Z" fill="white"/>
<path id="Vector_197" d="M87.4487 46.1583C86.4039 45.9063 85.4216 46.5961 85.2718 47.728C85.1261 48.8599 85.8004 50.0372 86.7619 50.3222C87.7234 50.6072 88.6724 49.8719 88.9014 48.7029C89.1345 47.5339 88.4893 46.4103 87.4445 46.1583H87.4487Z" fill="white"/>
<path id="Vector_198" d="M95.4519 47.7075C94.4113 47.5547 93.2874 48.3891 92.9586 49.5994C92.6298 50.8098 93.1459 51.9664 94.0991 52.1565C95.0523 52.3465 96.1511 51.4666 96.5715 50.2191C96.9878 48.9715 96.4925 47.8603 95.4519 47.7116V47.7075Z" fill="white"/>
<path id="Vector_199" d="M104.319 50.9791C104.926 49.6614 104.548 48.5502 103.49 48.4924C102.437 48.4386 101.159 49.4135 100.639 50.7024C100.119 51.9871 100.485 53.1231 101.451 53.2098C102.417 53.2966 103.711 52.2969 104.319 50.9791Z" fill="white"/>
<path id="Vector_200" d="M112.081 48.5665C110.912 48.6615 109.417 49.7727 108.718 51.1194C108.019 52.4661 108.319 53.5442 109.413 53.4575C110.508 53.3707 112.044 52.1397 112.814 50.7889C113.588 49.434 113.247 48.4715 112.077 48.5665H112.081Z" fill="white"/>
<path id="Vector_201" opacity="0.5" d="M122.179 48.2859C123.057 46.9846 122.874 46.3815 121.563 46.7657C120.252 47.154 118.537 48.48 117.692 49.8184C116.847 51.1568 117.142 51.9748 118.4 51.5493C119.661 51.1238 121.297 49.5871 122.179 48.2859Z" fill="white"/>
<path id="Vector_202" d="M132.848 43.7213C133.622 42.4613 132.981 41.9532 131.508 42.5646C130.034 43.176 128.244 44.6837 127.412 45.9519C126.579 47.2242 127.062 47.7613 128.594 47.1375C130.126 46.5137 132.074 44.9812 132.848 43.7213Z" fill="white"/>
<path id="Vector_203" d="M4.62858 29.5438C4.08747 29.1266 2.50992 28.8127 1.09887 28.7507C0.653496 28.73 0.283043 28.7342 0 28.7631V29.4571C0.740906 29.7752 2.00211 30.0974 3.13012 30.18C4.50787 30.2833 5.17386 29.961 4.63275 29.5438H4.62858Z" fill="white"/>
<path id="Vector_204" d="M10.5857 29.2426C11.0768 29.73 12.7085 30.0357 14.2028 29.887C15.6971 29.7383 16.2007 29.255 15.7595 28.6973C15.3183 28.1355 14.0779 27.7679 12.5253 27.9909C10.9728 28.214 10.0945 28.7552 10.5857 29.2426Z" fill="white"/>
<path id="Vector_205" d="M21.1868 28.061C21.5698 28.7055 22.9808 29.1309 24.292 29.0153C25.599 28.8996 26.3524 28.2263 26.0235 27.4992C25.6947 26.7722 24.3669 26.3343 23.0016 26.5285C21.6405 26.7226 20.8039 27.4084 21.1868 28.0569V28.061Z" fill="white"/>
<path id="Vector_206" d="M31.4146 26.9624C31.6851 27.7762 32.9921 28.3711 34.2825 28.3091C35.5686 28.2513 36.3928 27.4994 36.1722 26.6154C35.9516 25.7273 34.7362 25.0953 33.4 25.2275C32.0597 25.3596 31.1482 26.1486 31.4187 26.9624H31.4146Z" fill="white"/>
<path id="Vector_207" d="M41.4156 26.4544C41.5821 27.4169 42.7726 28.2183 44.013 28.2802C45.2534 28.3422 46.1067 27.5986 45.9776 26.5824C45.8486 25.5662 44.7622 24.6988 43.4802 24.6905C42.1982 24.6822 41.245 25.4919 41.4115 26.4544H41.4156Z" fill="white"/>
<path id="Vector_208" d="M55.2098 27.958C55.1349 26.8716 54.1734 25.7604 52.9871 25.5332C51.8008 25.306 50.856 26.0372 50.9475 27.0988C51.0433 28.1604 52.1172 29.1849 53.2826 29.4328C54.4481 29.6806 55.2848 29.0445 55.2098 27.958Z" fill="white"/>
<path id="Vector_209" d="M61.8912 32.2662C63.0525 32.8404 63.9349 32.4728 63.8766 31.4111C63.8184 30.3495 62.8235 28.9739 61.6414 28.3625C60.6133 27.8297 59.7142 28.3625 59.7808 29.4448C59.8474 30.5313 60.8589 31.754 61.8912 32.2662Z" fill="white"/>
<path id="Vector_210" d="M68.6663 33.6253C68.6872 34.6704 69.6736 35.9262 70.8266 36.3929C71.9796 36.8556 72.8995 36.3516 72.9203 35.3107C72.9411 34.2697 72.0129 33.0882 70.8183 32.6215C69.6237 32.1547 68.6455 32.5801 68.6663 33.6253Z" fill="white"/>
<path id="Vector_211" d="M80.0178 35.5792C78.819 35.2694 77.7617 35.8395 77.6827 36.897C77.6036 37.9545 78.486 39.1111 79.6223 39.4416C80.7587 39.7721 81.7785 39.1359 81.9158 38.0577C82.0573 36.9796 81.2165 35.889 80.0178 35.5833V35.5792Z" fill="white"/>
<path id="Vector_212" d="M89.2588 37.4215C88.0517 37.248 86.8862 37.9751 86.6698 39.0904C86.4533 40.2058 87.2109 41.3087 88.343 41.5194C89.4752 41.7301 90.6157 40.9452 90.9071 39.7927C91.1943 38.6443 90.4617 37.5992 89.2588 37.4215Z" fill="white"/>
<path id="Vector_213" opacity="0.5" d="M95.6733 40.3587C95.2987 41.5525 95.923 42.6348 97.0593 42.7422C98.1957 42.8496 99.4819 41.9119 99.9356 40.6768C100.389 39.4416 99.7732 38.4089 98.5578 38.3428C97.3424 38.2767 96.0479 39.1649 95.6733 40.3587Z" fill="white"/>
<path id="Vector_214" d="M109.064 40.8749C109.684 39.5654 109.168 38.512 107.944 38.5285C106.716 38.545 105.285 39.5736 104.743 40.8501C104.202 42.1265 104.694 43.1964 105.842 43.2171C106.991 43.2336 108.448 42.1885 109.068 40.879L109.064 40.8749Z" fill="white"/>
<path id="Vector_215" d="M118.757 40.396C119.519 39.0452 119.048 38.0827 117.741 38.1984C116.43 38.314 114.823 39.4542 114.124 40.7967C113.425 42.1392 113.845 43.1844 115.094 43.0811C116.339 42.9778 117.995 41.7509 118.761 40.4001L118.757 40.396Z" fill="white"/>
<path id="Vector_216" d="M128.875 38.2769C129.729 36.9757 129.562 36.2941 128.155 36.6039C126.749 36.9096 124.975 38.1984 124.155 39.5368C123.335 40.8752 123.731 41.7386 125.096 41.3957C126.461 41.0528 128.026 39.5822 128.88 38.281L128.875 38.2769Z" fill="white"/>
<path id="Vector_217" d="M133.787 36.1908C133.154 37.178 133.258 37.7398 133.999 37.6613V35.8975C133.928 35.9966 133.849 36.0957 133.787 36.1908Z" fill="white"/>
<path id="Vector_218" d="M1.33197 26.1899C1.16547 25.9379 0.661821 25.7396 0 25.6157V27.0367C1.01146 26.9293 1.58171 26.57 1.33197 26.1899Z" fill="white"/>
<path id="Vector_219" d="M11.0807 25.814C12.6916 25.5042 13.4283 24.8846 13.216 24.2939C13.0038 23.7031 11.909 23.414 10.2441 23.794C8.57913 24.1741 7.41366 24.8598 7.66757 25.3844C7.92563 25.909 9.46572 26.1197 11.0807 25.814Z" fill="white"/>
<path id="Vector_220" d="M19.0606 23.0215C19.2188 23.6907 20.5507 23.9964 21.9701 23.7155C23.3895 23.4346 24.3968 22.6167 24.2844 21.8773C24.172 21.1337 22.9524 20.8074 21.4831 21.1585C20.0179 21.5096 18.8983 22.3523 19.0606 23.0215Z" fill="white"/>
<path id="Vector_221" opacity="0.5" d="M30.1153 20.6833C30.1736 21.5054 31.4099 21.9722 32.8001 21.7615C34.1945 21.5467 35.2517 20.6833 35.2393 19.7911C35.2268 18.8988 34.1154 18.3742 32.6794 18.6551C31.2392 18.936 30.0571 19.8613 30.1153 20.6833Z" fill="white"/>
<path id="Vector_222" d="M43.2635 20.6832C44.5871 20.6295 45.6444 19.8158 45.7152 18.812C45.7859 17.804 44.8161 17.0192 43.4591 17.1224C42.1022 17.2216 40.9034 18.1304 40.866 19.0887C40.8327 20.0471 41.944 20.7369 43.2635 20.6874V20.6832Z" fill="white"/>
<path id="Vector_223" d="M55.3266 19.7124C55.439 18.6507 54.6232 17.5684 53.3994 17.3826C52.1799 17.1967 51.0269 17.9567 50.927 19.0019C50.8271 20.047 51.8011 20.9971 53.0082 21.2036C54.2153 21.406 55.2101 20.774 55.3225 19.7124H55.3266Z" fill="white"/>
<path id="Vector_224" d="M64.0512 23.3723C64.1636 22.3437 63.2979 20.9681 62.0991 20.27C61.0876 19.6834 60.047 20.1585 59.9305 21.2118C59.8139 22.2652 60.6797 23.488 61.6995 24.0456C62.8983 24.7024 63.9389 24.3967 64.0512 23.3682V23.3723Z" fill="white"/>
<path id="Vector_225" opacity="0.5" d="M73.5629 27.4167C73.7128 26.4047 72.8345 25.2645 71.5775 24.7978C70.3204 24.331 69.1716 24.7193 69.0426 25.7272C68.9177 26.7393 69.8417 27.9868 71.078 28.4536C72.31 28.9204 73.4089 28.4288 73.5588 27.4167H73.5629Z" fill="white"/>
<path id="Vector_226" d="M80.659 31.3039C81.9161 31.5848 83.1065 30.9197 83.3396 29.8664C83.5727 28.8171 82.7153 27.8009 81.4166 27.5448C80.1179 27.2887 78.8942 27.867 78.7027 28.8915C78.5154 29.9201 79.402 31.023 80.659 31.3039Z" fill="white"/>
<path id="Vector_227" d="M90.4073 32.8738C91.6851 33.006 92.9921 32.1674 93.3293 31.0438C93.6706 29.9161 92.8673 28.9618 91.5353 28.8668C90.2033 28.7718 88.8839 29.5402 88.5967 30.6307C88.3094 31.7213 89.1253 32.7416 90.4031 32.8779L90.4073 32.8738Z" fill="white"/>
<path id="Vector_228" opacity="0.5" d="M103.477 31.2583C103.944 30.0438 103.215 29.0978 101.862 29.1185C100.51 29.1392 99.082 30.081 98.6783 31.2542C98.2745 32.4273 98.9988 33.4229 100.289 33.4435C101.584 33.4642 103.011 32.4728 103.473 31.2583H103.477Z" fill="white"/>
<path id="Vector_229" d="M113.746 30.862C114.337 29.569 113.683 28.59 112.318 28.6767C110.953 28.7635 109.421 29.8416 108.888 31.1016C108.355 32.3615 108.976 33.357 110.283 33.3033C111.59 33.2496 113.155 32.1591 113.746 30.862Z" fill="white"/>
<path id="Vector_230" d="M124.393 30.052C125.088 28.7135 124.472 27.7634 123.053 27.9039C121.633 28.0443 119.985 29.2093 119.336 30.5353C118.686 31.8613 119.248 32.8651 120.618 32.737C121.991 32.609 123.698 31.3904 124.393 30.052Z" fill="white"/>
<path id="Vector_231" d="M130.183 29.2838C129.45 30.6098 129.983 31.5062 131.427 31.2418C132.339 31.0725 133.259 30.4611 134 29.7052V26.5161C132.559 26.797 130.894 27.995 130.183 29.2838Z" fill="white"/>
<path id="Vector_232" d="M0 22.0215V22.6989C0.10406 22.5833 0.166496 22.4676 0.170658 22.3478C0.170658 22.2239 0.112385 22.1165 0 22.0215Z" fill="white"/>
<path id="Vector_233" d="M12.7045 19.5347C12.7919 18.882 11.9095 18.6342 10.1488 19.1505C8.38812 19.6669 6.88134 20.5137 6.83139 21.1086C6.78144 21.7034 8.16752 21.8604 9.88659 21.406C11.6057 20.9516 12.6171 20.1833 12.7045 19.5347Z" fill="white"/>
<path id="Vector_234" d="M24.4838 16.032C24.6586 15.2513 23.6055 14.9993 22.0446 15.4909C20.4879 15.9825 19.0477 16.9821 18.9145 17.7009C18.7813 18.4197 19.9717 18.6427 21.491 18.2131C23.0103 17.7835 24.3131 16.8169 24.4838 16.0362V16.032Z" fill="white"/>
<path id="Vector_235" d="M30.698 14.2598C30.4774 15.1107 31.5846 15.4825 33.0705 15.1314C34.5565 14.7802 35.8927 13.793 36.1507 12.8842C36.4088 11.9754 35.4639 11.5292 33.9363 11.9382C32.4129 12.3472 30.9186 13.4088 30.698 14.2639V14.2598Z" fill="white"/>
<path id="Vector_236" d="M44.1708 13.1196C45.5611 12.9709 46.868 12.091 47.1886 11.0872C47.5132 10.0834 46.714 9.35638 45.2947 9.5464C43.8753 9.73642 42.3935 10.7361 42.0979 11.7027C41.8024 12.6693 42.7764 13.2725 44.1708 13.1237V13.1196Z" fill="white"/>
<path id="Vector_237" d="M52.5951 11.0254C52.2496 12.0581 53.0696 12.9587 54.3058 13.1322C55.542 13.3057 56.7283 12.686 57.0821 11.645C57.4318 10.6041 56.8157 9.5383 55.5753 9.37307C54.3349 9.2037 52.9447 9.9927 52.5992 11.0254H52.5951Z" fill="white"/>
<path id="Vector_238" d="M65.7002 15.6108C66.0248 14.6194 65.3672 13.2521 64.2017 12.4672C63.2152 11.8021 62.0081 12.207 61.6668 13.2314C61.3213 14.2517 61.9831 15.4828 62.9821 16.1106C64.1726 16.8542 65.3755 16.6022 65.7002 15.6108Z" fill="white"/>
<path id="Vector_239" d="M70.6987 18.0974C70.3906 19.0723 71.194 20.3033 72.4677 20.7701C73.7414 21.2327 74.9984 20.7535 75.3064 19.7787C75.6144 18.7996 74.8527 17.7049 73.5832 17.2423C72.3137 16.7796 71.0108 17.1266 70.6987 18.1015V18.0974Z" fill="white"/>
<path id="Vector_240" d="M80.6289 21.1212C80.3126 22.1167 81.1576 23.1577 82.4895 23.3849C83.8215 23.6121 85.1618 22.9222 85.4906 21.9019C85.8194 20.8816 85.0036 19.9439 83.655 19.7414C82.3064 19.539 80.9411 20.1256 80.6289 21.1212Z" fill="white"/>
<path id="Vector_241" d="M96.1103 22.4886C96.4933 21.3898 95.6608 20.5306 94.2581 20.5182C92.8512 20.5058 91.4193 21.3155 91.0655 22.373C90.7117 23.4305 91.5483 24.3682 92.9261 24.4219C94.3039 24.4715 95.7316 23.5875 96.1145 22.4886H96.1103Z" fill="white"/>
<path id="Vector_242" d="M101.845 22.3399C101.428 23.4841 102.227 24.3847 103.634 24.3186C105.041 24.2525 106.556 23.2074 107.006 22.0218C107.455 20.8321 106.644 19.9853 105.204 20.0927C103.763 20.2042 102.261 21.1956 101.845 22.3399Z" fill="white"/>
<path id="Vector_243" d="M118.041 21.0016C118.561 19.7293 117.778 18.8329 116.326 18.9981C114.873 19.1634 113.316 20.2828 112.825 21.518C112.338 22.7531 113.079 23.6619 114.499 23.5338C115.918 23.4058 117.52 22.2739 118.041 21.0016Z" fill="white"/>
<path id="Vector_244" d="M129.28 19.8408C129.846 18.523 129.076 17.5977 127.607 17.7671C126.133 17.9364 124.527 19.1179 123.977 20.4232C123.428 21.7286 124.131 22.6745 125.588 22.5217C127.041 22.3689 128.718 21.1585 129.284 19.8449L129.28 19.8408Z" fill="white"/>
<path id="Vector_245" d="M1.71491 17.7423C2.08536 17.135 1.33613 16.7963 0 16.8294V18.8411C0.81583 18.5519 1.47349 18.1388 1.71491 17.7423Z" fill="white"/>
<path id="Vector_246" d="M8.62845 16.168C8.19973 16.8662 9.35687 17.0107 11.1634 16.4366C12.9698 15.8624 14.3018 14.937 14.7597 14.1976C15.2175 13.4541 14.6223 13.2062 12.7784 13.83C10.9344 14.4537 9.05302 15.4699 8.62429 16.168H8.62845Z" fill="white"/>
<path id="Vector_247" d="M25.1951 9.33566C23.5635 9.9429 21.7612 11.0995 21.27 11.8927C20.7788 12.6899 21.757 12.8634 23.3554 12.3058C24.9537 11.7481 26.5937 10.6328 27.1182 9.78593C27.6426 8.9391 26.8268 8.72429 25.1951 9.33153V9.33566Z" fill="white"/>
<path id="Vector_248" d="M33.6439 7.53487C33.0861 8.4354 33.9935 8.74109 35.5544 8.2743C37.1195 7.80751 38.7678 6.7087 39.3547 5.75859C39.9416 4.81262 39.2256 4.41193 37.6314 4.92416C36.0372 5.43638 34.1975 6.63021 33.6397 7.53074L33.6439 7.53487Z" fill="white"/>
<path id="Vector_249" d="M45.5623 4.19694C44.9463 5.18422 45.7246 5.7295 47.1731 5.5023C48.6175 5.2751 50.195 4.34152 50.8277 3.32946C51.4604 2.31326 50.8985 1.61927 49.4375 1.87126C47.9723 2.12324 46.1783 3.20553 45.5623 4.19694Z" fill="white"/>
<path id="Vector_250" d="M59.893 1.46229C58.6485 1.28879 56.996 2.08605 56.3508 3.11464C55.7098 4.14323 56.3134 5.01485 57.5579 5.18008C58.8025 5.34532 60.2135 4.7546 60.8545 3.73427C61.4955 2.71395 61.1334 1.63579 59.8889 1.46642L59.893 1.46229Z" fill="white"/>
<path id="Vector_251" d="M68.3181 4.96095C67.3857 4.20087 65.983 4.51068 65.3586 5.50209C64.7343 6.49351 65.1422 7.74929 66.1037 8.45981C67.2234 9.28598 68.572 9.09183 69.1547 8.1376C69.7375 7.18336 69.3712 5.82017 68.3181 4.96095Z" fill="white"/>
<path id="Vector_252" d="M77.0635 9.95956C75.8523 9.50104 74.4204 9.80672 73.8918 10.7444C73.3632 11.6821 73.9751 12.8925 75.2196 13.3551C76.4683 13.8137 77.8586 13.3469 78.3497 12.4092C78.8409 11.4673 78.2706 10.4181 77.0594 9.9637L77.0635 9.95956Z" fill="white"/>
<path id="Vector_253" d="M83.5935 13.6196C83.1356 14.5779 83.8682 15.5528 85.2168 15.7263C86.5655 15.8998 88.0056 15.1811 88.4469 14.1979C88.8881 13.2148 88.1721 12.3638 86.8443 12.2151C85.5165 12.0664 84.0555 12.6612 83.5977 13.6196H83.5935Z" fill="white"/>
<path id="Vector_254" d="M99.1904 14.1811C99.6108 13.1195 98.7992 12.3594 97.3881 12.4337C95.9771 12.5081 94.4869 13.3508 94.0624 14.3711C93.6378 15.3956 94.4453 16.2383 95.8605 16.2052C97.2799 16.1722 98.77 15.2386 99.1904 14.177V14.1811Z" fill="white"/>
<path id="Vector_255" opacity="0.5" d="M110.337 13.0122C110.749 11.8556 109.887 11.112 108.43 11.3144C106.973 11.5168 105.467 12.5537 105.05 13.6649C104.638 14.7761 105.475 15.5734 106.932 15.4164C108.389 15.2553 109.92 14.1689 110.337 13.0122Z" fill="white"/>
<path id="Vector_256" d="M121.642 11.3557C122.05 10.1164 121.163 9.31087 119.694 9.55047C118.224 9.79006 116.722 10.9508 116.31 12.1529C115.898 13.355 116.738 14.1729 118.208 13.9664C119.677 13.764 121.234 12.5908 121.642 11.3515V11.3557Z" fill="white"/>
<path id="Vector_257" d="M132.96 9.83163C133.342 8.54692 132.427 7.65465 130.97 7.84881C129.513 8.04709 128.04 9.24091 127.644 10.5132C127.245 11.7855 128.085 12.6695 129.559 12.4878C131.032 12.306 132.581 11.1163 132.96 9.83163Z" fill="white"/>
<path id="Vector_258" d="M0.89158 12.4588C0.0507765 13.2767 0.6127 13.9872 2.1736 13.8798C3.7345 13.7765 5.70747 12.9132 6.54411 12.0994C7.58471 11.0873 7.02279 10.414 5.46189 10.5173C3.89683 10.6205 1.92802 11.4467 0.89158 12.4588Z" fill="white"/>
<path id="Vector_259" opacity="0.5" d="M13.6192 10.3105C12.7659 11.145 13.5942 11.3309 15.4673 10.6575C17.3445 9.98832 19.0553 8.91016 19.9335 8.05094C20.9658 7.03887 20.6786 6.56795 18.7972 7.24955C16.9158 7.93114 14.6556 9.30259 13.6192 10.3105Z" fill="white"/>
<path id="Vector_260" d="M28.0802 5.82028C29.741 5.16347 31.7556 3.90355 32.6921 2.97411C33.7077 1.96204 33.1208 1.65222 31.4517 2.3173C29.7868 2.9865 27.6681 4.391 26.6441 5.40306C25.7367 6.29946 26.4194 6.47296 28.0802 5.82028Z" fill="white"/>
<path id="Vector_261" d="M40.7452 1.05337C41.4653 0.805522 42.252 0.425481 42.9971 0H39.8337C39.6921 0.123926 39.5589 0.243722 39.4424 0.359387C38.4809 1.32188 39.1261 1.61104 40.7452 1.05337Z" fill="white"/>
<path id="Vector_262" d="M70.7695 0C70.8653 0.408957 71.0942 0.79726 71.4314 1.11534C72.397 2.01174 73.8788 1.88368 74.7529 0.970757C75.036 0.677464 75.2275 0.342863 75.3523 0H70.7695Z" fill="white"/>
<path id="Vector_263" d="M82.3913 2.6105C81.3174 2.1685 79.8064 2.63116 78.8948 3.69693C78.129 4.59333 78.4328 5.78302 79.5816 6.23742C80.7263 6.69181 82.2206 6.23742 82.9116 5.34102C83.7482 4.25046 83.4652 3.05251 82.3913 2.6105Z" fill="white"/>
<path id="Vector_264" d="M92.2802 6.79546C92.967 5.64295 92.4675 4.68045 91.2437 4.58957C90.02 4.49869 88.4924 5.29595 87.7348 6.41955C87.1188 7.33661 87.6599 8.2454 88.9461 8.36107C90.2281 8.47673 91.7224 7.73317 92.2802 6.79546Z" fill="white"/>
<path id="Vector_265" d="M102.52 6.17149C103.057 4.98593 102.399 4.15562 101.071 4.30433C99.7437 4.45305 98.2119 5.50229 97.6083 6.67133C97.1089 7.64209 97.8248 8.40217 99.2025 8.28237C100.58 8.16258 102.066 7.1753 102.516 6.17149H102.52Z" fill="white"/>
<path id="Vector_266" d="M113.28 4.2921C113.679 3.07762 112.888 2.30102 111.506 2.58192C110.125 2.86282 108.626 4.0773 108.164 5.27938C107.76 6.32863 108.597 7.04327 110.029 6.79129C111.461 6.5393 112.918 5.38679 113.275 4.2921H113.28Z" fill="white"/>
<path id="Vector_267" d="M124.219 1.99515C124.494 0.743491 123.595 -0.049638 122.196 0.256047C120.802 0.565863 119.399 1.84231 119.066 3.07744C118.758 4.22169 119.665 4.95699 121.11 4.67196C122.554 4.39106 123.957 3.18071 124.219 1.99102V1.99515Z" fill="white"/>
<path id="Vector_268" d="M130.275 0C130.117 0.285031 130.004 0.586585 129.954 0.888139C129.754 2.11088 130.708 2.93293 132.127 2.72225C132.818 2.61898 133.484 2.28438 134 1.82998V0H130.279H130.275Z" fill="white"/>
<path id="Vector_269" d="M2.41419 2.64789C3.00525 1.78041 2.91784 0.784867 2.3684 0H0V3.86237C0.911565 3.90781 1.87308 3.44102 2.41419 2.64789Z" fill="white"/>
<path id="Vector_270" d="M13.5777 3.5609C14.3727 2.39186 13.6193 1.65243 12.0584 1.75984C10.4975 1.86311 8.71602 2.75951 7.921 3.92855C7.12598 5.09759 7.61298 6.10139 9.17804 5.99812C10.7431 5.89485 12.7827 4.72994 13.5777 3.5609Z" fill="white"/>
<path id="Vector_271" d="M20.6112 1.83411C19.8245 2.99489 20.6029 3.45755 22.4718 2.78834C24.1617 2.18524 25.7393 1.05751 26.6051 0H22.605C21.7392 0.586585 21.0108 1.2434 20.6112 1.83411Z" fill="white"/>
</g>
<defs>
<clipPath id="clip0_1080_101395">
<rect width="134" height="139" fill="white"/>
</clipPath>
</defs>
</svg>
