<svg width="77" height="77" viewBox="0 0 77 77" fill="none" xmlns="http://www.w3.org/2000/svg">
<path id="Vector (Stroke)" opacity="0.5" fill-rule="evenodd" clip-rule="evenodd" d="M0.320312 3.68018C0.320312 2.02332 1.66346 0.680176 3.32031 0.680176H20.9003V2.68018H3.32031C2.76803 2.68018 2.32031 3.12789 2.32031 3.68018V21.2602H0.320312V3.68018ZM56.0603 0.680176H73.6403C75.2972 0.680176 76.6403 2.02332 76.6403 3.68018V21.2602H74.6403V3.68018C74.6403 3.12789 74.1926 2.68018 73.6403 2.68018H56.0603V0.680176ZM0.320312 74.0002V56.4202H2.32031V74.0002C2.32031 74.5525 2.76803 75.0002 3.32031 75.0002H20.9003V77.0002H3.32031C1.66346 77.0002 0.320312 75.657 0.320312 74.0002ZM76.6403 56.4202V74.0002C76.6403 75.657 75.2972 77.0002 73.6403 77.0002H56.0603V75.0002H73.6403C74.1926 75.0002 74.6403 74.5525 74.6403 74.0002V56.4202H76.6403Z" fill="white"/>
</svg>
