<svg width="597" height="415" viewBox="0 0 597 415" fill="none" xmlns="http://www.w3.org/2000/svg">
<path d="M24.6914 188.225L32.3603 196.571" stroke="white" stroke-width="2" stroke-miterlimit="10"/>
<path d="M60.3993 188.225L52.7266 196.571" stroke="white" stroke-width="2" stroke-miterlimit="10"/>
<path d="M60.3993 227.643L52.7266 219.296" stroke="white" stroke-width="2" stroke-miterlimit="10"/>
<path d="M24.6914 227.643L32.3603 219.296" stroke="white" stroke-width="2" stroke-miterlimit="10"/>
<path d="M109.814 188.225L117.483 196.571" stroke="white" stroke-width="2" stroke-miterlimit="10"/>
<path d="M145.52 188.225L137.848 196.571" stroke="white" stroke-width="2" stroke-miterlimit="10"/>
<path d="M145.52 227.643L137.848 219.296" stroke="white" stroke-width="2" stroke-miterlimit="10"/>
<path d="M109.814 227.643L117.483 219.296" stroke="white" stroke-width="2" stroke-miterlimit="10"/>
<path d="M194.914 188.225L202.587 196.571" stroke="white" stroke-width="2" stroke-miterlimit="10"/>
<path d="M230.63 188.225L222.957 196.571" stroke="white" stroke-width="2" stroke-miterlimit="10"/>
<path d="M230.63 227.643L222.957 219.296" stroke="white" stroke-width="2" stroke-miterlimit="10"/>
<path d="M194.914 227.643L202.587 219.296" stroke="white" stroke-width="2" stroke-miterlimit="10"/>
<path d="M280.029 188.225L287.702 196.571" stroke="white" stroke-width="2" stroke-miterlimit="10"/>
<path d="M315.729 188.225L308.061 196.571" stroke="white" stroke-width="2" stroke-miterlimit="10"/>
<path d="M315.747 227.643L308.078 219.296" stroke="white" stroke-width="2" stroke-miterlimit="10"/>
<path d="M280.029 227.643L287.702 219.296" stroke="white" stroke-width="2" stroke-miterlimit="10"/>
<path d="M365.148 188.225L372.82 196.571" stroke="white" stroke-width="2" stroke-miterlimit="10"/>
<path d="M400.849 188.225L393.182 196.571" stroke="white" stroke-width="2" stroke-miterlimit="10"/>
<path d="M400.849 227.643L393.182 219.296" stroke="white" stroke-width="2" stroke-miterlimit="10"/>
<path d="M365.148 227.643L372.82 219.296" stroke="white" stroke-width="2" stroke-miterlimit="10"/>
<path d="M450.27 188.225L457.941 196.571" stroke="white" stroke-width="2" stroke-miterlimit="10"/>
<path d="M485.968 188.225L478.301 196.571" stroke="white" stroke-width="2" stroke-miterlimit="10"/>
<path d="M485.968 227.643L478.301 219.296" stroke="white" stroke-width="2" stroke-miterlimit="10"/>
<path d="M450.27 227.643L457.941 219.296" stroke="white" stroke-width="2" stroke-miterlimit="10"/>
<path d="M535.371 188.225L543.042 196.571" stroke="white" stroke-width="2" stroke-miterlimit="10"/>
<path d="M571.088 188.225L563.412 196.571" stroke="white" stroke-width="2" stroke-miterlimit="10"/>
<path d="M571.088 227.643L563.412 219.296" stroke="white" stroke-width="2" stroke-miterlimit="10"/>
<path d="M535.371 227.643L543.042 219.296" stroke="white" stroke-width="2" stroke-miterlimit="10"/>
<path d="M24.6914 108.823L32.3603 117.169" stroke="white" stroke-width="2" stroke-miterlimit="10"/>
<path d="M60.4126 108.823L52.7441 117.169" stroke="white" stroke-width="2" stroke-miterlimit="10"/>
<path d="M60.4126 148.243L52.7441 139.896" stroke="white" stroke-width="2" stroke-miterlimit="10"/>
<path d="M24.6914 148.243L32.3603 139.896" stroke="white" stroke-width="2" stroke-miterlimit="10"/>
<path d="M109.814 108.823L117.487 117.169" stroke="white" stroke-width="2" stroke-miterlimit="10"/>
<path d="M145.516 108.823L137.848 117.169" stroke="white" stroke-width="2" stroke-miterlimit="10"/>
<path d="M145.516 148.243L137.848 139.896" stroke="white" stroke-width="2" stroke-miterlimit="10"/>
<path d="M109.814 148.243L117.487 139.896" stroke="white" stroke-width="2" stroke-miterlimit="10"/>
<path d="M194.914 108.823L202.587 117.169" stroke="white" stroke-width="2" stroke-miterlimit="10"/>
<path d="M230.626 108.823L222.957 117.169" stroke="white" stroke-width="2" stroke-miterlimit="10"/>
<path d="M230.626 148.243L222.957 139.896" stroke="white" stroke-width="2" stroke-miterlimit="10"/>
<path d="M194.914 148.243L202.587 139.896" stroke="white" stroke-width="2" stroke-miterlimit="10"/>
<path d="M280.029 108.823L287.702 117.169" stroke="white" stroke-width="2" stroke-miterlimit="10"/>
<path d="M315.747 108.823L308.078 117.169" stroke="white" stroke-width="2" stroke-miterlimit="10"/>
<path d="M315.747 148.243L308.078 139.896" stroke="white" stroke-width="2" stroke-miterlimit="10"/>
<path d="M280.029 148.243L287.702 139.896" stroke="white" stroke-width="2" stroke-miterlimit="10"/>
<path d="M365.148 108.823L372.82 117.169" stroke="white" stroke-width="2" stroke-miterlimit="10"/>
<path d="M400.849 108.823L393.182 117.169" stroke="white" stroke-width="2" stroke-miterlimit="10"/>
<path d="M400.849 148.243L393.182 139.896" stroke="white" stroke-width="2" stroke-miterlimit="10"/>
<path d="M365.148 148.243L372.82 139.896" stroke="white" stroke-width="2" stroke-miterlimit="10"/>
<path d="M450.27 108.823L457.941 117.169" stroke="white" stroke-width="2" stroke-miterlimit="10"/>
<path d="M485.968 108.823L478.301 117.169" stroke="white" stroke-width="2" stroke-miterlimit="10"/>
<path d="M485.968 148.243L478.301 139.896" stroke="white" stroke-width="2" stroke-miterlimit="10"/>
<path d="M450.27 148.243L457.941 139.896" stroke="white" stroke-width="2" stroke-miterlimit="10"/>
<path d="M535.371 108.823L543.042 117.169" stroke="white" stroke-width="2" stroke-miterlimit="10"/>
<path d="M571.088 108.823L563.412 117.169" stroke="white" stroke-width="2" stroke-miterlimit="10"/>
<path d="M571.088 148.243L563.412 139.896" stroke="white" stroke-width="2" stroke-miterlimit="10"/>
<path d="M535.371 148.243L543.042 139.896" stroke="white" stroke-width="2" stroke-miterlimit="10"/>
<path d="M24.6914 267.629L32.3603 275.976" stroke="white" stroke-width="2" stroke-miterlimit="10"/>
<path d="M60.4126 267.629L52.7441 275.976" stroke="white" stroke-width="2" stroke-miterlimit="10"/>
<path d="M60.4126 307.05L52.7441 298.703" stroke="white" stroke-width="2" stroke-miterlimit="10"/>
<path d="M24.6914 307.05L32.3603 298.703" stroke="white" stroke-width="2" stroke-miterlimit="10"/>
<path d="M109.814 267.629L117.487 275.976" stroke="white" stroke-width="2" stroke-miterlimit="10"/>
<path d="M145.516 267.629L137.848 275.976" stroke="white" stroke-width="2" stroke-miterlimit="10"/>
<path d="M145.516 307.05L137.848 298.703" stroke="white" stroke-width="2" stroke-miterlimit="10"/>
<path d="M109.814 307.05L117.487 298.703" stroke="white" stroke-width="2" stroke-miterlimit="10"/>
<path d="M194.914 267.629L202.587 275.976" stroke="white" stroke-width="2" stroke-miterlimit="10"/>
<path d="M230.626 267.629L222.957 275.976" stroke="white" stroke-width="2" stroke-miterlimit="10"/>
<path d="M230.626 307.05L222.957 298.703" stroke="white" stroke-width="2" stroke-miterlimit="10"/>
<path d="M194.914 307.05L202.587 298.703" stroke="white" stroke-width="2" stroke-miterlimit="10"/>
<path d="M280.029 267.629L287.702 275.976" stroke="white" stroke-width="2" stroke-miterlimit="10"/>
<path d="M315.747 267.629L308.078 275.976" stroke="white" stroke-width="2" stroke-miterlimit="10"/>
<path d="M315.747 307.05L308.078 298.703" stroke="white" stroke-width="2" stroke-miterlimit="10"/>
<path d="M280.029 307.05L287.702 298.703" stroke="white" stroke-width="2" stroke-miterlimit="10"/>
<path d="M365.148 267.629L372.82 275.976" stroke="white" stroke-width="2" stroke-miterlimit="10"/>
<path d="M400.849 267.629L393.182 275.976" stroke="white" stroke-width="2" stroke-miterlimit="10"/>
<path d="M400.849 307.05L393.182 298.703" stroke="white" stroke-width="2" stroke-miterlimit="10"/>
<path d="M365.148 307.05L372.82 298.703" stroke="white" stroke-width="2" stroke-miterlimit="10"/>
<path d="M450.27 267.629L457.941 275.976" stroke="white" stroke-width="2" stroke-miterlimit="10"/>
<path d="M485.968 267.629L478.301 275.976" stroke="white" stroke-width="2" stroke-miterlimit="10"/>
<path d="M485.968 307.05L478.301 298.703" stroke="white" stroke-width="2" stroke-miterlimit="10"/>
<path d="M450.27 307.05L457.941 298.703" stroke="white" stroke-width="2" stroke-miterlimit="10"/>
<path d="M535.371 267.629L543.042 275.976" stroke="white" stroke-width="2" stroke-miterlimit="10"/>
<path d="M571.088 267.629L563.412 275.976" stroke="white" stroke-width="2" stroke-miterlimit="10"/>
<path d="M571.088 307.05L563.412 298.703" stroke="white" stroke-width="2" stroke-miterlimit="10"/>
<path d="M535.371 307.05L543.042 298.703" stroke="white" stroke-width="2" stroke-miterlimit="10"/>
<path d="M24.6914 29.4209L32.3603 37.7685" stroke="white" stroke-width="2" stroke-miterlimit="10"/>
<path d="M60.4126 29.4209L52.7441 37.7685" stroke="white" stroke-width="2" stroke-miterlimit="10"/>
<path d="M60.4126 68.8389L52.7441 60.4951" stroke="white" stroke-width="2" stroke-miterlimit="10"/>
<path d="M24.6914 68.8389L32.3603 60.4951" stroke="white" stroke-width="2" stroke-miterlimit="10"/>
<path d="M109.814 29.4209L117.487 37.7685" stroke="white" stroke-width="2" stroke-miterlimit="10"/>
<path d="M145.516 29.4209L137.848 37.7685" stroke="white" stroke-width="2" stroke-miterlimit="10"/>
<path d="M145.516 68.8389L137.848 60.4951" stroke="white" stroke-width="2" stroke-miterlimit="10"/>
<path d="M109.814 68.8389L117.487 60.4951" stroke="white" stroke-width="2" stroke-miterlimit="10"/>
<path d="M194.914 29.4209L202.587 37.7685" stroke="white" stroke-width="2" stroke-miterlimit="10"/>
<path d="M230.626 29.4209L222.957 37.7685" stroke="white" stroke-width="2" stroke-miterlimit="10"/>
<path d="M230.626 68.8389L222.957 60.4951" stroke="white" stroke-width="2" stroke-miterlimit="10"/>
<path d="M194.914 68.8389L202.587 60.4951" stroke="white" stroke-width="2" stroke-miterlimit="10"/>
<path d="M280.029 29.4209L287.702 37.7685" stroke="white" stroke-width="2" stroke-miterlimit="10"/>
<path d="M315.747 29.4209L308.078 37.7685" stroke="white" stroke-width="2" stroke-miterlimit="10"/>
<path d="M315.747 68.8389L308.078 60.4951" stroke="white" stroke-width="2" stroke-miterlimit="10"/>
<path d="M280.029 68.8389L287.702 60.4951" stroke="white" stroke-width="2" stroke-miterlimit="10"/>
<path d="M365.148 29.4209L372.82 37.7685" stroke="white" stroke-width="2" stroke-miterlimit="10"/>
<path d="M400.849 29.4209L393.182 37.7685" stroke="white" stroke-width="2" stroke-miterlimit="10"/>
<path d="M400.849 68.8389L393.182 60.4951" stroke="white" stroke-width="2" stroke-miterlimit="10"/>
<path d="M365.148 68.8389L372.82 60.4951" stroke="white" stroke-width="2" stroke-miterlimit="10"/>
<path d="M450.27 29.4209L457.941 37.7685" stroke="white" stroke-width="2" stroke-miterlimit="10"/>
<path d="M485.968 29.4209L478.301 37.7685" stroke="white" stroke-width="2" stroke-miterlimit="10"/>
<path d="M485.968 68.8389L478.301 60.4951" stroke="white" stroke-width="2" stroke-miterlimit="10"/>
<path d="M450.27 68.8389L457.941 60.4951" stroke="white" stroke-width="2" stroke-miterlimit="10"/>
<path d="M535.371 29.4209L543.042 37.7685" stroke="white" stroke-width="2" stroke-miterlimit="10"/>
<path d="M571.088 29.4209L563.412 37.7685" stroke="white" stroke-width="2" stroke-miterlimit="10"/>
<path d="M571.088 68.8389L563.412 60.4951" stroke="white" stroke-width="2" stroke-miterlimit="10"/>
<path d="M535.371 68.8389L543.042 60.4951" stroke="white" stroke-width="2" stroke-miterlimit="10"/>
<path d="M24.6914 347.009L32.3603 355.356" stroke="white" stroke-width="2" stroke-miterlimit="10"/>
<path d="M60.4126 347.009L52.7441 355.356" stroke="white" stroke-width="2" stroke-miterlimit="10"/>
<path d="M60.4126 386.425L52.7441 378.083" stroke="white" stroke-width="2" stroke-miterlimit="10"/>
<path d="M24.6914 386.425L32.3603 378.083" stroke="white" stroke-width="2" stroke-miterlimit="10"/>
<path d="M109.814 347.009L117.487 355.356" stroke="white" stroke-width="2" stroke-miterlimit="10"/>
<path d="M145.516 347.009L137.848 355.356" stroke="white" stroke-width="2" stroke-miterlimit="10"/>
<path d="M145.516 386.425L137.848 378.083" stroke="white" stroke-width="2" stroke-miterlimit="10"/>
<path d="M109.814 386.425L117.487 378.083" stroke="white" stroke-width="2" stroke-miterlimit="10"/>
<path d="M194.914 347.009L202.587 355.356" stroke="white" stroke-width="2" stroke-miterlimit="10"/>
<path d="M230.626 347.009L222.957 355.356" stroke="white" stroke-width="2" stroke-miterlimit="10"/>
<path d="M230.626 386.425L222.957 378.083" stroke="white" stroke-width="2" stroke-miterlimit="10"/>
<path d="M194.914 386.425L202.587 378.083" stroke="white" stroke-width="2" stroke-miterlimit="10"/>
<path d="M280.029 347.009L287.702 355.356" stroke="white" stroke-width="2" stroke-miterlimit="10"/>
<path d="M315.747 347.009L308.078 355.356" stroke="white" stroke-width="2" stroke-miterlimit="10"/>
<path d="M315.747 386.425L308.078 378.083" stroke="white" stroke-width="2" stroke-miterlimit="10"/>
<path d="M280.029 386.425L287.702 378.083" stroke="white" stroke-width="2" stroke-miterlimit="10"/>
<path d="M365.148 347.009L372.82 355.356" stroke="white" stroke-width="2" stroke-miterlimit="10"/>
<path d="M400.849 347.009L393.182 355.356" stroke="white" stroke-width="2" stroke-miterlimit="10"/>
<path d="M400.849 386.425L393.182 378.083" stroke="white" stroke-width="2" stroke-miterlimit="10"/>
<path d="M365.148 386.425L372.82 378.083" stroke="white" stroke-width="2" stroke-miterlimit="10"/>
<path d="M450.27 347.009L457.941 355.356" stroke="white" stroke-width="2" stroke-miterlimit="10"/>
<path d="M485.968 347.009L478.301 355.356" stroke="white" stroke-width="2" stroke-miterlimit="10"/>
<path d="M485.968 386.425L478.301 378.083" stroke="white" stroke-width="2" stroke-miterlimit="10"/>
<path d="M450.27 386.425L457.941 378.083" stroke="white" stroke-width="2" stroke-miterlimit="10"/>
<path d="M535.371 347.009L543.042 355.356" stroke="white" stroke-width="2" stroke-miterlimit="10"/>
<path d="M571.088 347.009L563.412 355.356" stroke="white" stroke-width="2" stroke-miterlimit="10"/>
<path d="M571.088 386.425L563.412 378.083" stroke="white" stroke-width="2" stroke-miterlimit="10"/>
<path d="M535.371 386.425L543.042 378.083" stroke="white" stroke-width="2" stroke-miterlimit="10"/>
<path d="M0 241.921V253.723" stroke="white" stroke-width="2" stroke-miterlimit="10"/>
<path d="M85.123 241.926V253.728" stroke="white" stroke-width="2" stroke-miterlimit="10"/>
<path d="M170.24 241.926V253.728" stroke="white" stroke-width="2" stroke-miterlimit="10"/>
<path d="M255.344 241.926V253.728" stroke="white" stroke-width="2" stroke-miterlimit="10"/>
<path d="M340.463 241.926V253.728" stroke="white" stroke-width="2" stroke-miterlimit="10"/>
<path d="M425.582 241.926V253.728" stroke="white" stroke-width="2" stroke-miterlimit="10"/>
<path d="M510.695 241.926V253.728" stroke="white" stroke-width="2" stroke-miterlimit="10"/>
<path d="M595.791 241.921V253.723" stroke="white" stroke-width="2" stroke-miterlimit="10"/>
<path d="M0 161.281V173.083" stroke="white" stroke-width="2" stroke-miterlimit="10"/>
<path d="M0 161.281V173.083" stroke="white" stroke-width="2" stroke-miterlimit="10"/>
<path d="M85.123 161.285V173.087" stroke="white" stroke-width="2" stroke-miterlimit="10"/>
<path d="M85.123 161.285V173.087" stroke="white" stroke-width="2" stroke-miterlimit="10"/>
<path d="M170.24 161.285V173.087" stroke="white" stroke-width="2" stroke-miterlimit="10"/>
<path d="M170.24 161.285V173.087" stroke="white" stroke-width="2" stroke-miterlimit="10"/>
<path d="M255.344 161.285V173.087" stroke="white" stroke-width="2" stroke-miterlimit="10"/>
<path d="M255.344 161.285V173.087" stroke="white" stroke-width="2" stroke-miterlimit="10"/>
<path d="M340.463 161.285V173.087" stroke="white" stroke-width="2" stroke-miterlimit="10"/>
<path d="M340.463 161.285V173.087" stroke="white" stroke-width="2" stroke-miterlimit="10"/>
<path d="M425.582 161.285V173.087" stroke="white" stroke-width="2" stroke-miterlimit="10"/>
<path d="M425.582 161.285V173.087" stroke="white" stroke-width="2" stroke-miterlimit="10"/>
<path d="M510.695 161.285V173.087" stroke="white" stroke-width="2" stroke-miterlimit="10"/>
<path d="M510.695 161.285V173.087" stroke="white" stroke-width="2" stroke-miterlimit="10"/>
<path d="M595.791 161.281V173.083" stroke="white" stroke-width="2" stroke-miterlimit="10"/>
<path d="M595.791 161.281V173.083" stroke="white" stroke-width="2" stroke-miterlimit="10"/>
<path d="M0 322.562V334.363" stroke="white" stroke-width="2" stroke-miterlimit="10"/>
<path d="M85.123 322.572V334.374" stroke="white" stroke-width="2" stroke-miterlimit="10"/>
<path d="M170.24 322.572V334.374" stroke="white" stroke-width="2" stroke-miterlimit="10"/>
<path d="M255.344 322.572V334.374" stroke="white" stroke-width="2" stroke-miterlimit="10"/>
<path d="M340.463 322.572V334.374" stroke="white" stroke-width="2" stroke-miterlimit="10"/>
<path d="M425.582 322.572V334.374" stroke="white" stroke-width="2" stroke-miterlimit="10"/>
<path d="M510.695 322.572V334.374" stroke="white" stroke-width="2" stroke-miterlimit="10"/>
<path d="M595.791 322.562V334.363" stroke="white" stroke-width="2" stroke-miterlimit="10"/>
<path d="M0 0V11.8018" stroke="white" stroke-width="2" stroke-miterlimit="10"/>
<path d="M85.123 0V11.8018" stroke="white" stroke-width="2" stroke-miterlimit="10"/>
<path d="M170.24 0V11.8018" stroke="white" stroke-width="2" stroke-miterlimit="10"/>
<path d="M255.344 0V11.8018" stroke="white" stroke-width="2" stroke-miterlimit="10"/>
<path d="M340.463 0V11.8018" stroke="white" stroke-width="2" stroke-miterlimit="10"/>
<path d="M425.582 0V11.8018" stroke="white" stroke-width="2" stroke-miterlimit="10"/>
<path d="M510.695 0V11.8018" stroke="white" stroke-width="2" stroke-miterlimit="10"/>
<path d="M595.791 0V11.8018" stroke="white" stroke-width="2" stroke-miterlimit="10"/>
<path d="M0 80.6221V92.4239" stroke="white" stroke-width="2" stroke-miterlimit="10"/>
<path d="M0 80.6221V92.4239" stroke="white" stroke-width="2" stroke-miterlimit="10"/>
<path d="M85.123 80.6221V92.4239" stroke="white" stroke-width="2" stroke-miterlimit="10"/>
<path d="M85.123 80.6221V92.4239" stroke="white" stroke-width="2" stroke-miterlimit="10"/>
<path d="M170.24 80.6221V92.4239" stroke="white" stroke-width="2" stroke-miterlimit="10"/>
<path d="M170.24 80.6221V92.4239" stroke="white" stroke-width="2" stroke-miterlimit="10"/>
<path d="M255.344 80.6221V92.4239" stroke="white" stroke-width="2" stroke-miterlimit="10"/>
<path d="M255.344 80.6221V92.4239" stroke="white" stroke-width="2" stroke-miterlimit="10"/>
<path d="M340.463 80.6221V92.4239" stroke="white" stroke-width="2" stroke-miterlimit="10"/>
<path d="M340.463 80.6221V92.4239" stroke="white" stroke-width="2" stroke-miterlimit="10"/>
<path d="M425.582 80.6221V92.4239" stroke="white" stroke-width="2" stroke-miterlimit="10"/>
<path d="M425.582 80.6221V92.4239" stroke="white" stroke-width="2" stroke-miterlimit="10"/>
<path d="M510.695 80.6221V92.4239" stroke="white" stroke-width="2" stroke-miterlimit="10"/>
<path d="M510.695 80.6221V92.4239" stroke="white" stroke-width="2" stroke-miterlimit="10"/>
<path d="M595.791 80.6221V92.4239" stroke="white" stroke-width="2" stroke-miterlimit="10"/>
<path d="M595.791 80.6221V92.4239" stroke="white" stroke-width="2" stroke-miterlimit="10"/>
<path d="M0 403.184V414.986" stroke="white" stroke-width="2" stroke-miterlimit="10"/>
<path d="M85.123 403.175V414.977" stroke="white" stroke-width="2" stroke-miterlimit="10"/>
<path d="M85.123 403.175V414.977" stroke="white" stroke-width="2" stroke-miterlimit="10"/>
<path d="M170.24 403.175V414.977" stroke="white" stroke-width="2" stroke-miterlimit="10"/>
<path d="M170.24 403.175V414.977" stroke="white" stroke-width="2" stroke-miterlimit="10"/>
<path d="M255.344 403.175V414.977" stroke="white" stroke-width="2" stroke-miterlimit="10"/>
<path d="M255.344 403.175V414.977" stroke="white" stroke-width="2" stroke-miterlimit="10"/>
<path d="M340.463 403.175V414.977" stroke="white" stroke-width="2" stroke-miterlimit="10"/>
<path d="M340.463 403.175V414.977" stroke="white" stroke-width="2" stroke-miterlimit="10"/>
<path d="M425.582 403.175V414.977" stroke="white" stroke-width="2" stroke-miterlimit="10"/>
<path d="M425.582 403.175V414.977" stroke="white" stroke-width="2" stroke-miterlimit="10"/>
<path d="M510.695 403.175V414.977" stroke="white" stroke-width="2" stroke-miterlimit="10"/>
<path d="M510.695 403.175V414.977" stroke="white" stroke-width="2" stroke-miterlimit="10"/>
<path d="M595.791 403.184V414.986" stroke="white" stroke-width="2" stroke-miterlimit="10"/>
<path d="M288.859 48.6287C288.859 54.0009 292.862 58.3556 297.799 58.3556C302.737 58.3556 306.739 54.0009 306.739 48.6287C306.739 43.2566 302.737 38.9019 297.799 38.9019C292.862 38.9019 288.859 43.2566 288.859 48.6287Z" fill="white"/>
<path d="M288.859 128.165C288.859 133.537 292.862 137.892 297.799 137.892C302.737 137.892 306.739 133.537 306.739 128.165C306.739 122.793 302.737 118.438 297.799 118.438C292.862 118.438 288.859 122.793 288.859 128.165Z" fill="white"/>
<path d="M288.859 207.705C288.859 213.077 292.862 217.432 297.799 217.432C302.737 217.432 306.739 213.077 306.739 207.705C306.739 202.333 302.737 197.978 297.799 197.978C292.862 197.978 288.859 202.333 288.859 207.705Z" fill="white"/>
<path d="M288.859 287.269C288.859 292.641 292.862 296.996 297.799 296.996C302.737 296.996 306.739 292.641 306.739 287.269C306.739 281.892 302.737 277.542 297.799 277.542C292.862 277.542 288.859 281.892 288.859 287.269Z" fill="white"/>
<path d="M288.859 366.804C288.859 372.176 292.862 376.531 297.799 376.531C302.737 376.531 306.739 372.176 306.739 366.804C306.739 361.433 302.737 357.078 297.799 357.078C292.862 357.078 288.859 361.433 288.859 366.804Z" fill="white"/>
<path d="M467.87 38.9019C462.933 38.9019 458.93 43.257 458.93 48.6287C458.93 54.0009 462.933 58.3556 467.87 58.3556C472.807 58.3556 476.81 54.0009 476.81 48.6287C476.81 43.257 472.807 38.9019 467.87 38.9019Z" fill="white"/>
<path d="M382.837 38.9019C377.899 38.9019 373.896 43.257 373.896 48.6287C373.896 54.0009 377.899 58.3556 382.837 58.3556C387.774 58.3556 391.777 54.0009 391.777 48.6287C391.777 43.257 387.774 38.9019 382.837 38.9019Z" fill="white"/>
<path d="M297.807 38.9019C292.87 38.9019 288.867 43.257 288.867 48.6287C288.867 54.0009 292.87 58.3556 297.807 58.3556C302.745 58.3556 306.747 54.0009 306.747 48.6287C306.747 43.257 302.745 38.9019 297.807 38.9019Z" fill="white"/>
<path d="M212.788 38.9019C207.85 38.9019 203.848 43.257 203.848 48.6287C203.848 54.0009 207.85 58.3556 212.788 58.3556C217.725 58.3556 221.728 54.0009 221.728 48.6287C221.728 43.257 217.725 38.9019 212.788 38.9019Z" fill="white"/>
<path d="M127.76 38.9019C122.823 38.9019 118.82 43.257 118.82 48.6287C118.82 54.0009 122.823 58.3556 127.76 58.3556C132.698 58.3556 136.7 54.0009 136.7 48.6287C136.7 43.257 132.698 38.9019 127.76 38.9019Z" fill="white"/>
</svg>
