<svg width="141" height="144" viewBox="0 0 141 144" fill="none" xmlns="http://www.w3.org/2000/svg">
<g id="object" clip-path="url(#clip0_1118_18076)">
<path id="Vector" d="M37.1559 110.139C34.6669 110.139 32.6126 109.537 31.084 108.324C28.2182 106.047 27.3447 101.774 28.5602 95.9712L28.5853 95.8476L63.66 71.2133C66.1567 69.4599 68.7385 66.9379 70.7425 64.2963L90.3321 38.4666C94.2145 33.3455 99.8284 29.1493 103.11 28.9118C103.958 28.85 104.629 29.0508 105.094 29.5104C109.042 33.3937 108.266 41.844 102.963 52.6926C92.7304 73.629 68.7192 97.9196 49.4407 106.841C44.7003 109.035 40.5281 110.141 37.1559 110.141V110.139ZM29.1573 96.2222C28.0326 101.712 28.8346 105.723 31.4802 107.826C34.8775 110.525 41.16 109.969 49.1721 106.262C68.3385 97.3924 92.2125 73.2351 102.391 52.4107C107.566 41.8228 108.387 33.6409 104.646 29.9603C104.316 29.6359 103.815 29.495 103.154 29.5432C100.033 29.7692 94.6242 33.8572 90.8365 38.8489L71.2469 64.6786C69.2043 67.3705 66.5722 69.9407 64.0233 71.7308L29.1535 96.2203L29.1573 96.2222Z" fill="white"/>
<path id="Vector_2" d="M35.4297 110.519C32.4634 110.519 30.0748 109.766 28.4013 108.256C25.4426 105.587 24.8242 100.777 26.6157 94.341L26.6485 94.2232L63.7329 70.8711C66.3746 69.2085 69.1671 66.7213 71.3933 64.0507L93.1608 37.9352C97.4722 32.7619 103.395 28.7396 106.727 28.7975C107.589 28.811 108.24 29.091 108.665 29.6336C112.248 34.1986 110.737 43.2552 104.518 54.4823C92.4999 76.1815 66.4635 100.208 46.4797 108.044C42.2707 109.693 38.5352 110.519 35.4317 110.519H35.4297ZM27.1954 94.6288C25.5141 100.756 26.0765 105.304 28.8264 107.783C32.0653 110.703 38.2512 110.585 46.2459 107.451C66.1138 99.6611 92.0052 75.7605 103.962 54.1734C110.051 43.1799 111.583 34.3782 108.165 30.0237C107.863 29.6394 107.376 29.4405 106.717 29.4309C103.61 29.398 97.8529 33.2988 93.6498 38.3407L71.8822 64.4562C69.6154 67.177 66.7689 69.7106 64.073 71.4079L27.1954 94.6288Z" fill="white"/>
<path id="Vector_3" d="M33.8282 110.811C30.3168 110.811 27.5785 109.863 25.7272 107.972C22.6874 104.867 22.3724 99.4814 24.8151 92.3984L24.8537 92.2844L63.832 70.5119C66.6089 68.9613 69.6062 66.5339 72.0586 63.8498L96.0214 37.632C100.739 32.4703 107.011 28.6855 110.304 29.0157C111.186 29.1045 111.825 29.4714 112.208 30.1067C115.369 35.3727 113.074 45.0182 105.91 56.5698C92.0462 78.9255 64.0136 102.477 43.4191 109.071C39.788 110.234 36.5723 110.813 33.8282 110.813V110.811ZM25.3774 92.7189C23.0604 99.5027 23.3367 104.622 26.1813 107.526C29.254 110.664 35.3046 110.996 43.2239 108.463C63.6947 101.909 91.5709 78.4794 105.367 56.2337C112.401 44.8908 114.695 35.4866 111.661 30.4311C111.389 29.9773 110.911 29.7128 110.241 29.6471C107.139 29.3362 101.088 33.0303 96.491 38.0607L72.5281 64.2785C70.0333 67.009 66.9761 69.4827 64.1431 71.0661L25.3774 92.7209V92.7189Z" fill="white"/>
<path id="Vector_4" d="M32.4847 110.952C28.2797 110.952 25.0872 109.778 23.0813 107.451C19.9796 103.855 20.0183 97.8653 23.1934 90.1238L23.2397 90.0118L63.9649 70.1259C66.8656 68.7104 70.0639 66.3642 72.7404 63.6916L98.8985 37.5723C104.078 32.4029 110.493 28.9656 113.819 29.5778C114.718 29.7438 115.365 30.2169 115.694 30.9449C118.376 36.9293 115.249 47.1387 107.113 58.9567C91.3541 81.8512 61.3735 104.697 40.2804 109.888C37.3971 110.597 34.7883 110.95 32.4847 110.95V110.952ZM23.7364 90.4791C20.7024 97.9291 20.6425 103.653 23.5625 107.038C26.5018 110.444 32.2297 111.217 40.1277 109.274C61.0913 104.116 90.9057 81.3839 106.588 58.5994C114.594 46.9688 117.702 36.9853 115.112 31.2095C114.87 30.6727 114.397 30.3347 113.703 30.2073C110.615 29.6396 104.309 33.073 99.3488 38.0261L73.1906 64.1454C70.4658 66.8663 67.2057 69.255 64.2452 70.7013L23.7364 90.481V90.4791Z" fill="white"/>
<path id="Vector_5" d="M31.4479 110.993C26.3829 110.993 22.6377 109.533 20.4733 106.673C17.3369 102.529 17.7872 95.9033 21.7739 87.513L21.8261 87.4029L64.1321 69.7261C67.1448 68.467 70.5344 66.2309 73.4351 63.5912L101.771 37.7847C107.292 32.7562 113.942 29.626 117.245 30.5104C118.184 30.7615 118.821 31.3408 119.092 32.1866C121.237 38.9027 117.233 49.6471 108.108 61.662C90.4119 84.9601 58.5491 106.862 37.0831 110.485C35.0578 110.826 33.1775 110.996 31.4499 110.996L31.4479 110.993ZM22.2976 87.8953C18.5235 95.8918 18.0539 102.423 20.9816 106.29C23.7315 109.925 29.2604 111.157 36.9748 109.855C58.3056 106.256 89.9868 84.4619 107.599 61.2758C116.599 49.4289 120.566 38.895 118.485 32.3797C118.282 31.7424 117.809 31.3195 117.08 31.1245C114.027 30.3077 107.487 33.4398 102.2 38.2539L73.8641 64.0623C70.9132 66.7503 67.456 69.029 64.3794 70.3151L22.2995 87.8972L22.2976 87.8953Z" fill="white"/>
<path id="Vector_6" d="M30.7907 110.958C24.6531 110.958 20.2354 109.135 17.9203 105.615C14.8361 100.926 15.783 93.4452 20.5871 84.5508L20.6451 84.4426L64.3309 69.3052C67.4403 68.2277 71.0115 66.1286 74.1305 63.5429L104.61 38.281C110.432 33.4553 117.285 30.6765 120.543 31.8178C121.531 32.1635 122.161 32.8625 122.363 33.8396C123.911 41.3012 118.987 52.5398 108.857 64.6745C89.1962 88.2256 55.5419 108.926 33.8382 110.819C32.7792 110.911 31.7627 110.958 30.7887 110.958H30.7907ZM21.0876 84.9621C16.4516 93.5919 15.5144 100.801 18.4517 105.265C20.9988 109.137 26.3015 110.838 33.7841 110.185C55.3429 108.307 88.802 87.708 108.37 64.269C118.377 52.283 123.25 41.2394 121.741 33.969C121.585 33.212 121.111 32.6906 120.334 32.4183C117.267 31.3447 110.682 34.0752 105.016 38.7696L74.5364 64.0315C71.3613 66.6635 67.7185 68.8031 64.5396 69.9057L21.0876 84.9621Z" fill="white"/>
<path id="Vector_7" d="M30.5909 110.881H30.5793C23.1179 110.879 17.8809 108.585 15.4363 104.249C12.4158 98.8888 13.9154 90.7167 19.6607 81.2352L19.7264 81.1271L64.5698 68.8707C67.7603 67.9998 71.4997 66.063 74.8313 63.5604L107.398 39.0921C113.572 34.4518 120.426 32.1133 123.696 33.5288C124.744 33.9825 125.36 34.8168 125.482 35.9406C126.371 44.1514 120.49 55.842 109.345 68.0172C87.7094 91.6552 52.3816 110.883 30.5889 110.883L30.5909 110.881ZM20.1419 81.6736C14.5744 90.902 13.0999 98.8058 15.9929 103.937C18.3176 108.061 23.3614 110.243 30.5812 110.245H30.5928C52.2308 110.245 87.346 91.1125 108.88 67.5866C119.901 55.5465 125.721 44.0375 124.852 36.0082C124.755 35.1122 124.282 34.475 123.445 34.1119C120.421 32.8007 113.688 35.1624 107.782 39.6L75.2158 64.0682C71.8224 66.6172 68.0038 68.5907 64.7398 69.4829L20.1419 81.6716V81.6736Z" fill="white"/>
<path id="Vector_8" d="M30.9664 110.802C29.7103 110.802 28.4967 110.748 27.3236 110.636C20.1638 109.954 15.2263 107.154 13.0426 102.539C10.1574 96.4386 12.2831 87.5654 19.0275 77.5549L19.1009 77.4467L64.8448 68.421C68.0972 67.7799 71.9892 66.0381 75.5237 63.6436L110.102 40.2316C116.483 35.9119 123.446 33.9847 126.661 35.6512C127.776 36.2286 128.377 37.2134 128.402 38.5033C128.572 47.4653 121.697 59.5556 109.539 71.6768C87.194 93.9572 52.9755 110.802 30.9644 110.804L30.9664 110.802ZM19.4835 78.0183C12.9266 87.7894 10.8434 96.398 13.6204 102.266C15.7017 106.667 20.4614 109.342 27.3855 110.002C48.9269 112.057 85.5881 94.662 109.095 71.2249C121.13 59.2254 127.937 47.3031 127.77 38.513C127.751 37.4567 127.28 36.6843 126.373 36.2131C123.401 34.6741 116.562 36.6264 110.463 40.7569L75.8851 64.1689C72.281 66.6097 68.3039 68.3843 64.9723 69.0428L19.4855 78.0183H19.4835Z" fill="white"/>
<path id="Vector_9" d="M31.955 110.782C29.149 110.782 26.5189 110.549 24.0994 110.064C17.2642 108.695 12.6533 105.37 10.7614 100.449C8.10613 93.542 10.9314 83.9756 18.7194 73.5132L18.8005 73.4031L65.1647 67.9595C68.4577 67.5733 72.485 66.0574 76.2128 63.8L112.7 41.7224C119.336 37.7077 126.206 36.2575 129.414 38.1982C130.605 38.9185 131.184 40.0771 131.091 41.5486C130.479 51.2559 122.581 63.6899 109.419 75.6586C86.7158 96.3034 54.0259 110.782 31.9569 110.782H31.955ZM19.1464 74.0037C11.5556 84.2421 8.79023 93.5497 11.3546 100.221C13.1635 104.927 17.614 108.116 24.225 109.44C45.5075 113.704 83.533 98.3387 108.99 75.1874C122.03 63.3288 129.855 51.0532 130.458 41.508C130.535 40.2702 130.073 39.3414 129.086 38.7428C126.123 36.9488 119.371 38.4299 113.03 42.2669L76.5413 64.3446C72.7362 66.6464 68.6162 68.1951 65.2382 68.5909L19.1464 74.0037Z" fill="white"/>
<path id="Vector_10" d="M33.662 110.885C28.9506 110.885 24.6547 110.321 20.9347 109.137C14.4396 107.069 10.1804 103.193 8.61699 97.9293C6.30767 90.1549 9.91176 79.9184 18.7606 69.1084L18.8514 68.9964L65.521 67.4902C68.8313 67.384 72.9707 66.123 76.8821 64.0355L115.157 43.5819C121.888 39.9844 128.777 38.9995 131.912 41.1836C133.185 42.0718 133.736 43.4255 133.504 45.0959C132.049 55.5389 123.097 68.2452 108.946 79.957C86.2971 98.6997 55.5455 110.885 33.6601 110.885H33.662ZM19.1626 69.6221C10.5166 80.2235 6.98984 90.207 9.22766 97.7477C10.7273 102.801 14.8435 106.53 21.1279 108.531C41.9524 115.16 81.1645 102.122 108.54 79.4665C122.572 67.8552 131.44 55.2956 132.874 45.007C133.075 43.5684 132.628 42.4561 131.548 41.703C128.65 39.6831 121.882 40.7066 115.456 44.14L77.1816 64.5936C73.1891 66.7274 68.9473 68.0135 65.5422 68.1236L19.1606 69.6201L19.1626 69.6221Z" fill="white"/>
<path id="Vector_11" d="M36.1721 111.197C29.1533 111.197 22.894 110.118 17.8618 107.835C11.7145 105.047 7.83796 100.58 6.64949 94.9223C4.82715 86.2365 9.2796 75.3782 19.1855 64.3442L19.2879 64.2303L65.9208 67.0187C69.2234 67.2176 73.4536 66.2444 77.5292 64.3539L117.441 45.8294C124.21 42.6876 131.069 42.1894 134.122 44.6167C135.486 45.7019 135.997 47.2738 135.597 49.1662C133.239 60.3277 123.217 73.2328 108.101 84.5719C85.9607 101.179 57.5454 111.199 36.1682 111.199L36.1721 111.197ZM19.5585 64.8811C9.86128 75.72 5.49966 86.3388 7.27368 94.791C8.41771 100.244 12.1706 104.554 18.1265 107.256C38.2843 116.401 78.4781 105.997 107.722 84.0602C122.717 72.8138 132.65 60.0457 134.978 49.033C135.33 47.3684 134.911 46.0495 133.73 45.113C130.858 42.8305 124.272 43.3615 117.713 46.4048L77.7998 64.9293C73.6333 66.8623 69.2891 67.8549 65.886 67.6521L19.5604 64.883L19.5585 64.8811Z" fill="white"/>
<path id="Vector_12" d="M39.5188 111.812C29.7578 111.812 21.2007 109.983 14.9124 106.13C9.11884 102.581 5.65776 97.4736 4.90796 91.358C3.72914 81.7433 9.09759 70.3308 20.0258 59.2215L20.1417 59.1037L66.3649 66.5382C69.6327 67.0635 73.9286 66.4127 78.1492 64.7539L119.526 48.4752C126.382 45.7776 133.009 45.7853 136.014 48.4965C137.471 49.8115 137.927 51.6325 137.332 53.7624C134.01 65.6191 122.904 78.6382 106.86 89.481C85.7187 103.771 59.98 111.81 39.5188 111.812ZM20.364 59.7854C9.65028 70.717 4.38619 81.8958 5.53795 91.2807C6.26456 97.1974 9.61936 102.145 15.2429 105.588C34.5233 117.396 75.4592 109.935 106.501 88.9538C122.421 78.1921 133.434 65.3024 136.715 53.5906C137.243 51.7097 136.85 50.1108 135.585 48.9696C132.755 46.4167 126.394 46.4554 119.756 49.0681L78.3792 65.3468C74.0562 67.048 69.6385 67.7104 66.2605 67.1678L20.3621 59.7854H20.364Z" fill="white"/>
<path id="Vector_13" d="M43.6564 112.837C30.7455 112.837 19.5332 109.965 12.124 104.008C6.68989 99.6401 3.6926 93.818 3.45877 87.1733C3.08774 76.6452 9.42629 64.777 21.3091 53.7585L21.4386 53.6387L66.8482 66.0669C70.0542 66.9456 74.3849 66.6463 78.7291 65.2501L121.369 51.5397C128.257 49.3248 134.607 49.8346 137.546 52.8374C139.098 54.4247 139.483 56.5218 138.657 58.9047C134.317 71.4217 122.119 84.464 105.195 94.685C85.5353 106.557 62.7436 112.837 43.6584 112.837H43.6564ZM21.6145 54.3455C9.95193 65.2038 3.73125 76.848 4.09649 87.152C4.32453 93.6075 7.23872 99.2635 12.5241 103.514C30.6952 118.122 72.1181 113.916 104.866 94.1405C121.667 83.9948 133.764 71.0741 138.056 58.6961C138.799 56.5565 138.464 54.6854 137.092 53.2815C134.363 50.4931 128.123 50.0373 121.567 52.146L78.9262 65.8565C74.468 67.2912 70.0039 67.5905 66.682 66.681L21.6145 54.3455Z" fill="white"/>
<path id="Vector_14" d="M48.4118 114.374C32.0224 114.374 17.8167 110.083 9.5302 101.448C4.47289 96.1778 2.00124 89.5562 2.38194 82.2994C2.97908 70.9139 10.3245 58.7194 23.0634 47.9634L23.2103 47.8398L67.3753 65.6016C70.4886 66.8529 74.8231 66.9417 79.2678 65.841L122.94 55.0311C129.7 53.3588 135.88 54.3803 138.686 57.6322C140.305 59.5092 140.605 61.9809 139.529 64.5917C134.116 77.7286 120.83 90.6936 103.078 100.16C85.3455 109.616 65.6689 114.372 48.4118 114.372V114.374ZM23.3282 48.5736C10.8153 59.1847 3.6052 71.1669 3.01773 82.3322C2.64669 89.4075 5.0565 95.8669 9.99014 101.007C26.8144 118.541 68.4382 117.91 102.778 99.5996C120.403 90.2012 133.582 77.3539 138.941 64.3503C139.934 61.9365 139.681 59.7583 138.205 58.0473C135.553 54.9751 129.623 54.0327 123.095 55.6471L79.4224 66.4571C74.8502 67.5886 70.3726 67.4921 67.1376 66.1906L23.3301 48.5717L23.3282 48.5736Z" fill="white"/>
<path id="Vector_15" d="M53.5032 116.514C33.4285 116.514 15.9782 110.327 7.17374 98.4293C-4.88111 82.141 2.41016 59.4048 25.3179 41.8555L25.4821 41.73L67.9408 65.1497C70.9303 66.7988 75.2359 67.3028 79.7541 66.5323L124.203 58.9607C130.884 57.8214 136.71 59.3276 139.404 62.8884C141.101 65.1304 141.277 67.9516 139.903 70.8347C133.367 84.5432 119.003 97.3209 100.494 105.889C85.051 113.038 68.5398 116.512 53.5012 116.512L53.5032 116.514ZM25.5401 42.4869C3.05948 59.793 -4.11971 82.1023 7.68585 98.0528C14.9984 107.934 28.6881 114.14 46.2293 115.531C63.813 116.925 82.9891 113.295 100.227 105.314C118.605 96.8053 132.857 84.1396 139.331 70.5624C140.616 67.8647 140.467 65.3447 138.898 63.2727C136.386 59.9533 130.66 58.5069 124.311 59.5883L79.8623 67.1599C75.2031 67.9536 70.7467 67.4245 67.6354 65.7078L25.542 42.4889L25.5401 42.4869Z" fill="white"/>
<path id="Vector_16" d="M58.5722 119.323C34.7601 119.323 13.9453 110.649 5.08871 94.9419C-5.48779 76.1856 3.75723 52.2793 28.095 35.4541L28.2805 35.3247L68.5438 64.7114C71.3749 66.7776 75.6148 67.7296 80.1793 67.3241L125.119 63.3345C131.578 62.761 137.155 64.7789 139.669 68.6005C141.42 71.2634 141.443 74.467 139.733 77.6262C132.028 91.8483 116.605 104.321 97.419 111.848C84.5139 116.911 71.1256 119.321 58.5722 119.321V119.323ZM28.2708 36.1068C4.35823 52.7273 -4.73605 76.2223 5.64333 94.631C12.0689 106.026 25.1634 114.044 42.5152 117.209C59.9076 120.381 79.3213 118.267 97.1852 111.259C116.234 103.786 131.539 91.4177 139.174 77.3269C140.769 74.384 140.755 71.4121 139.139 68.9539C136.753 65.3274 131.404 63.4195 125.177 63.9718L80.2373 67.9613C75.522 68.3803 71.1237 67.3839 68.1709 65.2289L28.2727 36.1106L28.2708 36.1068Z" fill="white"/>
<path id="Vector_17" d="M63.4636 122.816C54.8466 122.816 46.4055 121.642 38.492 119.283C21.2967 114.158 8.80512 104.103 3.32266 90.9716C-5.56871 69.6837 5.72474 44.6921 31.4229 28.7861L31.6317 28.6567L69.1876 64.2942C71.8254 66.7988 75.9571 68.2007 80.541 68.2239L125.659 68.1582H125.692C131.881 68.1582 137.153 70.6917 139.457 74.7778C141.229 77.9196 141.059 81.5384 138.975 84.9641C130.061 99.6323 113.608 111.678 93.8365 118.012C83.8532 121.21 73.5396 122.816 63.4655 122.816H63.4636ZM31.5466 29.4562C6.27164 45.1981 -4.83437 69.7957 3.9082 90.7283C9.31723 103.68 21.6639 113.605 38.6736 118.674C55.7162 123.753 75.2363 123.303 93.6413 117.408C113.268 111.12 129.593 99.1747 138.431 84.6358C140.388 81.4148 140.554 78.0239 138.9 75.0907C136.709 71.2054 131.649 68.7955 125.69 68.7955H125.657L80.539 68.8611H80.5062C75.7812 68.8611 71.4969 67.3665 68.747 64.7576L31.5466 29.4581V29.4562Z" fill="white"/>
<path id="Vector_18" d="M67.4555 127.071C55.9012 127.071 44.6309 124.856 34.4661 120.482C17.7848 113.306 6.22084 101.241 1.9056 86.511C-5.09 62.6395 8.33691 36.6669 35.3144 21.8809L35.5463 21.7534L69.8557 63.9043C72.2655 66.8646 76.2599 68.8072 80.8167 69.232L125.768 73.4321C131.78 73.994 136.623 76.9794 138.726 81.4208C140.444 85.0492 140.024 89.2087 137.574 92.8352C127.415 107.872 109.974 119.358 89.7236 124.346C82.3279 126.167 74.8338 127.071 67.4555 127.071ZM35.3879 22.5664C8.83549 37.2269 -4.37305 62.8229 2.51433 86.3334C6.77546 100.878 18.2119 112.798 34.7153 119.899C51.2458 127.011 70.7272 128.37 89.5709 123.728C109.669 118.777 126.974 107.388 137.046 92.4799C139.402 88.9944 139.794 85.1632 138.15 81.6931C136.144 77.4564 131.492 74.6061 125.708 74.0654L80.7568 69.8654C76.0319 69.4232 71.879 67.3975 69.361 64.304L35.3879 22.5664Z" fill="white"/>
<path id="Vector_19" d="M70.6226 132.035C56.2565 132.035 42.329 128.403 30.3495 121.399C14.3602 112.053 3.89767 97.9002 0.884926 81.5519C-3.99653 55.0599 11.6411 28.2242 39.7955 14.7706L40.0526 14.6489L70.5568 63.5411C72.7 66.9783 76.5108 69.4597 81.0097 70.3519L125.424 79.1536C131.133 80.2852 135.633 83.7958 137.461 88.5442C139.083 92.7559 138.366 97.3788 135.496 101.225C124.064 116.546 105.686 127.331 85.0756 130.815C80.2463 131.632 75.4113 132.035 70.6245 132.035H70.6226ZM39.8149 15.4677C12.0818 28.8344 -3.30277 55.311 1.51105 81.438C4.48901 97.6009 14.8452 111.599 30.6703 120.851C46.5129 130.114 65.7952 133.429 84.9693 130.189C105.421 126.733 123.65 116.037 134.986 100.847C137.722 97.178 138.408 92.779 136.868 88.774C135.119 84.2303 130.794 80.8664 125.302 79.7792L80.8879 70.9775C76.2171 70.0526 72.2555 67.465 70.0177 63.8809L39.8149 15.4677Z" fill="white"/>
<path id="Vector_20" d="M72.8642 137.687C55.8178 137.687 39.4554 132.23 26.1696 122.001C11.0633 110.371 1.87628 94.067 0.303234 76.0909C-2.24765 46.961 15.6665 19.3954 44.8818 7.49626L45.162 7.38232L45.2896 7.65653L71.2835 63.2108C73.1212 67.1385 76.7002 70.1896 81.1044 71.5819L124.583 85.3174C129.985 87.0244 134.112 91.0796 135.626 96.1679C137.065 101.005 135.997 106.09 132.692 110.114C119.969 125.62 100.717 135.559 79.8772 137.382C77.5312 137.587 75.1909 137.689 72.8642 137.689V137.687ZM44.8432 8.20109C16.053 20.0538 -1.58094 47.2777 0.937089 76.0349C2.49467 93.8314 11.5948 109.977 26.5599 121.497C41.5328 133.026 60.4519 138.44 79.8231 136.747C100.493 134.939 119.586 125.085 132.201 109.71C135.369 105.85 136.395 100.98 135.017 96.3475C133.564 91.462 129.592 87.5651 124.392 85.9218L80.913 72.1863C76.3408 70.7419 72.6207 67.5672 70.7076 63.4792L44.8432 8.20109Z" fill="white"/>
<path id="Vector_21" d="M74.1265 144C54.5117 144 35.9831 136.28 21.9551 122.262C7.9253 108.243 0.199219 89.728 0.199219 70.1278C0.199219 38.3583 20.4478 10.2172 50.5849 0.100414L50.8864 0L72.0375 62.9173C73.5274 67.351 76.83 70.9987 81.0989 72.9221L123.214 91.912C128.383 94.2427 132.016 98.7633 133.185 104.315C134.339 109.801 132.861 115.324 129.129 119.472C115.099 135.059 95.0514 144 74.1265 144ZM50.4864 0.805246C20.7744 10.9201 0.835007 38.7387 0.835007 70.1278C0.835007 89.558 8.49538 107.913 22.4035 121.812C36.3116 135.71 54.6799 143.365 74.1245 143.365C94.8698 143.365 114.745 134.501 128.654 119.047C132.248 115.054 133.672 109.732 132.559 104.446C131.432 99.0955 127.931 94.7371 122.949 92.4913L80.8341 73.5014C76.4068 71.5047 72.9786 67.7198 71.4326 63.1181L50.4864 0.805246Z" fill="white"/>
</g>
<defs>
<clipPath id="clip0_1118_18076">
<rect width="141" height="144" fill="white"/>
</clipPath>
</defs>
</svg>
