<svg width="32" height="32" viewBox="0 0 32 32" fill="none" xmlns="http://www.w3.org/2000/svg">
<g clip-path="url(#clip0_3293_44333)">
<path d="M7 22V10H11.5C12.2956 10 13.0587 10.3161 13.6213 10.8787C14.1839 11.4413 14.5 12.2044 14.5 13C14.5 13.7956 14.1839 14.5587 13.6213 15.1213C13.0587 15.6839 12.2956 16 11.5 16C12.2956 16 13.0587 16.3161 13.6213 16.8787C14.1839 17.4413 14.5 18.2044 14.5 19C14.5 19.7956 14.1839 20.5587 13.6213 21.1213C13.0587 21.6839 12.2956 22 11.5 22H7Z" stroke="white" stroke-width="2" stroke-linecap="round" stroke-linejoin="round"/>
<path d="M7 16H11.5" stroke="white" stroke-width="2" stroke-linecap="round" stroke-linejoin="round"/>
<path d="M18 17H25C25 16.0717 24.6313 15.1815 23.9749 14.5251C23.3185 13.8687 22.4283 13.5 21.5 13.5C20.5717 13.5 19.6815 13.8687 19.0251 14.5251C18.3687 15.1815 18 16.0717 18 17ZM18 17V19C18.1031 19.7487 18.4459 20.4438 18.9769 20.9816C19.5079 21.5193 20.1987 21.8707 20.946 21.9833C21.6933 22.0958 22.457 21.9634 23.1228 21.606C23.7887 21.2485 24.3209 20.6851 24.64 20" stroke="white" stroke-width="2" stroke-linecap="round" stroke-linejoin="round"/>
<path d="M20 10H23" stroke="white" stroke-width="2" stroke-linecap="round" stroke-linejoin="round"/>
</g>
<defs>
<clipPath id="clip0_3293_44333">
<rect width="24" height="24" fill="white" transform="translate(4 4)"/>
</clipPath>
</defs>
</svg>
