<svg width="24" height="25" viewBox="0 0 24 25" fill="none" xmlns="http://www.w3.org/2000/svg">
<g id="Frame" clip-path="url(#clip0_1500_11465)">
<path id="Vector" d="M4 6.33301C4 5.80257 4.21071 5.29387 4.58579 4.91879C4.96086 4.54372 5.46957 4.33301 6 4.33301H18C18.5304 4.33301 19.0391 4.54372 19.4142 4.91879C19.7893 5.29387 20 5.80257 20 6.33301V18.333C20 18.8634 19.7893 19.3721 19.4142 19.7472C19.0391 20.1223 18.5304 20.333 18 20.333H6C5.46957 20.333 4.96086 20.1223 4.58579 19.7472C4.21071 19.3721 4 18.8634 4 18.333V6.33301Z" stroke="white" stroke-width="2" stroke-linecap="round" stroke-linejoin="round"/>
<path id="Vector_2" d="M8 11.333V16.333" stroke="white" stroke-width="2" stroke-linecap="round" stroke-linejoin="round"/>
<path id="Vector_3" d="M8 8.33301V8.34301" stroke="white" stroke-width="2" stroke-linecap="round" stroke-linejoin="round"/>
<path id="Vector_4" d="M12 16.333V11.333" stroke="white" stroke-width="2" stroke-linecap="round" stroke-linejoin="round"/>
<path id="Vector_5" d="M16 16.333V13.333C16 12.8026 15.7893 12.2939 15.4142 11.9188C15.0391 11.5437 14.5304 11.333 14 11.333C13.4696 11.333 12.9609 11.5437 12.5858 11.9188C12.2107 12.2939 12 12.8026 12 13.333" stroke="white" stroke-width="2" stroke-linecap="round" stroke-linejoin="round"/>
</g>
<defs>
<clipPath id="clip0_1500_11465">
<rect width="24" height="24" fill="white" transform="translate(0 0.333008)"/>
</clipPath>
</defs>
</svg>
