<svg width="26" height="19" viewBox="0 0 26 19" fill="none" xmlns="http://www.w3.org/2000/svg">
<path d="M1 1.3335V8.00016C1 9.06103 1.42143 10.0784 2.17157 10.8286C2.92172 11.5787 3.93913 12.0002 5 12.0002C6.06087 12.0002 7.07828 11.5787 7.82843 10.8286C8.57857 10.0784 9 9.06103 9 8.00016V1.3335H10.3333L15.6667 9.3335C16.7653 11.0922 18.26 12.0002 20.3333 12.0002C21.571 12.0002 22.758 11.5085 23.6332 10.6333C24.5083 9.75816 25 8.57117 25 7.3335C25 6.09582 24.5083 4.90883 23.6332 4.03366C22.758 3.1585 21.571 2.66683 20.3333 2.66683C17.6307 2.66683 16.1507 4.00016 15.6667 6.66683C15.344 8.44016 14.456 12.0002 13 17.3335" stroke="white" stroke-width="2" stroke-linecap="round" stroke-linejoin="round"/>
</svg>
