<svg width="32" height="32" viewBox="0 0 32 32" fill="none" xmlns="http://www.w3.org/2000/svg">
<g clip-path="url(#clip0_3293_44341)">
<path d="M4 9.33337V16C4 17.0609 4.42143 18.0783 5.17157 18.8285C5.92172 19.5786 6.93913 20 8 20C9.06087 20 10.0783 19.5786 10.8284 18.8285C11.5786 18.0783 12 17.0609 12 16V9.33337H13.3333L18.6667 17.3334C19.7653 19.092 21.26 20 23.3333 20C24.571 20 25.758 19.5084 26.6332 18.6332C27.5083 17.758 28 16.5711 28 15.3334C28 14.0957 27.5083 12.9087 26.6332 12.0335C25.758 11.1584 24.571 10.6667 23.3333 10.6667C20.6307 10.6667 19.1507 12 18.6667 14.6667C18.344 16.44 17.456 20 16 25.3334" stroke="white" stroke-width="2" stroke-linecap="round" stroke-linejoin="round"/>
</g>
<defs>
<clipPath id="clip0_3293_44341">
<rect width="32" height="32" fill="white"/>
</clipPath>
</defs>
</svg>
